Rasa-Light.ufo
<glyph name="exclam" format="1">
  <advance width="640"/>
  <unicode hex="0021"/>
  <outline>
    <contour>
      <point x="224" y="1562" type="line"/>
      <point x="271" y="447" type="line"/>
      <point x="369" y="447" type="line"/>
      <point x="415" y="1562" type="line"/>
      <point x="415" y="1712" type="line"/>
      <point x="224" y="1712" type="line"/>
    </contour>
    <contour>
      <point x="438" y="96" type="curve" smooth="yes"/>
      <point x="438" y="166"/>
      <point x="390" y="214"/>
      <point x="320" y="214" type="curve" smooth="yes"/>
      <point x="250" y="214"/>
      <point x="202" y="166"/>
      <point x="202" y="96" type="curve" smooth="yes"/>
      <point x="202" y="27"/>
      <point x="250" y="-22"/>
      <point x="320" y="-22" type="curve" smooth="yes"/>
      <point x="390" y="-22"/>
      <point x="438" y="27"/>
    </contour>
  </outline>
</glyph>
<glyph name="numbersign" format="1">
  <advance width="1429"/>
  <unicode hex="0023"/>
  <outline>
    <contour>
      <point x="318" y="0" type="line"/>
      <point x="456" y="0" type="line"/>
      <point x="489" y="364" type="line"/>
      <point x="862" y="364" type="line"/>
      <point x="831" y="0" type="line"/>
      <point x="966" y="0" type="line"/>
      <point x="998" y="364" type="line"/>
      <point x="1260" y="364" type="line"/>
      <point x="1260" y="469" type="line"/>
      <point x="1009" y="469" type="line"/>
      <point x="1049" y="921" type="line"/>
      <point x="1304" y="921" type="line"/>
      <point x="1304" y="1026" type="line"/>
      <point x="1059" y="1026" type="line"/>
      <point x="1090" y="1373" type="line"/>
      <point x="955" y="1373" type="line"/>
      <point x="924" y="1026" type="line"/>
      <point x="553" y="1026" type="line"/>
      <point x="583" y="1373" type="line"/>
      <point x="447" y="1373" type="line"/>
      <point x="417" y="1026" type="line"/>
      <point x="163" y="1026" type="line"/>
      <point x="163" y="921" type="line"/>
      <point x="408" y="921" type="line"/>
      <point x="366" y="469" type="line"/>
      <point x="129" y="469" type="line"/>
      <point x="129" y="364" type="line"/>
      <point x="353" y="364" type="line"/>
    </contour>
    <contour>
      <point x="501" y="469" type="line"/>
      <point x="542" y="921" type="line"/>
      <point x="913" y="921" type="line"/>
      <point x="869" y="469" type="line"/>
    </contour>
  </outline>
</glyph>
<glyph name="ampersand" format="1">
  <advance width="1582"/>
  <unicode hex="0026"/>
  <outline>
    <contour>
      <point x="1465" y="763" type="line"/>
      <point x="1465" y="851" type="line"/>
      <point x="968" y="851" type="line"/>
      <point x="968" y="763" type="line"/>
      <point x="1127" y="731" type="line" smooth="yes"/>
      <point x="1172" y="722"/>
      <point x="1174" y="688"/>
      <point x="1174" y="669" type="curve" smooth="yes"/>
      <point x="1174" y="529"/>
      <point x="1144" y="368"/>
      <point x="1039" y="262" type="curve"/>
      <point x="994" y="226" type="line"/>
      <point x="894" y="130"/>
      <point x="757" y="76"/>
      <point x="614" y="76" type="curve" smooth="yes"/>
      <point x="403" y="76"/>
      <point x="287" y="203"/>
      <point x="287" y="379" type="curve" smooth="yes"/>
      <point x="287" y="571"/>
      <point x="426" y="668"/>
      <point x="547" y="755" type="curve"/>
      <point x="597" y="787" type="line"/>
      <point x="827" y="894"/>
      <point x="988" y="1038"/>
      <point x="988" y="1252" type="curve" smooth="yes"/>
      <point x="988" y="1459"/>
      <point x="837" y="1580"/>
      <point x="632" y="1580" type="curve" smooth="yes"/>
      <point x="386" y="1580"/>
      <point x="247" y="1404"/>
      <point x="247" y="1207" type="curve" smooth="yes"/>
      <point x="247" y="1056"/>
      <point x="329" y="910"/>
      <point x="475" y="720" type="curve" smooth="yes"/>
      <point x="586" y="576"/>
      <point x="786" y="338"/>
      <point x="943" y="184" type="curve" smooth="yes"/>
      <point x="1093" y="36"/>
      <point x="1185" y="-13"/>
      <point x="1288" y="-13" type="curve" smooth="yes"/>
      <point x="1353" y="-13"/>
      <point x="1414" y="6"/>
      <point x="1466" y="25" type="curve"/>
      <point x="1466" y="112" type="line"/>
      <point x="1279" y="112"/>
      <point x="1238" y="130"/>
      <point x="1116" y="250" type="curve" smooth="yes"/>
      <point x="965" y="400"/>
      <point x="747" y="631"/>
      <point x="600" y="826" type="curve" smooth="yes"/>
      <point x="443" y="1034"/>
      <point x="409" y="1146"/>
      <point x="409" y="1232" type="curve" smooth="yes"/>
      <point x="409" y="1361"/>
      <point x="485" y="1500"/>
      <point x="636" y="1500" type="curve" smooth="yes"/>
      <point x="781" y="1500"/>
      <point x="833" y="1372"/>
      <point x="833" y="1256" type="curve" smooth="yes"/>
      <point x="833" y="1072"/>
      <point x="703" y="955"/>
      <point x="559" y="852" type="curve" smooth="yes"/>
      <point x="489" y="802" type="line"/>
      <point x="320" y="738"/>
      <point x="122" y="618"/>
      <point x="122" y="361" type="curve" smooth="yes"/>
      <point x="122" y="94"/>
      <point x="335" y="-26"/>
      <point x="586" y="-26" type="curve" smooth="yes"/>
      <point x="751" y="-26"/>
      <point x="938" y="24"/>
      <point x="1066" y="165" type="curve"/>
      <point x="1107" y="200" type="line"/>
      <point x="1251" y="335"/>
      <point x="1292" y="491"/>
      <point x="1314" y="666" type="curve" smooth="yes"/>
      <point x="1319" y="702"/>
      <point x="1325" y="719"/>
      <point x="1364" y="731" type="curve" smooth="yes"/>
    </contour>
  </outline>
</glyph>
<glyph name="parenleft" format="1">
  <advance width="702"/>
  <unicode hex="0028"/>
  <outline>
    <contour>
      <point x="653" y="-384" type="line"/>
      <point x="570" y="-280"/>
      <point x="281" y="138"/>
      <point x="293" y="849" type="curve" smooth="yes"/>
      <point x="303" y="1465"/>
      <point x="543" y="1840"/>
      <point x="653" y="1974" type="curve"/>
      <point x="582" y="2042" type="line"/>
      <point x="474" y="1937"/>
      <point x="123" y="1499"/>
      <point x="123" y="812" type="curve" smooth="yes"/>
      <point x="123" y="35"/>
      <point x="499" y="-375"/>
      <point x="582" y="-452" type="curve"/>
    </contour>
  </outline>
</glyph>
<glyph name="parenright" format="1">
  <advance width="702"/>
  <unicode hex="0029"/>
  <outline>
    <contour>
      <point x="579" y="778" type="curve" smooth="yes"/>
      <point x="579" y="1555"/>
      <point x="203" y="1965"/>
      <point x="120" y="2042" type="curve"/>
      <point x="49" y="1974" type="line"/>
      <point x="132" y="1870"/>
      <point x="421" y="1452"/>
      <point x="409" y="741" type="curve" smooth="yes"/>
      <point x="399" y="125"/>
      <point x="159" y="-250"/>
      <point x="49" y="-384" type="curve"/>
      <point x="120" y="-452" type="line"/>
      <point x="228" y="-347"/>
      <point x="579" y="91"/>
    </contour>
  </outline>
</glyph>
<glyph name="comma" format="1">
  <advance width="605"/>
  <unicode hex="002C"/>
  <outline>
    <contour>
      <point x="332" y="-281"/>
      <point x="443" y="-116"/>
      <point x="443" y="65" type="curve" smooth="yes"/>
      <point x="443" y="213"/>
      <point x="366" y="279"/>
      <point x="288" y="279" type="curve" smooth="yes"/>
      <point x="215" y="279"/>
      <point x="164" y="221"/>
      <point x="164" y="153" type="curve" smooth="yes"/>
      <point x="164" y="88"/>
      <point x="206" y="51"/>
      <point x="242" y="31" type="curve" smooth="yes"/>
      <point x="270" y="16"/>
      <point x="288" y="5"/>
      <point x="288" y="-41" type="curve" smooth="yes"/>
      <point x="288" y="-128"/>
      <point x="235" y="-232"/>
      <point x="124" y="-324" type="curve"/>
      <point x="166" y="-379" type="line"/>
    </contour>
  </outline>
</glyph>
<glyph name="zero" format="1">
  <advance width="1294"/>
  <unicode hex="0030"/>
  <outline>
    <contour>
      <point x="334" y="719" type="curve" smooth="yes"/>
      <point x="334" y="372"/>
      <point x="399" y="88"/>
      <point x="659" y="88" type="curve" smooth="yes"/>
      <point x="889" y="88"/>
      <point x="960" y="306"/>
      <point x="960" y="657" type="curve" smooth="yes"/>
      <point x="960" y="1007"/>
      <point x="895" y="1290"/>
      <point x="634" y="1290" type="curve" smooth="yes"/>
      <point x="404" y="1290"/>
      <point x="334" y="1072"/>
    </contour>
    <contour>
      <point x="146" y="676" type="curve" smooth="yes"/>
      <point x="146" y="1146"/>
      <point x="340" y="1396"/>
      <point x="661" y="1396" type="curve" smooth="yes"/>
      <point x="1041" y="1396"/>
      <point x="1148" y="1063"/>
      <point x="1148" y="700" type="curve" smooth="yes"/>
      <point x="1148" y="221"/>
      <point x="954" y="-18"/>
      <point x="635" y="-18" type="curve" smooth="yes"/>
      <point x="253" y="-18"/>
      <point x="146" y="314"/>
    </contour>
  </outline>
</glyph>
<glyph name="three" format="1">
  <advance width="1147"/>
  <unicode hex="0033"/>
  <outline>
    <contour>
      <point x="1014" y="392" type="curve" smooth="yes"/>
      <point x="1014" y="627"/>
      <point x="815" y="733"/>
      <point x="661" y="733" type="curve"/>
      <point x="795" y="780"/>
      <point x="941" y="913"/>
      <point x="941" y="1097" type="curve" smooth="yes"/>
      <point x="941" y="1274"/>
      <point x="780" y="1396"/>
      <point x="576" y="1396" type="curve" smooth="yes"/>
      <point x="399" y="1396"/>
      <point x="236" y="1309"/>
      <point x="166" y="1170" type="curve"/>
      <point x="221" y="1115" type="line"/>
      <point x="303" y="1199"/>
      <point x="403" y="1268"/>
      <point x="527" y="1268" type="curve" smooth="yes"/>
      <point x="675" y="1268"/>
      <point x="765" y="1180"/>
      <point x="765" y="1068" type="curve" smooth="yes"/>
      <point x="765" y="893"/>
      <point x="605" y="789"/>
      <point x="364" y="738" type="curve"/>
      <point x="390" y="644" type="line"/>
      <point x="441" y="650"/>
      <point x="494" y="661"/>
      <point x="545" y="676" type="curve"/>
      <point x="714" y="656"/>
      <point x="828" y="556"/>
      <point x="823" y="376" type="curve" smooth="yes"/>
      <point x="817" y="169"/>
      <point x="661" y="98"/>
      <point x="485" y="98" type="curve" smooth="yes"/>
      <point x="360" y="98"/>
      <point x="245" y="134"/>
      <point x="150" y="189" type="curve"/>
      <point x="104" y="121" type="line"/>
      <point x="194" y="37"/>
      <point x="356" y="-23"/>
      <point x="518" y="-23" type="curve" smooth="yes"/>
      <point x="797" y="-23"/>
      <point x="1014" y="156"/>
    </contour>
  </outline>
</glyph>
<glyph name="five" format="1">
  <advance width="1164"/>
  <unicode hex="0035"/>
  <outline>
    <contour>
      <point x="162" y="217" type="curve"/>
      <point x="111" y="144" type="line"/>
      <point x="191" y="54"/>
      <point x="334" y="-23"/>
      <point x="524" y="-23" type="curve" smooth="yes"/>
      <point x="832" y="-23"/>
      <point x="1030" y="173"/>
      <point x="1030" y="459" type="curve" smooth="yes"/>
      <point x="1030" y="718"/>
      <point x="868" y="879"/>
      <point x="596" y="879" type="curve" smooth="yes"/>
      <point x="508" y="879"/>
      <point x="418" y="862"/>
      <point x="335" y="806" type="curve"/>
      <point x="368" y="1231" type="line"/>
      <point x="946" y="1231" type="line"/>
      <point x="965" y="1373" type="line"/>
      <point x="241" y="1373" type="line"/>
      <point x="204" y="742" type="line"/>
      <point x="275" y="690" type="line"/>
      <point x="363" y="738"/>
      <point x="453" y="756"/>
      <point x="525" y="756" type="curve" smooth="yes"/>
      <point x="729" y="756"/>
      <point x="840" y="625"/>
      <point x="840" y="436" type="curve" smooth="yes"/>
      <point x="840" y="218"/>
      <point x="694" y="98"/>
      <point x="491" y="98" type="curve" smooth="yes"/>
      <point x="353" y="98"/>
      <point x="243" y="154"/>
    </contour>
  </outline>
</glyph>
<glyph name="seven" format="1">
  <advance width="1113"/>
  <unicode hex="0037"/>
  <outline>
    <contour>
      <point x="909" y="1233" type="line"/>
      <point x="643" y="955"/>
      <point x="436" y="490"/>
      <point x="378" y="43" type="curve"/>
      <point x="408" y="0" type="line"/>
      <point x="570" y="0" type="line"/>
      <point x="617" y="544"/>
      <point x="812" y="967"/>
      <point x="1050" y="1258" type="curve"/>
      <point x="1000" y="1373" type="line"/>
      <point x="144" y="1373" type="line"/>
      <point x="119" y="1252"/>
      <point x="105" y="1101"/>
      <point x="107" y="946" type="curve"/>
      <point x="204" y="950" type="line"/>
      <point x="263" y="1158" type="line" smooth="yes"/>
      <point x="275" y="1199"/>
      <point x="300" y="1209"/>
      <point x="342" y="1217" type="curve" smooth="yes"/>
      <point x="397" y="1227"/>
      <point x="479" y="1233"/>
      <point x="596" y="1233" type="curve" smooth="yes"/>
    </contour>
  </outline>
</glyph>
<glyph name="eight" format="1">
  <advance width="1260"/>
  <unicode hex="0038"/>
  <outline>
    <contour>
      <point x="132" y="346" type="curve" smooth="yes"/>
      <point x="132" y="112"/>
      <point x="351" y="-23"/>
      <point x="624" y="-23" type="curve" smooth="yes"/>
      <point x="911" y="-23"/>
      <point x="1124" y="126"/>
      <point x="1124" y="354" type="curve" smooth="yes"/>
      <point x="1124" y="578"/>
      <point x="918" y="670"/>
      <point x="686" y="780" type="curve" smooth="yes"/>
      <point x="509" y="864"/>
      <point x="366" y="934"/>
      <point x="366" y="1083" type="curve" smooth="yes"/>
      <point x="366" y="1202"/>
      <point x="458" y="1298"/>
      <point x="630" y="1298" type="curve" smooth="yes"/>
      <point x="796" y="1298"/>
      <point x="901" y="1208"/>
      <point x="901" y="1060" type="curve" smooth="yes"/>
      <point x="901" y="921"/>
      <point x="809" y="823"/>
      <point x="639" y="753" type="curve"/>
      <point x="722" y="710" type="line"/>
      <point x="914" y="748"/>
      <point x="1069" y="904"/>
      <point x="1069" y="1077" type="curve" smooth="yes"/>
      <point x="1069" y="1264"/>
      <point x="887" y="1396"/>
      <point x="644" y="1396" type="curve" smooth="yes"/>
      <point x="392" y="1396"/>
      <point x="205" y="1255"/>
      <point x="205" y="1048" type="curve" smooth="yes"/>
      <point x="205" y="819"/>
      <point x="434" y="704"/>
      <point x="625" y="621" type="curve" smooth="yes"/>
      <point x="789" y="550"/>
      <point x="942" y="493"/>
      <point x="942" y="322" type="curve" smooth="yes"/>
      <point x="942" y="173"/>
      <point x="825" y="79"/>
      <point x="642" y="79" type="curve" smooth="yes"/>
      <point x="462" y="79"/>
      <point x="310" y="170"/>
      <point x="310" y="363" type="curve" smooth="yes"/>
      <point x="310" y="506"/>
      <point x="394" y="630"/>
      <point x="590" y="701" type="curve"/>
      <point x="502" y="736" type="line"/>
      <point x="275" y="687"/>
      <point x="132" y="535"/>
    </contour>
  </outline>
</glyph>
<glyph name="nine" format="1">
  <advance width="1243"/>
  <unicode hex="0039"/>
  <outline>
    <contour>
      <point x="611" y="1396" type="curve" smooth="yes"/>
      <point x="319" y="1396"/>
      <point x="124" y="1192"/>
      <point x="124" y="914" type="curve" smooth="yes"/>
      <point x="124" y="668"/>
      <point x="287" y="490"/>
      <point x="555" y="490" type="curve" smooth="yes"/>
      <point x="728" y="490"/>
      <point x="901" y="564"/>
      <point x="960" y="696" type="curve"/>
      <point x="951" y="747" type="line"/>
      <point x="878" y="670"/>
      <point x="729" y="615"/>
      <point x="605" y="615" type="curve" smooth="yes"/>
      <point x="412" y="615"/>
      <point x="307" y="749"/>
      <point x="307" y="943" type="curve" smooth="yes"/>
      <point x="307" y="1132"/>
      <point x="402" y="1290"/>
      <point x="590" y="1290" type="curve" smooth="yes"/>
      <point x="814" y="1290"/>
      <point x="912" y="1055"/>
      <point x="912" y="807" type="curve" smooth="yes"/>
      <point x="912" y="741" type="line" smooth="yes"/>
      <point x="912" y="354"/>
      <point x="757" y="93"/>
      <point x="477" y="93" type="curve" smooth="yes"/>
      <point x="373" y="93"/>
      <point x="285" y="128"/>
      <point x="229" y="161" type="curve"/>
      <point x="186" y="78" type="line"/>
      <point x="252" y="19"/>
      <point x="375" y="-23"/>
      <point x="511" y="-23" type="curve" smooth="yes"/>
      <point x="880" y="-23"/>
      <point x="1101" y="291"/>
      <point x="1101" y="760" type="curve" smooth="yes"/>
      <point x="1101" y="1171"/>
      <point x="911" y="1396"/>
    </contour>
  </outline>
</glyph>
<glyph name="semicolon" format="1">
  <advance width="664"/>
  <unicode hex="003B"/>
  <outline>
    <contour>
      <point x="369" y="-281"/>
      <point x="480" y="-116"/>
      <point x="480" y="65" type="curve" smooth="yes"/>
      <point x="480" y="213"/>
      <point x="403" y="279"/>
      <point x="325" y="279" type="curve" smooth="yes"/>
      <point x="252" y="279"/>
      <point x="201" y="221"/>
      <point x="201" y="153" type="curve" smooth="yes"/>
      <point x="201" y="88"/>
      <point x="243" y="51"/>
      <point x="279" y="31" type="curve" smooth="yes"/>
      <point x="307" y="16"/>
      <point x="325" y="5"/>
      <point x="325" y="-41" type="curve" smooth="yes"/>
      <point x="325" y="-128"/>
      <point x="272" y="-232"/>
      <point x="161" y="-324" type="curve"/>
      <point x="203" y="-379" type="line"/>
    </contour>
    <contour>
      <point x="460" y="959" type="curve" smooth="yes"/>
      <point x="460" y="1036"/>
      <point x="407" y="1089"/>
      <point x="330" y="1089" type="curve" smooth="yes"/>
      <point x="253" y="1089"/>
      <point x="200" y="1036"/>
      <point x="200" y="959" type="curve" smooth="yes"/>
      <point x="200" y="883"/>
      <point x="253" y="829"/>
      <point x="330" y="829" type="curve" smooth="yes"/>
      <point x="407" y="829"/>
      <point x="460" y="883"/>
    </contour>
  </outline>
</glyph>
<glyph name="greater" format="1">
  <advance width="1165"/>
  <unicode hex="003E"/>
  <outline>
    <contour>
      <point x="1059" y="564" type="line"/>
      <point x="1059" y="665" type="line"/>
      <point x="210" y="1082" type="line"/>
      <point x="154" y="961" type="line"/>
      <point x="935" y="595" type="line"/>
      <point x="935" y="629" type="line"/>
      <point x="154" y="268" type="line"/>
      <point x="210" y="147" type="line"/>
    </contour>
  </outline>
</glyph>
<glyph name="question" format="1">
  <advance width="1042"/>
  <unicode hex="003F"/>
  <outline>
    <contour>
      <point x="484" y="447" type="line"/>
      <point x="502" y="623" type="line" smooth="yes"/>
      <point x="513" y="736"/>
      <point x="544" y="765"/>
      <point x="660" y="863" type="curve" smooth="yes"/>
      <point x="814" y="993"/>
      <point x="964" y="1115"/>
      <point x="964" y="1315" type="curve" smooth="yes"/>
      <point x="964" y="1535"/>
      <point x="784" y="1746"/>
      <point x="488" y="1746" type="curve" smooth="yes"/>
      <point x="319" y="1746"/>
      <point x="170" y="1678"/>
      <point x="84" y="1607" type="curve"/>
      <point x="84" y="1496"/>
      <point x="102" y="1373"/>
      <point x="131" y="1272" type="curve"/>
      <point x="232" y="1272" type="line"/>
      <point x="249" y="1459" type="line" smooth="yes"/>
      <point x="253" y="1500"/>
      <point x="261" y="1529"/>
      <point x="291" y="1558" type="curve" smooth="yes"/>
      <point x="332" y="1598"/>
      <point x="418" y="1637"/>
      <point x="514" y="1637" type="curve" smooth="yes"/>
      <point x="688" y="1637"/>
      <point x="776" y="1515"/>
      <point x="776" y="1352" type="curve" smooth="yes"/>
      <point x="776" y="1197"/>
      <point x="696" y="1110"/>
      <point x="516" y="945" type="curve" smooth="yes"/>
      <point x="412" y="850"/>
      <point x="354" y="802"/>
      <point x="354" y="691" type="curve" smooth="yes"/>
      <point x="354" y="623"/>
      <point x="376" y="525"/>
      <point x="396" y="447" type="curve"/>
    </contour>
    <contour>
      <point x="525" y="-22"/>
      <point x="573" y="27"/>
      <point x="573" y="96" type="curve" smooth="yes"/>
      <point x="573" y="166"/>
      <point x="525" y="214"/>
      <point x="455" y="214" type="curve" smooth="yes"/>
      <point x="385" y="214"/>
      <point x="337" y="166"/>
      <point x="337" y="96" type="curve" smooth="yes"/>
      <point x="337" y="27"/>
      <point x="385" y="-22"/>
      <point x="455" y="-22" type="curve" smooth="yes"/>
    </contour>
  </outline>
</glyph>
<glyph name="A" format="1">
  <advance width="1526"/>
  <unicode hex="0041"/>
  <outline>
    <contour>
      <point x="352" y="483" type="line"/>
      <point x="1114" y="483" type="line"/>
      <point x="1072" y="589" type="line"/>
      <point x="386" y="589" type="line"/>
    </contour>
    <contour>
      <point x="840" y="1567" type="line"/>
      <point x="672" y="1567" type="line"/>
      <point x="188" y="170" type="line" smooth="yes"/>
      <point x="178" y="140"/>
      <point x="157" y="123"/>
      <point x="126" y="116" type="curve" smooth="yes"/>
      <point x="8" y="88" type="line"/>
      <point x="8" y="0" type="line"/>
      <point x="507" y="0" type="line"/>
      <point x="507" y="88" type="line"/>
      <point x="307" y="126" type="line"/>
      <point x="765" y="1494" type="line"/>
      <point x="694" y="1494" type="line"/>
      <point x="1184" y="126" type="line"/>
      <point x="984" y="88" type="line"/>
      <point x="984" y="0" type="line"/>
      <point x="1523" y="0" type="line"/>
      <point x="1523" y="88" type="line"/>
      <point x="1412" y="116" type="line" smooth="yes"/>
      <point x="1380" y="124"/>
      <point x="1361" y="139"/>
      <point x="1350" y="170" type="curve" smooth="yes"/>
    </contour>
    <contour>
      <point x="735" y="0" type="move" name="btm"/>
    </contour>
    <contour>
      <point x="762" y="1562" type="move" name="top"/>
    </contour>
  </outline>
</glyph>
<glyph name="F" format="1">
  <advance width="1276"/>
  <unicode hex="0046"/>
  <outline>
    <contour>
      <point x="1007" y="716" type="line"/>
      <point x="1007" y="852" type="line"/>
      <point x="501" y="835" type="line"/>
      <point x="501" y="1464" type="line"/>
      <point x="778" y="1464" type="line" smooth="yes"/>
      <point x="872" y="1464"/>
      <point x="952" y="1458"/>
      <point x="1001" y="1440" type="curve" smooth="yes"/>
      <point x="1033" y="1428"/>
      <point x="1051" y="1412"/>
      <point x="1058" y="1383" type="curve" smooth="yes"/>
      <point x="1101" y="1192" type="line"/>
      <point x="1190" y="1192" type="line"/>
      <point x="1202" y="1325"/>
      <point x="1203" y="1442"/>
      <point x="1195" y="1562" type="curve"/>
      <point x="116" y="1562" type="line"/>
      <point x="116" y="1474" type="line"/>
      <point x="277" y="1442" type="line" smooth="yes"/>
      <point x="312" y="1435"/>
      <point x="331" y="1412"/>
      <point x="331" y="1377" type="curve" smooth="yes"/>
      <point x="331" y="182" type="line" smooth="yes"/>
      <point x="331" y="146"/>
      <point x="313" y="124"/>
      <point x="277" y="117" type="curve" smooth="yes"/>
      <point x="116" y="88" type="line"/>
      <point x="116" y="0" type="line"/>
      <point x="805" y="0" type="line"/>
      <point x="805" y="88" type="line"/>
      <point x="552" y="121" type="line" smooth="yes"/>
      <point x="522" y="125"/>
      <point x="501" y="149"/>
      <point x="501" y="179" type="curve" smooth="yes"/>
      <point x="501" y="729" type="line"/>
    </contour>
    <contour>
      <point x="698" y="0" type="move" name="btm"/>
    </contour>
    <contour>
      <point x="698" y="1562" type="move" name="top"/>
    </contour>
  </outline>
</glyph>
<glyph name="G" format="1">
  <advance width="1592"/>
  <unicode hex="0047"/>
  <outline>
    <contour>
      <point x="1299" y="218" type="curve"/>
      <point x="1276" y="314" type="line"/>
      <point x="1184" y="150"/>
      <point x="1027" y="102"/>
      <point x="866" y="102" type="curve" smooth="yes"/>
      <point x="479" y="102"/>
      <point x="325" y="413"/>
      <point x="325" y="796" type="curve" smooth="yes"/>
      <point x="325" y="1267"/>
      <point x="554" y="1487"/>
      <point x="857" y="1487" type="curve" smooth="yes"/>
      <point x="978" y="1487"/>
      <point x="1082" y="1460"/>
      <point x="1142" y="1425" type="curve" smooth="yes"/>
      <point x="1173" y="1407"/>
      <point x="1185" y="1387"/>
      <point x="1194" y="1348" type="curve" smooth="yes"/>
      <point x="1237" y="1155" type="line"/>
      <point x="1337" y="1155" type="line"/>
      <point x="1352" y="1268"/>
      <point x="1363" y="1372"/>
      <point x="1358" y="1485" type="curve"/>
      <point x="1223" y="1558"/>
      <point x="1064" y="1585"/>
      <point x="904" y="1585" type="curve" smooth="yes"/>
      <point x="453" y="1585"/>
      <point x="133" y="1307"/>
      <point x="133" y="763" type="curve" smooth="yes"/>
      <point x="133" y="303"/>
      <point x="366" y="-23"/>
      <point x="814" y="-23" type="curve" smooth="yes"/>
      <point x="1030" y="-23"/>
      <point x="1187" y="55"/>
    </contour>
    <contour>
      <point x="1369" y="10" type="line"/>
      <point x="1369" y="656" type="line"/>
      <point x="1495" y="677" type="line"/>
      <point x="1495" y="785" type="line"/>
      <point x="893" y="785" type="line"/>
      <point x="893" y="677" type="line"/>
      <point x="1197" y="656" type="line"/>
      <point x="1197" y="128" type="line"/>
      <point x="1208" y="128" type="line"/>
      <point x="1323" y="-7" type="line"/>
    </contour>
    <contour>
      <point x="808" y="0" type="move" name="btm"/>
    </contour>
    <contour>
      <point x="844" y="1562" type="move" name="top"/>
    </contour>
  </outline>
</glyph>
<glyph name="I" format="1">
  <advance width="832"/>
  <unicode hex="0049"/>
  <outline>
    <contour>
      <point x="716" y="1562" type="line"/>
      <point x="116" y="1562" type="line"/>
      <point x="116" y="1474" type="line"/>
      <point x="277" y="1442" type="line" smooth="yes"/>
      <point x="312" y="1435"/>
      <point x="331" y="1412"/>
      <point x="331" y="1377" type="curve" smooth="yes"/>
      <point x="331" y="182" type="line" smooth="yes"/>
      <point x="331" y="146"/>
      <point x="313" y="124"/>
      <point x="277" y="117" type="curve" smooth="yes"/>
      <point x="116" y="88" type="line"/>
      <point x="116" y="0" type="line"/>
      <point x="716" y="0" type="line"/>
      <point x="716" y="88" type="line"/>
      <point x="555" y="117" type="line" smooth="yes"/>
      <point x="519" y="124"/>
      <point x="501" y="145"/>
      <point x="501" y="182" type="curve" smooth="yes"/>
      <point x="501" y="1377" type="line" smooth="yes"/>
      <point x="501" y="1413"/>
      <point x="520" y="1435"/>
      <point x="555" y="1442" type="curve" smooth="yes"/>
      <point x="716" y="1474" type="line"/>
    </contour>
    <contour>
      <point x="419" y="0" type="move" name="btm"/>
    </contour>
    <contour>
      <point x="416" y="1562" type="move" name="top"/>
    </contour>
  </outline>
</glyph>
<glyph name="K" format="1">
  <advance width="1559"/>
  <unicode hex="004B"/>
  <outline>
    <contour>
      <point x="731" y="0" type="line"/>
      <point x="731" y="88" type="line"/>
      <point x="558" y="119" type="line" smooth="yes"/>
      <point x="521" y="126"/>
      <point x="501" y="144"/>
      <point x="501" y="181" type="curve" smooth="yes"/>
      <point x="501" y="1377" type="line" smooth="yes"/>
      <point x="501" y="1413"/>
      <point x="520" y="1435"/>
      <point x="555" y="1442" type="curve" smooth="yes"/>
      <point x="716" y="1474" type="line"/>
      <point x="716" y="1562" type="line"/>
      <point x="116" y="1562" type="line"/>
      <point x="116" y="1474" type="line"/>
      <point x="275" y="1442" type="line" smooth="yes"/>
      <point x="310" y="1435"/>
      <point x="331" y="1415"/>
      <point x="331" y="1378" type="curve" smooth="yes"/>
      <point x="331" y="181" type="line" smooth="yes"/>
      <point x="331" y="144"/>
      <point x="310" y="125"/>
      <point x="274" y="118" type="curve" smooth="yes"/>
      <point x="116" y="88" type="line"/>
      <point x="116" y="0" type="line"/>
    </contour>
    <contour>
      <point x="786" y="853" type="line"/>
      <point x="1291" y="1404" type="line" smooth="yes"/>
      <point x="1312" y="1426"/>
      <point x="1332" y="1435"/>
      <point x="1361" y="1442" type="curve" smooth="yes"/>
      <point x="1497" y="1474" type="line"/>
      <point x="1497" y="1562" type="line"/>
      <point x="978" y="1562" type="line"/>
      <point x="978" y="1474" type="line"/>
      <point x="1161" y="1436" type="line"/>
      <point x="451" y="636" type="line"/>
      <point x="450" y="486" type="line"/>
    </contour>
    <contour>
      <point x="1544" y="0" type="line"/>
      <point x="1544" y="88" type="line"/>
      <point x="1428" y="115" type="line" smooth="yes"/>
      <point x="1380" y="126"/>
      <point x="1361" y="139"/>
      <point x="1324" y="197" type="curve" smooth="yes"/>
      <point x="1062" y="610" type="line" smooth="yes"/>
      <point x="957" y="777"/>
      <point x="892" y="876"/>
      <point x="816" y="953" type="curve"/>
      <point x="706" y="836" type="line"/>
      <point x="764" y="757"/>
      <point x="822" y="666"/>
      <point x="891" y="549" type="curve" smooth="yes"/>
      <point x="1078" y="229" type="line" smooth="yes"/>
      <point x="1163" y="85"/>
      <point x="1224" y="0"/>
      <point x="1266" y="0" type="curve" smooth="yes"/>
    </contour>
    <contour>
      <point x="871" y="0" type="move" name="btm"/>
    </contour>
    <contour>
      <point x="813" y="1562" type="move" name="top"/>
    </contour>
  </outline>
</glyph>
<glyph name="L" format="1">
  <advance width="1349"/>
  <unicode hex="004C"/>
  <outline>
    <contour>
      <point x="1113" y="189" type="line" smooth="yes"/>
      <point x="1104" y="160"/>
      <point x="1087" y="143"/>
      <point x="1056" y="132" type="curve" smooth="yes"/>
      <point x="1005" y="114"/>
      <point x="920" y="108"/>
      <point x="823" y="108" type="curve" smooth="yes"/>
      <point x="500" y="108" type="line"/>
      <point x="500" y="1377" type="line" smooth="yes"/>
      <point x="500" y="1414"/>
      <point x="519" y="1436"/>
      <point x="555" y="1442" type="curve" smooth="yes"/>
      <point x="764" y="1474" type="line"/>
      <point x="764" y="1562" type="line"/>
      <point x="116" y="1562" type="line"/>
      <point x="116" y="1474" type="line"/>
      <point x="277" y="1443" type="line" smooth="yes"/>
      <point x="313" y="1436"/>
      <point x="331" y="1414"/>
      <point x="331" y="1378" type="curve" smooth="yes"/>
      <point x="331" y="180" type="line" smooth="yes"/>
      <point x="331" y="144"/>
      <point x="313" y="122"/>
      <point x="277" y="116" type="curve" smooth="yes"/>
      <point x="116" y="88" type="line"/>
      <point x="116" y="0" type="line"/>
      <point x="1241" y="0" type="line"/>
      <point x="1268" y="131"/>
      <point x="1282" y="298"/>
      <point x="1285" y="431" type="curve"/>
      <point x="1195" y="444" type="line"/>
    </contour>
    <contour>
      <point x="742" y="0" type="move" name="btm"/>
    </contour>
    <contour>
      <point x="484" y="1562" type="move" name="top"/>
    </contour>
    <contour>
      <point x="726" y="916" type="move" name="topright"/>
    </contour>
  </outline>
</glyph>
<glyph name="M" format="1">
  <advance width="2143"/>
  <unicode hex="004D"/>
  <outline>
    <contour>
      <point x="1695" y="1372" type="line" smooth="yes"/>
      <point x="1689" y="1411"/>
      <point x="1705" y="1435"/>
      <point x="1743" y="1442" type="curve" smooth="yes"/>
      <point x="1927" y="1474" type="line"/>
      <point x="1927" y="1562" type="line"/>
      <point x="1443" y="1562" type="line"/>
      <point x="1044" y="226" type="line"/>
      <point x="1125" y="226" type="line"/>
      <point x="669" y="1562" type="line"/>
      <point x="187" y="1562" type="line"/>
      <point x="187" y="1474" type="line"/>
      <point x="371" y="1442" type="line" smooth="yes"/>
      <point x="408" y="1436"/>
      <point x="426" y="1412"/>
      <point x="421" y="1374" type="curve" smooth="yes"/>
      <point x="276" y="178" type="line" smooth="yes"/>
      <point x="272" y="144"/>
      <point x="253" y="122"/>
      <point x="219" y="116" type="curve" smooth="yes"/>
      <point x="70" y="88" type="line"/>
      <point x="70" y="0" type="line"/>
      <point x="605" y="0" type="line"/>
      <point x="605" y="88" type="line"/>
      <point x="403" y="122" type="line"/>
      <point x="565" y="1505" type="line"/>
      <point x="506" y="1505" type="line"/>
      <point x="1011" y="69" type="line"/>
      <point x="1123" y="69" type="line"/>
      <point x="1557" y="1504" type="line"/>
      <point x="1496" y="1505" type="line"/>
      <point x="1724" y="122" type="line"/>
      <point x="1535" y="88" type="line"/>
      <point x="1535" y="0" type="line"/>
      <point x="2095" y="0" type="line"/>
      <point x="2095" y="88" type="line"/>
      <point x="1946" y="116" type="line" smooth="yes"/>
      <point x="1913" y="122"/>
      <point x="1893" y="143"/>
      <point x="1888" y="176" type="curve" smooth="yes"/>
    </contour>
    <contour>
      <point x="1069" y="0" type="move" name="btm"/>
    </contour>
    <contour>
      <point x="1078" y="1562" type="move" name="top"/>
    </contour>
  </outline>
</glyph>
<glyph name="N" format="1">
  <advance width="1770"/>
  <unicode hex="004E"/>
  <outline>
    <contour>
      <point x="1522" y="1442" type="curve" smooth="yes"/>
      <point x="1663" y="1474" type="line"/>
      <point x="1663" y="1562" type="line"/>
      <point x="1120" y="1562" type="line"/>
      <point x="1120" y="1474" type="line"/>
      <point x="1291" y="1442" type="line" smooth="yes"/>
      <point x="1326" y="1435"/>
      <point x="1345" y="1412"/>
      <point x="1345" y="1377" type="curve" smooth="yes"/>
      <point x="1345" y="192" type="line"/>
      <point x="1403" y="206" type="line"/>
      <point x="498" y="1562" type="line"/>
      <point x="116" y="1562" type="line"/>
      <point x="116" y="1474" type="line"/>
      <point x="277" y="1442" type="line" smooth="yes"/>
      <point x="312" y="1435"/>
      <point x="331" y="1412"/>
      <point x="331" y="1377" type="curve" smooth="yes"/>
      <point x="331" y="182" type="line" smooth="yes"/>
      <point x="331" y="146"/>
      <point x="313" y="124"/>
      <point x="277" y="117" type="curve" smooth="yes"/>
      <point x="116" y="88" type="line"/>
      <point x="116" y="0" type="line"/>
      <point x="689" y="0" type="line"/>
      <point x="689" y="88" type="line"/>
      <point x="508" y="117" type="line" smooth="yes"/>
      <point x="472" y="123"/>
      <point x="454" y="145"/>
      <point x="454" y="182" type="curve" smooth="yes"/>
      <point x="454" y="1412" type="line"/>
      <point x="396" y="1403" type="line"/>
      <point x="1335" y="0" type="line"/>
      <point x="1468" y="0" type="line"/>
      <point x="1468" y="1377" type="line" smooth="yes"/>
      <point x="1468" y="1413"/>
      <point x="1487" y="1434"/>
    </contour>
    <contour>
      <point x="928" y="0" type="move" name="btm"/>
    </contour>
    <contour>
      <point x="868" y="1562" type="move" name="top"/>
    </contour>
  </outline>
</glyph>
<glyph name="P" format="1">
  <advance width="1392"/>
  <unicode hex="0050"/>
  <outline>
    <contour>
      <point x="501" y="1465" type="line"/>
      <point x="557" y="1465"/>
      <point x="625" y="1478"/>
      <point x="723" y="1478" type="curve" smooth="yes"/>
      <point x="994" y="1478"/>
      <point x="1120" y="1389"/>
      <point x="1120" y="1141" type="curve" smooth="yes"/>
      <point x="1120" y="813"/>
      <point x="928" y="715"/>
      <point x="721" y="715" type="curve" smooth="yes"/>
      <point x="613" y="715"/>
      <point x="550" y="720"/>
      <point x="448" y="725" type="curve"/>
      <point x="450" y="623" type="line"/>
      <point x="541" y="619"/>
      <point x="631" y="613"/>
      <point x="718" y="613" type="curve" smooth="yes"/>
      <point x="1044" y="613"/>
      <point x="1303" y="806"/>
      <point x="1303" y="1141" type="curve" smooth="yes"/>
      <point x="1303" y="1416"/>
      <point x="1176" y="1577"/>
      <point x="776" y="1577" type="curve" smooth="yes"/>
      <point x="597" y="1577"/>
      <point x="552" y="1562"/>
      <point x="416" y="1562" type="curve" smooth="yes"/>
      <point x="116" y="1562" type="line"/>
      <point x="116" y="1474" type="line"/>
      <point x="285" y="1440" type="line" smooth="yes"/>
      <point x="313" y="1434"/>
      <point x="331" y="1408"/>
      <point x="331" y="1380" type="curve" smooth="yes"/>
      <point x="331" y="178" type="line" smooth="yes"/>
      <point x="331" y="146"/>
      <point x="312" y="123"/>
      <point x="278" y="117" type="curve" smooth="yes"/>
      <point x="116" y="88" type="line"/>
      <point x="116" y="0" type="line"/>
      <point x="795" y="0" type="line"/>
      <point x="795" y="88" type="line"/>
      <point x="552" y="121" type="line" smooth="yes"/>
      <point x="522" y="125"/>
      <point x="501" y="149"/>
      <point x="501" y="179" type="curve" smooth="yes"/>
    </contour>
    <contour>
      <point x="722" y="0" type="move" name="btm"/>
    </contour>
    <contour>
      <point x="722" y="1562" type="move" name="top"/>
    </contour>
  </outline>
</glyph>
<glyph name="S" format="1">
  <advance width="1267"/>
  <unicode hex="0053"/>
  <outline>
    <contour>
      <point x="1145" y="407" type="curve" smooth="yes"/>
      <point x="1145" y="662"/>
      <point x="926" y="771"/>
      <point x="714" y="870" type="curve" smooth="yes"/>
      <point x="470" y="984"/>
      <point x="334" y="1049"/>
      <point x="334" y="1239" type="curve" smooth="yes"/>
      <point x="334" y="1401"/>
      <point x="433" y="1491"/>
      <point x="625" y="1491" type="curve" smooth="yes"/>
      <point x="731" y="1491"/>
      <point x="823" y="1454"/>
      <point x="868" y="1415" type="curve" smooth="yes"/>
      <point x="896" y="1391"/>
      <point x="906" y="1366"/>
      <point x="910" y="1345" type="curve" smooth="yes"/>
      <point x="949" y="1148" type="line"/>
      <point x="1050" y="1148" type="line"/>
      <point x="1067" y="1260"/>
      <point x="1072" y="1373"/>
      <point x="1063" y="1505" type="curve"/>
      <point x="962" y="1556"/>
      <point x="809" y="1588"/>
      <point x="667" y="1588" type="curve" smooth="yes"/>
      <point x="344" y="1588"/>
      <point x="173" y="1423"/>
      <point x="173" y="1193" type="curve" smooth="yes"/>
      <point x="173" y="918"/>
      <point x="417" y="807"/>
      <point x="608" y="722" type="curve" smooth="yes"/>
      <point x="828" y="624"/>
      <point x="968" y="560"/>
      <point x="968" y="358" type="curve" smooth="yes"/>
      <point x="968" y="177"/>
      <point x="855" y="67"/>
      <point x="639" y="67" type="curve" smooth="yes"/>
      <point x="503" y="67"/>
      <point x="391" y="122"/>
      <point x="335" y="182" type="curve" smooth="yes"/>
      <point x="312" y="207"/>
      <point x="304" y="231"/>
      <point x="301" y="250" type="curve" smooth="yes"/>
      <point x="264" y="476" type="line"/>
      <point x="159" y="476" type="line"/>
      <point x="143" y="344"/>
      <point x="138" y="222"/>
      <point x="142" y="100" type="curve"/>
      <point x="237" y="37"/>
      <point x="407" y="-33"/>
      <point x="620" y="-33" type="curve" smooth="yes"/>
      <point x="978" y="-33"/>
      <point x="1145" y="185"/>
    </contour>
    <contour>
      <point x="605" y="0" type="move" name="btm"/>
    </contour>
    <contour>
      <point x="640" y="1562" type="move" name="top"/>
    </contour>
  </outline>
</glyph>
<glyph name="T" format="1">
  <advance width="1482"/>
  <unicode hex="0054"/>
  <outline>
    <contour>
      <point x="1116" y="0" type="line"/>
      <point x="1116" y="88" type="line"/>
      <point x="882" y="123" type="line" smooth="yes"/>
      <point x="845" y="129"/>
      <point x="826" y="149"/>
      <point x="826" y="186" type="curve" smooth="yes"/>
      <point x="826" y="1464" type="line"/>
      <point x="960" y="1464" type="line" smooth="yes"/>
      <point x="1065" y="1464"/>
      <point x="1141" y="1456"/>
      <point x="1184" y="1440" type="curve" smooth="yes"/>
      <point x="1214" y="1429"/>
      <point x="1231" y="1413"/>
      <point x="1238" y="1379" type="curve" smooth="yes"/>
      <point x="1294" y="1116" type="line"/>
      <point x="1392" y="1116" type="line"/>
      <point x="1404" y="1275"/>
      <point x="1400" y="1418"/>
      <point x="1384" y="1562" type="curve"/>
      <point x="103" y="1562" type="line"/>
      <point x="85" y="1418"/>
      <point x="77" y="1275"/>
      <point x="86" y="1116" type="curve"/>
      <point x="184" y="1116" type="line"/>
      <point x="243" y="1379" type="line" smooth="yes"/>
      <point x="251" y="1413"/>
      <point x="268" y="1429"/>
      <point x="300" y="1440" type="curve" smooth="yes"/>
      <point x="339" y="1454"/>
      <point x="426" y="1464"/>
      <point x="527" y="1464" type="curve" smooth="yes"/>
      <point x="656" y="1464" type="line"/>
      <point x="656" y="186" type="line" smooth="yes"/>
      <point x="656" y="149"/>
      <point x="637" y="129"/>
      <point x="600" y="123" type="curve" smooth="yes"/>
      <point x="366" y="88" type="line"/>
      <point x="366" y="0" type="line"/>
    </contour>
    <contour>
      <point x="741" y="0" type="move" name="btm"/>
    </contour>
    <contour>
      <point x="744" y="1562" type="move" name="top"/>
    </contour>
  </outline>
</glyph>
<glyph name="W" format="1">
  <advance width="2213"/>
  <unicode hex="0057"/>
  <outline>
    <contour>
      <point x="1070" y="1343" type="line"/>
      <point x="706" y="126" type="line"/>
      <point x="749" y="126" type="line"/>
      <point x="346" y="1432" type="line"/>
      <point x="556" y="1474" type="line"/>
      <point x="556" y="1562" type="line"/>
      <point x="1" y="1562" type="line"/>
      <point x="1" y="1474" type="line"/>
      <point x="116" y="1442" type="line" smooth="yes"/>
      <point x="148" y="1433"/>
      <point x="167" y="1417"/>
      <point x="177" y="1386" type="curve" smooth="yes"/>
      <point x="623" y="-11" type="line"/>
      <point x="788" y="-11" type="line"/>
      <point x="1138" y="1170" type="line"/>
    </contour>
    <contour>
      <point x="1086" y="1168" type="line"/>
      <point x="1442" y="-11" type="line"/>
      <point x="1609" y="-11" type="line"/>
      <point x="2020" y="1385" type="line" smooth="yes"/>
      <point x="2031" y="1422"/>
      <point x="2051" y="1433"/>
      <point x="2083" y="1442" type="curve" smooth="yes"/>
      <point x="2199" y="1474" type="line"/>
      <point x="2199" y="1562" type="line"/>
      <point x="1694" y="1562" type="line"/>
      <point x="1694" y="1474" type="line"/>
      <point x="1904" y="1432" type="line"/>
      <point x="1526" y="120" type="line"/>
      <point x="1569" y="120" type="line"/>
      <point x="1176" y="1432" type="line"/>
      <point x="1384" y="1474" type="line"/>
      <point x="1384" y="1562" type="line"/>
      <point x="844" y="1562" type="line"/>
      <point x="844" y="1474" type="line"/>
      <point x="949" y="1442" type="line" smooth="yes"/>
      <point x="981" y="1432"/>
      <point x="999" y="1417"/>
      <point x="1010" y="1386" type="curve" smooth="yes"/>
    </contour>
    <contour>
      <point x="1116" y="0" type="move" name="btm"/>
    </contour>
    <contour>
      <point x="1100" y="1562" type="move" name="top"/>
    </contour>
  </outline>
</glyph>
<glyph name="X" format="1">
  <advance width="1485"/>
  <unicode hex="0058"/>
  <outline>
    <contour>
      <point x="1456" y="0" type="line"/>
      <point x="1456" y="88" type="line"/>
      <point x="1337" y="117" type="line" smooth="yes"/>
      <point x="1308" y="124"/>
      <point x="1288" y="136"/>
      <point x="1271" y="162" type="curve" smooth="yes"/>
      <point x="803" y="858" type="line"/>
      <point x="791" y="858" type="line"/>
      <point x="428" y="1437" type="line"/>
      <point x="638" y="1474" type="line"/>
      <point x="638" y="1562" type="line"/>
      <point x="64" y="1562" type="line"/>
      <point x="64" y="1474" type="line"/>
      <point x="180" y="1442" type="line" smooth="yes"/>
      <point x="209" y="1434"/>
      <point x="228" y="1420"/>
      <point x="244" y="1395" type="curve" smooth="yes"/>
      <point x="679" y="736" type="line"/>
      <point x="694" y="735" type="line"/>
      <point x="1087" y="122" type="line"/>
      <point x="886" y="88" type="line"/>
      <point x="886" y="0" type="line"/>
    </contour>
    <contour>
      <point x="566" y="0" type="line"/>
      <point x="566" y="88" type="line"/>
      <point x="355" y="122" type="line"/>
      <point x="762" y="739" type="line"/>
      <point x="779" y="739" type="line"/>
      <point x="1234" y="1396" type="line" smooth="yes"/>
      <point x="1251" y="1421"/>
      <point x="1270" y="1434"/>
      <point x="1299" y="1442" type="curve" smooth="yes"/>
      <point x="1418" y="1474" type="line"/>
      <point x="1418" y="1562" type="line"/>
      <point x="929" y="1562" type="line"/>
      <point x="929" y="1474" type="line"/>
      <point x="1113" y="1437" type="line"/>
      <point x="727" y="842" type="line"/>
      <point x="702" y="842" type="line"/>
      <point x="228" y="162" type="line" smooth="yes"/>
      <point x="210" y="136"/>
      <point x="192" y="124"/>
      <point x="162" y="117" type="curve" smooth="yes"/>
      <point x="28" y="88" type="line"/>
      <point x="28" y="0" type="line"/>
    </contour>
    <contour>
      <point x="737" y="0" type="move" name="btm"/>
    </contour>
    <contour>
      <point x="737" y="1562" type="move" name="top"/>
    </contour>
  </outline>
</glyph>
<glyph name="Y" format="1">
  <advance width="1455"/>
  <unicode hex="0059"/>
  <outline>
    <contour>
      <point x="792" y="539" type="line"/>
      <point x="1243" y="1398" type="line" smooth="yes"/>
      <point x="1258" y="1426"/>
      <point x="1278" y="1439"/>
      <point x="1309" y="1446" type="curve" smooth="yes"/>
      <point x="1435" y="1474" type="line"/>
      <point x="1435" y="1562" type="line"/>
      <point x="935" y="1562" type="line"/>
      <point x="935" y="1474" type="line"/>
      <point x="1126" y="1439" type="line"/>
      <point x="730" y="677" type="line"/>
      <point x="796" y="677" type="line"/>
      <point x="366" y="1437" type="line"/>
      <point x="559" y="1474" type="line"/>
      <point x="559" y="1562" type="line"/>
      <point x="-1" y="1562" type="line"/>
      <point x="-1" y="1474" type="line"/>
      <point x="125" y="1443" type="line" smooth="yes"/>
      <point x="155" y="1435"/>
      <point x="175" y="1421"/>
      <point x="190" y="1395" type="curve" smooth="yes"/>
      <point x="683" y="539" type="line"/>
    </contour>
    <contour>
      <point x="1071" y="0" type="line"/>
      <point x="1071" y="88" type="line"/>
      <point x="877" y="123" type="line" smooth="yes"/>
      <point x="840" y="130"/>
      <point x="821" y="149"/>
      <point x="821" y="186" type="curve" smooth="yes"/>
      <point x="821" y="614" type="line"/>
      <point x="651" y="614" type="line"/>
      <point x="651" y="186" type="line" smooth="yes"/>
      <point x="651" y="149"/>
      <point x="632" y="130"/>
      <point x="595" y="123" type="curve" smooth="yes"/>
      <point x="401" y="88" type="line"/>
      <point x="401" y="0" type="line"/>
    </contour>
    <contour>
      <point x="736" y="0" type="move" name="btm"/>
    </contour>
    <contour>
      <point x="717" y="1562" type="move" name="top"/>
    </contour>
  </outline>
</glyph>
<glyph name="backslash" format="1">
  <advance width="944"/>
  <unicode hex="005C"/>
  <outline>
    <contour>
      <point x="863" y="-288" type="line"/>
      <point x="231" y="1742" type="line"/>
      <point x="78" y="1742" type="line"/>
      <point x="710" y="-288" type="line"/>
    </contour>
  </outline>
</glyph>
<glyph name="bracketright" format="1">
  <advance width="780"/>
  <unicode hex="005D"/>
  <outline>
    <contour>
      <point x="542" y="-370" type="line"/>
      <point x="542" y="1960" type="line"/>
      <point x="516" y="1988" type="line"/>
      <point x="391" y="1991"/>
      <point x="198" y="1980"/>
      <point x="62" y="1963" type="curve"/>
      <point x="62" y="1877" type="line"/>
      <point x="328" y="1857" type="line" smooth="yes"/>
      <point x="367" y="1854"/>
      <point x="388" y="1836"/>
      <point x="388" y="1797" type="curve" smooth="yes"/>
      <point x="388" y="-207" type="line" smooth="yes"/>
      <point x="388" y="-246"/>
      <point x="367" y="-264"/>
      <point x="328" y="-267" type="curve" smooth="yes"/>
      <point x="62" y="-287" type="line"/>
      <point x="62" y="-373" type="line"/>
      <point x="198" y="-390"/>
      <point x="391" y="-401"/>
      <point x="516" y="-398" type="curve"/>
    </contour>
  </outline>
</glyph>
<glyph name="b" format="1">
  <advance width="1286"/>
  <unicode hex="0062"/>
  <outline>
    <contour>
      <point x="199" y="56" type="line"/>
      <point x="265" y="28"/>
      <point x="412" y="-23"/>
      <point x="581" y="-23" type="curve" smooth="yes"/>
      <point x="959" y="-23"/>
      <point x="1163" y="230"/>
      <point x="1163" y="624" type="curve" smooth="yes"/>
      <point x="1163" y="1013"/>
      <point x="964" y="1168"/>
      <point x="710" y="1168" type="curve" smooth="yes"/>
      <point x="520" y="1168"/>
      <point x="401" y="1081"/>
      <point x="317" y="971" type="curve"/>
      <point x="322" y="893" type="line"/>
      <point x="404" y="984"/>
      <point x="508" y="1042"/>
      <point x="649" y="1042" type="curve" smooth="yes"/>
      <point x="854" y="1042"/>
      <point x="988" y="919"/>
      <point x="983" y="571" type="curve" smooth="yes"/>
      <point x="978" y="229"/>
      <point x="843" y="81"/>
      <point x="594" y="81" type="curve" smooth="yes"/>
      <point x="492" y="81"/>
      <point x="421" y="106"/>
      <point x="364" y="137" type="curve"/>
      <point x="364" y="1770" type="line"/>
      <point x="337" y="1797" type="line"/>
      <point x="228" y="1794"/>
      <point x="98" y="1775"/>
      <point x="-11" y="1742" type="curve"/>
      <point x="-11" y="1667" type="line"/>
      <point x="142" y="1645" type="line" smooth="yes"/>
      <point x="179" y="1640"/>
      <point x="199" y="1620"/>
      <point x="199" y="1583" type="curve" smooth="yes"/>
    </contour>
    <contour>
      <point x="632" y="0" type="move" name="btm"/>
    </contour>
    <contour>
      <point x="770" y="1136" type="move" name="top"/>
    </contour>
  </outline>
</glyph>
<glyph name="e" format="1">
  <advance width="1177"/>
  <unicode hex="0065"/>
  <outline>
    <contour>
      <point x="121" y="556" type="curve" smooth="yes"/>
      <point x="121" y="225"/>
      <point x="283" y="-23"/>
      <point x="616" y="-23" type="curve" smooth="yes"/>
      <point x="842" y="-23"/>
      <point x="997" y="92"/>
      <point x="1049" y="248" type="curve"/>
      <point x="980" y="283" type="line"/>
      <point x="915" y="173"/>
      <point x="795" y="103"/>
      <point x="656" y="103" type="curve" smooth="yes"/>
      <point x="471" y="103"/>
      <point x="299" y="216"/>
      <point x="299" y="599" type="curve" smooth="yes"/>
      <point x="299" y="921"/>
      <point x="420" y="1066"/>
      <point x="613" y="1066" type="curve" smooth="yes"/>
      <point x="779" y="1066"/>
      <point x="876" y="953"/>
      <point x="876" y="786" type="curve" smooth="yes"/>
      <point x="876" y="768"/>
      <point x="875" y="755"/>
      <point x="873" y="738" type="curve"/>
      <point x="247" y="738" type="line"/>
      <point x="247" y="642" type="line"/>
      <point x="1041" y="642" type="line"/>
      <point x="1048" y="682"/>
      <point x="1051" y="739"/>
      <point x="1051" y="772" type="curve" smooth="yes"/>
      <point x="1051" y="1043"/>
      <point x="869" y="1168"/>
      <point x="645" y="1168" type="curve" smooth="yes"/>
      <point x="334" y="1168"/>
      <point x="121" y="936"/>
    </contour>
    <contour>
      <point x="634" y="0" type="move" name="btm"/>
    </contour>
    <contour>
      <point x="619" y="1136" type="move" name="top"/>
    </contour>
  </outline>
</glyph>
<glyph name="f" format="1">
  <advance width="868"/>
  <unicode hex="0066"/>
  <outline>
    <contour>
      <point x="525" y="1797"/>
      <point x="292" y="1586"/>
      <point x="292" y="1273" type="curve" smooth="yes"/>
      <point x="292" y="1135" type="line"/>
      <point x="84" y="1109" type="line"/>
      <point x="84" y="1028" type="line"/>
      <point x="292" y="1006" type="line"/>
      <point x="292" y="169" type="line" smooth="yes"/>
      <point x="292" y="132"/>
      <point x="272" y="113"/>
      <point x="235" y="107" type="curve" smooth="yes"/>
      <point x="107" y="88" type="line"/>
      <point x="107" y="0" type="line"/>
      <point x="730" y="0" type="line"/>
      <point x="730" y="88" type="line"/>
      <point x="515" y="107" type="line" smooth="yes"/>
      <point x="477" y="110"/>
      <point x="457" y="131"/>
      <point x="457" y="169" type="curve" smooth="yes"/>
      <point x="457" y="1014" type="line"/>
      <point x="804" y="1014" type="line"/>
      <point x="804" y="1135" type="line"/>
      <point x="457" y="1135" type="line"/>
      <point x="457" y="1348" type="line" smooth="yes"/>
      <point x="457" y="1556"/>
      <point x="532" y="1631"/>
      <point x="723" y="1631" type="curve" smooth="yes"/>
      <point x="790" y="1631"/>
      <point x="879" y="1624"/>
      <point x="956" y="1610" type="curve"/>
      <point x="980" y="1730" type="line"/>
      <point x="901" y="1770"/>
      <point x="821" y="1797"/>
      <point x="741" y="1797" type="curve" smooth="yes"/>
    </contour>
    <contour>
      <point x="397" y="0" type="move" name="btm"/>
    </contour>
    <contour>
      <point x="423" y="1136" type="move" name="top"/>
    </contour>
  </outline>
</glyph>
<glyph name="h" format="1">
  <advance width="1414"/>
  <unicode hex="0068"/>
  <outline>
    <contour>
      <point x="606" y="0" type="line"/>
      <point x="606" y="88" type="line"/>
      <point x="483" y="107" type="line" smooth="yes"/>
      <point x="446" y="113"/>
      <point x="426" y="132"/>
      <point x="426" y="170" type="curve" smooth="yes"/>
      <point x="426" y="1769" type="line"/>
      <point x="400" y="1797" type="line"/>
      <point x="297" y="1793"/>
      <point x="154" y="1776"/>
      <point x="51" y="1742" type="curve"/>
      <point x="51" y="1667" type="line"/>
      <point x="204" y="1645" type="line" smooth="yes"/>
      <point x="240" y="1640"/>
      <point x="261" y="1620"/>
      <point x="261" y="1583" type="curve" smooth="yes"/>
      <point x="261" y="169" type="line" smooth="yes"/>
      <point x="261" y="132"/>
      <point x="241" y="113"/>
      <point x="204" y="107" type="curve" smooth="yes"/>
      <point x="76" y="88" type="line"/>
      <point x="76" y="0" type="line"/>
    </contour>
    <contour>
      <point x="1354" y="0" type="line"/>
      <point x="1354" y="88" type="line"/>
      <point x="1226" y="107" type="line" smooth="yes"/>
      <point x="1190" y="112"/>
      <point x="1169" y="133"/>
      <point x="1169" y="170" type="curve" smooth="yes"/>
      <point x="1169" y="723" type="line" smooth="yes"/>
      <point x="1169" y="1002"/>
      <point x="1093" y="1164"/>
      <point x="828" y="1164" type="curve" smooth="yes"/>
      <point x="669" y="1164"/>
      <point x="500" y="1115"/>
      <point x="378" y="949" type="curve"/>
      <point x="369" y="867" type="line"/>
      <point x="475" y="983"/>
      <point x="619" y="1036"/>
      <point x="768" y="1036" type="curve" smooth="yes"/>
      <point x="960" y="1036"/>
      <point x="1004" y="916"/>
      <point x="1004" y="684" type="curve" smooth="yes"/>
      <point x="1004" y="170" type="line" smooth="yes"/>
      <point x="1004" y="130"/>
      <point x="979" y="112"/>
      <point x="947" y="107" type="curve" smooth="yes"/>
      <point x="824" y="88" type="line"/>
      <point x="824" y="0" type="line"/>
    </contour>
    <contour>
      <point x="397" y="0" type="move" name="btm"/>
    </contour>
    <contour>
      <point x="391" y="1766" type="move" name="top"/>
    </contour>
  </outline>
</glyph>
<glyph name="k" format="1">
  <advance width="1315"/>
  <unicode hex="006B"/>
  <outline>
    <contour>
      <point x="611" y="0" type="line"/>
      <point x="611" y="88" type="line"/>
      <point x="483" y="107" type="line" smooth="yes"/>
      <point x="447" y="112"/>
      <point x="426" y="133"/>
      <point x="426" y="170" type="curve" smooth="yes"/>
      <point x="426" y="1770" type="line"/>
      <point x="400" y="1797" type="line"/>
      <point x="293" y="1794"/>
      <point x="158" y="1775"/>
      <point x="51" y="1742" type="curve"/>
      <point x="51" y="1667" type="line"/>
      <point x="204" y="1645" type="line" smooth="yes"/>
      <point x="241" y="1640"/>
      <point x="261" y="1620"/>
      <point x="261" y="1583" type="curve" smooth="yes"/>
      <point x="261" y="171" type="line" smooth="yes"/>
      <point x="261" y="134"/>
      <point x="241" y="112"/>
      <point x="205" y="107" type="curve" smooth="yes"/>
      <point x="76" y="88" type="line"/>
      <point x="76" y="0" type="line"/>
    </contour>
    <contour>
      <point x="1280" y="0" type="line"/>
      <point x="1280" y="88" type="line"/>
      <point x="1147" y="115" type="line" smooth="yes"/>
      <point x="1120" y="121"/>
      <point x="1093" y="139"/>
      <point x="1069" y="178" type="curve" smooth="yes"/>
      <point x="845" y="543" type="line" smooth="yes"/>
      <point x="802" y="614"/>
      <point x="771" y="661"/>
      <point x="720" y="728" type="curve"/>
      <point x="609" y="618" type="line"/>
      <point x="652" y="555"/>
      <point x="692" y="478"/>
      <point x="744" y="385" type="curve" smooth="yes"/>
      <point x="867" y="164" type="line" smooth="yes"/>
      <point x="923" y="63"/>
      <point x="963" y="0"/>
      <point x="1013" y="0" type="curve" smooth="yes"/>
    </contour>
    <contour>
      <point x="1026" y="989" type="line" smooth="yes"/>
      <point x="1048" y="1012"/>
      <point x="1071" y="1020"/>
      <point x="1105" y="1027" type="curve" smooth="yes"/>
      <point x="1226" y="1052" type="line"/>
      <point x="1226" y="1136" type="line"/>
      <point x="698" y="1136" type="line"/>
      <point x="698" y="1052" type="line"/>
      <point x="955" y="1013" type="line"/>
      <point x="935" y="1057" type="line"/>
      <point x="385" y="449" type="line"/>
      <point x="395" y="321" type="line"/>
    </contour>
    <contour>
      <point x="717" y="0" type="move" name="btm"/>
    </contour>
    <contour>
      <point x="763" y="1136" type="move" name="top"/>
    </contour>
  </outline>
</glyph>
<glyph name="l" format="1">
  <advance width="697"/>
  <unicode hex="006C"/>
  <outline>
    <contour>
      <point x="431" y="1769" type="line"/>
      <point x="405" y="1797" type="line"/>
      <point x="300" y="1793"/>
      <point x="155" y="1776"/>
      <point x="50" y="1742" type="curve"/>
      <point x="50" y="1667" type="line"/>
      <point x="209" y="1645" type="line" smooth="yes"/>
      <point x="245" y="1640"/>
      <point x="266" y="1620"/>
      <point x="266" y="1583" type="curve" smooth="yes"/>
      <point x="266" y="169" type="line" smooth="yes"/>
      <point x="266" y="132"/>
      <point x="246" y="112"/>
      <point x="209" y="107" type="curve" smooth="yes"/>
      <point x="56" y="88" type="line"/>
      <point x="56" y="0" type="line"/>
      <point x="641" y="0" type="line"/>
      <point x="641" y="86" type="line"/>
      <point x="488" y="107" type="line" smooth="yes"/>
      <point x="451" y="112"/>
      <point x="431" y="132"/>
      <point x="431" y="170" type="curve" smooth="yes"/>
    </contour>
    <contour>
      <point x="339" y="0" type="move" name="btm"/>
    </contour>
    <contour>
      <point x="312" y="1781" type="move" name="top"/>
    </contour>
    <contour>
      <point x="433" y="1136" type="move" name="topright"/>
    </contour>
  </outline>
</glyph>
<glyph name="m" format="1">
  <advance width="2117"/>
  <unicode hex="006D"/>
  <outline>
    <contour>
      <point x="2057" y="0" type="line"/>
      <point x="2057" y="88" type="line"/>
      <point x="1929" y="107" type="line" smooth="yes"/>
      <point x="1893" y="112"/>
      <point x="1872" y="133"/>
      <point x="1872" y="170" type="curve" smooth="yes"/>
      <point x="1872" y="713" type="line" smooth="yes"/>
      <point x="1872" y="1012"/>
      <point x="1792" y="1164"/>
      <point x="1519" y="1164" type="curve" smooth="yes"/>
      <point x="1385" y="1164"/>
      <point x="1226" y="1127"/>
      <point x="1095" y="969" type="curve"/>
      <point x="1096" y="884" type="line"/>
      <point x="1207" y="996"/>
      <point x="1336" y="1036"/>
      <point x="1458" y="1036" type="curve" smooth="yes"/>
      <point x="1659" y="1036"/>
      <point x="1707" y="926"/>
      <point x="1707" y="684" type="curve" smooth="yes"/>
      <point x="1707" y="170" type="line" smooth="yes"/>
      <point x="1707" y="130"/>
      <point x="1682" y="112"/>
      <point x="1650" y="107" type="curve" smooth="yes"/>
      <point x="1527" y="88" type="line"/>
      <point x="1527" y="0" type="line"/>
    </contour>
    <contour>
      <point x="634" y="0" type="line"/>
      <point x="634" y="88" type="line"/>
      <point x="510" y="107" type="line" smooth="yes"/>
      <point x="474" y="113"/>
      <point x="454" y="133"/>
      <point x="454" y="171" type="curve" smooth="yes"/>
      <point x="454" y="935" type="line"/>
      <point x="436" y="1129" type="line"/>
      <point x="405" y="1161" type="line"/>
      <point x="307" y="1159"/>
      <point x="187" y="1141"/>
      <point x="89" y="1109" type="curve"/>
      <point x="89" y="1027" type="line"/>
      <point x="234" y="1009" type="line" smooth="yes"/>
      <point x="270" y="1005"/>
      <point x="289" y="982"/>
      <point x="289" y="945" type="curve" smooth="yes"/>
      <point x="289" y="171" type="line" smooth="yes"/>
      <point x="289" y="134"/>
      <point x="269" y="112"/>
      <point x="233" y="107" type="curve" smooth="yes"/>
      <point x="104" y="88" type="line"/>
      <point x="104" y="0" type="line"/>
    </contour>
    <contour>
      <point x="1343" y="0" type="line"/>
      <point x="1343" y="88" type="line"/>
      <point x="1220" y="107" type="line" smooth="yes"/>
      <point x="1184" y="113"/>
      <point x="1163" y="133"/>
      <point x="1163" y="170" type="curve" smooth="yes"/>
      <point x="1163" y="723" type="line" smooth="yes"/>
      <point x="1163" y="1002"/>
      <point x="1093" y="1164"/>
      <point x="828" y="1164" type="curve" smooth="yes"/>
      <point x="682" y="1164"/>
      <point x="515" y="1115"/>
      <point x="406" y="949" type="curve"/>
      <point x="397" y="871" type="line"/>
      <point x="489" y="983"/>
      <point x="650" y="1036"/>
      <point x="778" y="1036" type="curve" smooth="yes"/>
      <point x="970" y="1036"/>
      <point x="998" y="916"/>
      <point x="998" y="684" type="curve" smooth="yes"/>
      <point x="998" y="170" type="line" smooth="yes"/>
      <point x="998" y="130"/>
      <point x="973" y="112"/>
      <point x="941" y="107" type="curve" smooth="yes"/>
      <point x="818" y="88" type="line"/>
      <point x="818" y="0" type="line"/>
    </contour>
    <contour>
      <point x="1061" y="0" type="move" name="btm"/>
    </contour>
    <contour>
      <point x="1061" y="1136" type="move" name="top"/>
    </contour>
  </outline>
</glyph>
<glyph name="o" format="1">
  <advance width="1278"/>
  <unicode hex="006F"/>
  <outline>
    <contour>
      <point x="969" y="559" type="curve" smooth="yes"/>
      <point x="969" y="229"/>
      <point x="867" y="79"/>
      <point x="648" y="79" type="curve" smooth="yes"/>
      <point x="385" y="79"/>
      <point x="308" y="298"/>
      <point x="308" y="586" type="curve" smooth="yes"/>
      <point x="308" y="917"/>
      <point x="411" y="1066"/>
      <point x="630" y="1066" type="curve" smooth="yes"/>
      <point x="891" y="1066"/>
      <point x="969" y="850"/>
    </contour>
    <contour>
      <point x="123" y="567" type="curve" smooth="yes"/>
      <point x="123" y="227"/>
      <point x="260" y="-23"/>
      <point x="619" y="-23" type="curve" smooth="yes"/>
      <point x="912" y="-23"/>
      <point x="1155" y="164"/>
      <point x="1155" y="576" type="curve" smooth="yes"/>
      <point x="1155" y="917"/>
      <point x="1017" y="1168"/>
      <point x="658" y="1168" type="curve" smooth="yes"/>
      <point x="366" y="1168"/>
      <point x="123" y="981"/>
    </contour>
    <contour>
      <point x="639" y="0" type="move" name="btm"/>
    </contour>
    <contour>
      <point x="639" y="1136" type="move" name="top"/>
    </contour>
  </outline>
</glyph>
<glyph name="w" format="1">
  <advance width="1794"/>
  <unicode hex="0077"/>
  <outline>
    <contour>
      <point x="1224" y="-17" type="line"/>
      <point x="1330" y="-17" type="line"/>
      <point x="1634" y="979" type="line" smooth="yes"/>
      <point x="1643" y="1010"/>
      <point x="1663" y="1027"/>
      <point x="1695" y="1035" type="curve" smooth="yes"/>
      <point x="1761" y="1052" type="line"/>
      <point x="1761" y="1136" type="line"/>
      <point x="1362" y="1136" type="line"/>
      <point x="1362" y="1052" type="line"/>
      <point x="1522" y="1022" type="line"/>
    </contour>
    <contour>
      <point x="606" y="39" type="line"/>
      <point x="319" y="1023" type="line"/>
      <point x="479" y="1052" type="line"/>
      <point x="479" y="1136" type="line"/>
      <point x="32" y="1136" type="line"/>
      <point x="32" y="1052" type="line"/>
      <point x="93" y="1035" type="line" smooth="yes"/>
      <point x="125" y="1026"/>
      <point x="144" y="1011"/>
      <point x="154" y="980" type="curve" smooth="yes"/>
      <point x="470" y="-17" type="line"/>
      <point x="592" y="-17" type="line"/>
    </contour>
    <contour>
      <point x="862" y="1056" type="line"/>
      <point x="1179" y="-17" type="line"/>
      <point x="1299" y="-17" type="line"/>
      <point x="1313" y="39" type="line"/>
      <point x="1011" y="1136" type="line"/>
      <point x="882" y="1136" type="line"/>
    </contour>
    <contour>
      <point x="956" y="1135" type="line"/>
      <point x="841" y="1136" type="line"/>
      <point x="516" y="-17" type="line"/>
      <point x="624" y="-17" type="line"/>
    </contour>
    <contour>
      <point x="900" y="0" type="move" name="btm"/>
    </contour>
    <contour>
      <point x="917" y="1136" type="move" name="top"/>
    </contour>
  </outline>
</glyph>
<glyph name="x" format="1">
  <advance width="1259"/>
  <unicode hex="0078"/>
  <outline>
    <contour>
      <point x="521" y="0" type="line"/>
      <point x="521" y="87" type="line"/>
      <point x="341" y="105" type="line"/>
      <point x="653" y="542" type="line"/>
      <point x="685" y="542" type="line"/>
      <point x="1033" y="995" type="line" smooth="yes"/>
      <point x="1051" y="1018"/>
      <point x="1072" y="1030"/>
      <point x="1101" y="1036" type="curve" smooth="yes"/>
      <point x="1187" y="1052" type="line"/>
      <point x="1187" y="1136" type="line"/>
      <point x="757" y="1136" type="line"/>
      <point x="757" y="1052" type="line"/>
      <point x="915" y="1028" type="line"/>
      <point x="613" y="617" type="line"/>
      <point x="577" y="617" type="line"/>
      <point x="217" y="138" type="line" smooth="yes"/>
      <point x="198" y="113"/>
      <point x="177" y="103"/>
      <point x="147" y="99" type="curve" smooth="yes"/>
      <point x="50" y="87" type="line"/>
      <point x="50" y="0" type="line"/>
    </contour>
    <contour>
      <point x="1201" y="0" type="line"/>
      <point x="1201" y="87" type="line"/>
      <point x="1120" y="97" type="line" smooth="yes"/>
      <point x="1090" y="101"/>
      <point x="1069" y="112"/>
      <point x="1051" y="137" type="curve" smooth="yes"/>
      <point x="699" y="618" type="line"/>
      <point x="689" y="618" type="line"/>
      <point x="408" y="1028" type="line"/>
      <point x="555" y="1052" type="line"/>
      <point x="555" y="1136" type="line"/>
      <point x="82" y="1136" type="line"/>
      <point x="82" y="1052" type="line"/>
      <point x="161" y="1036" type="line" smooth="yes"/>
      <point x="191" y="1030"/>
      <point x="211" y="1018"/>
      <point x="228" y="994" type="curve" smooth="yes"/>
      <point x="568" y="522" type="line"/>
      <point x="578" y="522" type="line"/>
      <point x="862" y="104" type="line"/>
      <point x="715" y="87" type="line"/>
      <point x="715" y="0" type="line"/>
    </contour>
    <contour>
      <point x="655" y="0" type="move" name="btm"/>
    </contour>
    <contour>
      <point x="655" y="1136" type="move" name="top"/>
    </contour>
  </outline>
</glyph>
<glyph name="y" format="1">
  <advance width="1238"/>
  <unicode hex="0079"/>
  <outline>
    <contour>
      <point x="44" y="-389" type="curve"/>
      <point x="44" y="-500" type="line"/>
      <point x="121" y="-512"/>
      <point x="195" y="-516"/>
      <point x="263" y="-516" type="curve" smooth="yes"/>
      <point x="495" y="-516"/>
      <point x="613" y="-374"/>
      <point x="722" y="-51" type="curve" smooth="yes"/>
      <point x="1066" y="971" type="line" smooth="yes"/>
      <point x="1078" y="1007"/>
      <point x="1096" y="1020"/>
      <point x="1128" y="1029" type="curve" smooth="yes"/>
      <point x="1213" y="1052" type="line"/>
      <point x="1213" y="1136" type="line"/>
      <point x="784" y="1136" type="line"/>
      <point x="784" y="1052" type="line"/>
      <point x="954" y="1023" type="line"/>
      <point x="663" y="101" type="line" smooth="yes"/>
      <point x="539" y="-293"/>
      <point x="394" y="-366"/>
    </contour>
    <contour>
      <point x="711" y="37" type="line"/>
      <point x="351" y="1023" type="line"/>
      <point x="530" y="1052" type="line"/>
      <point x="530" y="1136" type="line"/>
      <point x="31" y="1136" type="line"/>
      <point x="31" y="1052" type="line"/>
      <point x="116" y="1029" type="line" smooth="yes"/>
      <point x="147" y="1021"/>
      <point x="166" y="1005"/>
      <point x="177" y="975" type="curve" smooth="yes"/>
      <point x="542" y="0" type="line"/>
      <point x="693" y="0" type="line"/>
    </contour>
    <contour>
      <point x="649" y="1136" type="move" name="top"/>
    </contour>
  </outline>
</glyph>
<glyph name="braceleft" format="1">
  <advance width="873"/>
  <unicode hex="007B"/>
  <outline>
    <contour>
      <point x="824" y="-309" type="line"/>
      <point x="684" y="-285" type="line" smooth="yes"/>
      <point x="533" y="-259"/>
      <point x="455" y="-194"/>
      <point x="455" y="-18" type="curve" smooth="yes"/>
      <point x="455" y="144"/>
      <point x="471" y="338"/>
      <point x="471" y="504" type="curve" smooth="yes"/>
      <point x="471" y="655"/>
      <point x="396" y="754"/>
      <point x="205" y="799" type="curve"/>
      <point x="396" y="846"/>
      <point x="471" y="935"/>
      <point x="471" y="1086" type="curve" smooth="yes"/>
      <point x="471" y="1252"/>
      <point x="455" y="1446"/>
      <point x="455" y="1608" type="curve" smooth="yes"/>
      <point x="455" y="1784"/>
      <point x="533" y="1849"/>
      <point x="684" y="1875" type="curve" smooth="yes"/>
      <point x="824" y="1899" type="line"/>
      <point x="815" y="1988" type="line"/>
      <point x="765" y="1988"/>
      <point x="720" y="1988"/>
      <point x="648" y="1984" type="curve" smooth="yes"/>
      <point x="408" y="1971"/>
      <point x="295" y="1863"/>
      <point x="295" y="1642" type="curve" smooth="yes"/>
      <point x="295" y="1427"/>
      <point x="321" y="1269"/>
      <point x="321" y="1118" type="curve" smooth="yes"/>
      <point x="321" y="1005"/>
      <point x="306" y="897"/>
      <point x="41" y="877" type="curve"/>
      <point x="41" y="713" type="line"/>
      <point x="306" y="693"/>
      <point x="321" y="585"/>
      <point x="321" y="472" type="curve" smooth="yes"/>
      <point x="321" y="321"/>
      <point x="295" y="163"/>
      <point x="295" y="-52" type="curve" smooth="yes"/>
      <point x="295" y="-273"/>
      <point x="408" y="-381"/>
      <point x="648" y="-394" type="curve" smooth="yes"/>
      <point x="720" y="-398"/>
      <point x="765" y="-398"/>
      <point x="815" y="-398" type="curve"/>
    </contour>
  </outline>
</glyph>
<glyph name="bar" format="1">
  <advance width="625"/>
  <unicode hex="007C"/>
  <outline>
    <contour>
      <point x="239" y="-298" type="line"/>
      <point x="386" y="-298" type="line"/>
      <point x="386" y="1888" type="line"/>
      <point x="239" y="1888" type="line"/>
    </contour>
  </outline>
</glyph>
<glyph name="sterling" format="1">
  <advance width="1308"/>
  <unicode hex="00A3"/>
  <outline>
    <contour>
      <point x="1191" y="239" type="curve" smooth="yes"/>
      <point x="1191" y="313"/>
      <point x="1176" y="392"/>
      <point x="1166" y="437" type="curve"/>
      <point x="1073" y="437" type="line"/>
      <point x="1067" y="390"/>
      <point x="1056" y="312"/>
      <point x="1047" y="271" type="curve" smooth="yes"/>
      <point x="1031" y="197"/>
      <point x="983" y="125"/>
      <point x="875" y="125" type="curve" smooth="yes"/>
      <point x="752" y="125"/>
      <point x="604" y="201"/>
      <point x="420" y="201" type="curve"/>
      <point x="468" y="257"/>
      <point x="511" y="379"/>
      <point x="511" y="548" type="curve" smooth="yes"/>
      <point x="511" y="922" type="line" smooth="yes"/>
      <point x="511" y="1225"/>
      <point x="630" y="1292"/>
      <point x="725" y="1292" type="curve" smooth="yes"/>
      <point x="779" y="1292"/>
      <point x="836" y="1284"/>
      <point x="877" y="1257" type="curve" smooth="yes"/>
      <point x="907" y="1237"/>
      <point x="915" y="1215"/>
      <point x="920" y="1186" type="curve" smooth="yes"/>
      <point x="954" y="997" type="line"/>
      <point x="1048" y="997" type="line"/>
      <point x="1063" y="1106"/>
      <point x="1072" y="1229"/>
      <point x="1068" y="1333" type="curve"/>
      <point x="973" y="1378"/>
      <point x="880" y="1400"/>
      <point x="799" y="1400" type="curve" smooth="yes"/>
      <point x="548" y="1400"/>
      <point x="337" y="1207"/>
      <point x="337" y="882" type="curve" smooth="yes"/>
      <point x="337" y="547" type="line" smooth="yes"/>
      <point x="337" y="260"/>
      <point x="201" y="167"/>
      <point x="104" y="86" type="curve"/>
      <point x="163" y="-11" type="line"/>
      <point x="208" y="13"/>
      <point x="288" y="58"/>
      <point x="357" y="130" type="curve"/>
      <point x="566" y="130"/>
      <point x="718" y="-25"/>
      <point x="928" y="-25" type="curve" smooth="yes"/>
      <point x="1081" y="-25"/>
      <point x="1191" y="58"/>
    </contour>
    <contour>
      <point x="876" y="647" type="line"/>
      <point x="876" y="752" type="line"/>
      <point x="128" y="752" type="line"/>
      <point x="128" y="647" type="line"/>
    </contour>
  </outline>
</glyph>
<glyph name="currency" format="1">
  <advance width="1412"/>
  <unicode hex="00A4"/>
  <outline>
    <contour>
      <point x="274" y="763" type="curve" smooth="yes"/>
      <point x="274" y="516"/>
      <point x="458" y="330"/>
      <point x="703" y="330" type="curve" smooth="yes"/>
      <point x="949" y="330"/>
      <point x="1143" y="536"/>
      <point x="1143" y="783" type="curve" smooth="yes"/>
      <point x="1143" y="1030"/>
      <point x="949" y="1216"/>
      <point x="703" y="1216" type="curve" smooth="yes"/>
      <point x="458" y="1216"/>
      <point x="274" y="1010"/>
    </contour>
    <contour>
      <point x="704" y="455" type="curve" smooth="yes"/>
      <point x="538" y="455"/>
      <point x="407" y="592"/>
      <point x="407" y="766" type="curve" smooth="yes"/>
      <point x="407" y="935"/>
      <point x="507" y="1091"/>
      <point x="698" y="1091" type="curve" smooth="yes"/>
      <point x="865" y="1091"/>
      <point x="1002" y="943"/>
      <point x="1002" y="770" type="curve" smooth="yes"/>
      <point x="1002" y="597"/>
      <point x="906" y="455"/>
    </contour>
    <contour>
      <point x="148" y="294" type="line"/>
      <point x="251" y="190" type="line"/>
      <point x="477" y="415" type="line"/>
      <point x="372" y="519" type="line"/>
    </contour>
    <contour>
      <point x="373" y="1024" type="line"/>
      <point x="476" y="1127" type="line"/>
      <point x="250" y="1354" type="line"/>
      <point x="148" y="1250" type="line"/>
    </contour>
    <contour>
      <point x="933" y="419" type="line"/>
      <point x="1158" y="194" type="line"/>
      <point x="1261" y="298" type="line"/>
      <point x="1036" y="524" type="line"/>
    </contour>
    <contour>
      <point x="1036" y="1024" type="line"/>
      <point x="1265" y="1252" type="line"/>
      <point x="1161" y="1356" type="line"/>
      <point x="933" y="1129" type="line"/>
    </contour>
  </outline>
</glyph>
<glyph name="yen" format="1">
  <advance width="1485"/>
  <unicode hex="00A5"/>
  <outline>
    <contour>
      <point x="275" y="337" type="line"/>
      <point x="1232" y="337" type="line"/>
      <point x="1232" y="437" type="line"/>
      <point x="275" y="437" type="line"/>
    </contour>
    <contour>
      <point x="275" y="599" type="line"/>
      <point x="1232" y="599" type="line"/>
      <point x="1232" y="699" type="line"/>
      <point x="275" y="699" type="line"/>
    </contour>
    <contour>
      <point x="808" y="605" type="line"/>
      <point x="1198" y="1223" type="line" smooth="yes"/>
      <point x="1216" y="1251"/>
      <point x="1232" y="1263"/>
      <point x="1262" y="1270" type="curve" smooth="yes"/>
      <point x="1385" y="1297" type="line"/>
      <point x="1385" y="1383" type="line"/>
      <point x="893" y="1383" type="line"/>
      <point x="893" y="1297" type="line"/>
      <point x="1080" y="1263" type="line"/>
      <point x="744" y="711" type="line"/>
      <point x="818" y="711" type="line"/>
      <point x="459" y="1251" type="line"/>
      <point x="647" y="1287" type="line"/>
      <point x="647" y="1373" type="line"/>
      <point x="95" y="1373" type="line"/>
      <point x="95" y="1287" type="line"/>
      <point x="218" y="1257" type="line" smooth="yes"/>
      <point x="247" y="1249"/>
      <point x="263" y="1236"/>
      <point x="281" y="1210" type="curve" smooth="yes"/>
      <point x="701" y="605" type="line"/>
    </contour>
    <contour>
      <point x="1080" y="0" type="line"/>
      <point x="1080" y="86" type="line"/>
      <point x="890" y="120" type="line" smooth="yes"/>
      <point x="854" y="126"/>
      <point x="835" y="145"/>
      <point x="835" y="181" type="curve" smooth="yes"/>
      <point x="835" y="708" type="line"/>
      <point x="672" y="708" type="line"/>
      <point x="672" y="181" type="line" smooth="yes"/>
      <point x="672" y="145"/>
      <point x="653" y="126"/>
      <point x="617" y="120" type="curve" smooth="yes"/>
      <point x="427" y="86" type="line"/>
      <point x="427" y="0" type="line"/>
    </contour>
  </outline>
</glyph>
<glyph name="brokenbar" format="1">
  <advance width="619"/>
  <unicode hex="00A6"/>
  <outline>
    <contour>
      <point x="236" y="950" type="line"/>
      <point x="383" y="950" type="line"/>
      <point x="383" y="1888" type="line"/>
      <point x="236" y="1888" type="line"/>
    </contour>
    <contour>
      <point x="236" y="-298" type="line"/>
      <point x="383" y="-298" type="line"/>
      <point x="383" y="640" type="line"/>
      <point x="236" y="640" type="line"/>
    </contour>
  </outline>
</glyph>
<glyph name="section" format="1">
  <advance width="1281"/>
  <unicode hex="00A7"/>
  <outline>
    <contour>
      <point x="179" y="-166" type="curve"/>
      <point x="266" y="-217"/>
      <point x="435" y="-283"/>
      <point x="647" y="-283" type="curve" smooth="yes"/>
      <point x="951" y="-283"/>
      <point x="1108" y="-135"/>
      <point x="1108" y="63" type="curve" smooth="yes"/>
      <point x="1108" y="260"/>
      <point x="953" y="329"/>
      <point x="717" y="432" type="curve" smooth="yes"/>
      <point x="434" y="556"/>
      <point x="286" y="625"/>
      <point x="286" y="772" type="curve" smooth="yes"/>
      <point x="286" y="874"/>
      <point x="357" y="982"/>
      <point x="456" y="1033" type="curve"/>
      <point x="408" y="1073" type="line"/>
      <point x="262" y="1025"/>
      <point x="133" y="903"/>
      <point x="133" y="724" type="curve" smooth="yes"/>
      <point x="133" y="531"/>
      <point x="283" y="436"/>
      <point x="545" y="319" type="curve" smooth="yes"/>
      <point x="791" y="209"/>
      <point x="947" y="165"/>
      <point x="947" y="18" type="curve" smooth="yes"/>
      <point x="947" y="-98"/>
      <point x="849" y="-182"/>
      <point x="672" y="-182" type="curve" smooth="yes"/>
      <point x="551" y="-182"/>
      <point x="443" y="-148"/>
      <point x="381" y="-100" type="curve" smooth="yes"/>
      <point x="352" y="-76"/>
      <point x="341" y="-54"/>
      <point x="337" y="-30" type="curve" smooth="yes"/>
      <point x="303" y="167" type="line"/>
      <point x="197" y="167" type="line"/>
      <point x="179" y="56"/>
      <point x="172" y="-56"/>
    </contour>
    <contour>
      <point x="1078" y="1548" type="curve"/>
      <point x="1001" y="1598"/>
      <point x="826" y="1645"/>
      <point x="650" y="1645" type="curve" smooth="yes"/>
      <point x="337" y="1645"/>
      <point x="194" y="1497"/>
      <point x="194" y="1310" type="curve" smooth="yes"/>
      <point x="194" y="1108"/>
      <point x="360" y="1021"/>
      <point x="573" y="926" type="curve" smooth="yes"/>
      <point x="852" y="802"/>
      <point x="996" y="736"/>
      <point x="996" y="590" type="curve" smooth="yes"/>
      <point x="996" y="488"/>
      <point x="925" y="380"/>
      <point x="826" y="329" type="curve"/>
      <point x="874" y="289" type="line"/>
      <point x="1025" y="339"/>
      <point x="1149" y="462"/>
      <point x="1149" y="638" type="curve" smooth="yes"/>
      <point x="1149" y="835"/>
      <point x="995" y="926"/>
      <point x="745" y="1039" type="curve" smooth="yes"/>
      <point x="516" y="1142"/>
      <point x="355" y="1198"/>
      <point x="355" y="1350" type="curve" smooth="yes"/>
      <point x="355" y="1460"/>
      <point x="440" y="1544"/>
      <point x="620" y="1544" type="curve" smooth="yes"/>
      <point x="724" y="1544"/>
      <point x="825" y="1516"/>
      <point x="875" y="1481" type="curve" smooth="yes"/>
      <point x="903" y="1461"/>
      <point x="915" y="1441"/>
      <point x="920" y="1412" type="curve" smooth="yes"/>
      <point x="954" y="1215" type="line"/>
      <point x="1060" y="1215" type="line"/>
      <point x="1078" y="1326"/>
      <point x="1085" y="1438"/>
    </contour>
  </outline>
</glyph>
<glyph name="ordfeminine" format="1">
  <advance width="1090"/>
  <unicode hex="00AA"/>
  <outline>
    <contour>
      <point x="393" y="678" type="curve" smooth="yes"/>
      <point x="540" y="678"/>
      <point x="670" y="751"/>
      <point x="729" y="854" type="curve"/>
      <point x="711" y="894" type="line"/>
      <point x="660" y="831"/>
      <point x="548" y="784"/>
      <point x="449" y="784" type="curve" smooth="yes"/>
      <point x="355" y="784"/>
      <point x="311" y="827"/>
      <point x="311" y="903" type="curve" smooth="yes"/>
      <point x="311" y="997"/>
      <point x="384" y="1038"/>
      <point x="516" y="1049" type="curve" smooth="yes"/>
      <point x="707" y="1065" type="line"/>
      <point x="707" y="1144" type="line"/>
      <point x="490" y="1128" type="line" smooth="yes"/>
      <point x="329" y="1116"/>
      <point x="138" y="1064"/>
      <point x="138" y="886" type="curve" smooth="yes"/>
      <point x="138" y="751"/>
      <point x="248" y="678"/>
    </contour>
    <contour>
      <point x="203" y="1360" type="line"/>
      <point x="280" y="1429"/>
      <point x="372" y="1459"/>
      <point x="474" y="1459" type="curve" smooth="yes"/>
      <point x="611" y="1459"/>
      <point x="675" y="1404"/>
      <point x="675" y="1245" type="curve" smooth="yes"/>
      <point x="675" y="821" type="line"/>
      <point x="686" y="731"/>
      <point x="736" y="682"/>
      <point x="822" y="682" type="curve" smooth="yes"/>
      <point x="872" y="682"/>
      <point x="947" y="700"/>
      <point x="972" y="710" type="curve"/>
      <point x="972" y="781" type="line"/>
      <point x="879" y="789" type="line" smooth="yes"/>
      <point x="849" y="792"/>
      <point x="833" y="804"/>
      <point x="833" y="837" type="curve" smooth="yes"/>
      <point x="833" y="1268" type="line" smooth="yes"/>
      <point x="833" y="1479"/>
      <point x="728" y="1578"/>
      <point x="518" y="1578" type="curve" smooth="yes"/>
      <point x="354" y="1578"/>
      <point x="206" y="1515"/>
      <point x="165" y="1399" type="curve"/>
    </contour>
  </outline>
</glyph>
<glyph name="logicalnot" format="1">
  <advance width="1322"/>
  <unicode hex="00AC"/>
  <outline>
    <contour>
      <point x="177" y="550" type="line"/>
      <point x="1009" y="550" type="line"/>
      <point x="1009" y="106" type="line"/>
      <point x="1147" y="106" type="line"/>
      <point x="1147" y="679" type="line"/>
      <point x="177" y="679" type="line"/>
    </contour>
  </outline>
</glyph>
<glyph name="softhyphen" format="1">
  <advance width="1129"/>
  <unicode hex="00AD"/>
  <outline>
    <contour>
      <point x="172" y="534" type="line"/>
      <point x="957" y="534" type="line"/>
      <point x="957" y="658" type="line"/>
      <point x="172" y="658" type="line"/>
    </contour>
  </outline>
</glyph>
<glyph name="registered" format="1">
  <advance width="1795"/>
  <unicode hex="00AE"/>
  <outline>
    <contour>
      <point x="877" y="1055" type="line"/>
      <point x="933" y="1035"/>
      <point x="965" y="971"/>
      <point x="993" y="912" type="curve" smooth="yes"/>
      <point x="1071" y="749" type="line" smooth="yes"/>
      <point x="1098" y="693"/>
      <point x="1114" y="670"/>
      <point x="1160" y="670" type="curve" smooth="yes"/>
      <point x="1310" y="670" type="line"/>
      <point x="1310" y="747" type="line"/>
      <point x="1234" y="764"/>
      <point x="1220" y="775"/>
      <point x="1199" y="812" type="curve" smooth="yes"/>
      <point x="1116" y="960" type="line" smooth="yes"/>
      <point x="1083" y="1019"/>
      <point x="1052" y="1043"/>
      <point x="995" y="1062" type="curve"/>
    </contour>
    <contour>
      <point x="233" y="1092" type="curve" smooth="yes"/>
      <point x="233" y="1488"/>
      <point x="512" y="1774"/>
      <point x="897" y="1774" type="curve" smooth="yes"/>
      <point x="1282" y="1774"/>
      <point x="1561" y="1488"/>
      <point x="1561" y="1093" type="curve" smooth="yes"/>
      <point x="1561" y="697"/>
      <point x="1281" y="409"/>
      <point x="896" y="409" type="curve" smooth="yes"/>
      <point x="512" y="409"/>
      <point x="233" y="696"/>
    </contour>
    <contour>
      <point x="130" y="1092" type="curve" smooth="yes"/>
      <point x="130" y="649"/>
      <point x="460" y="315"/>
      <point x="897" y="315" type="curve" smooth="yes"/>
      <point x="1335" y="315"/>
      <point x="1665" y="650"/>
      <point x="1665" y="1092" type="curve" smooth="yes"/>
      <point x="1665" y="1533"/>
      <point x="1335" y="1865"/>
      <point x="897" y="1865" type="curve" smooth="yes"/>
      <point x="460" y="1865"/>
      <point x="130" y="1534"/>
    </contour>
    <contour>
      <point x="1003" y="1040" type="line"/>
      <point x="1139" y="1057"/>
      <point x="1234" y="1141"/>
      <point x="1234" y="1293" type="curve" smooth="yes"/>
      <point x="1234" y="1448"/>
      <point x="1121" y="1522"/>
      <point x="923" y="1522" type="curve" smooth="yes"/>
      <point x="874" y="1522"/>
      <point x="779" y="1518"/>
      <point x="686" y="1518" type="curve" smooth="yes"/>
      <point x="517" y="1518" type="line"/>
      <point x="517" y="1444" type="line"/>
      <point x="587" y="1429" type="line" smooth="yes"/>
      <point x="610" y="1424"/>
      <point x="623" y="1410"/>
      <point x="623" y="1386" type="curve" smooth="yes"/>
      <point x="623" y="797" type="line" smooth="yes"/>
      <point x="623" y="773"/>
      <point x="611" y="759"/>
      <point x="588" y="753" type="curve" smooth="yes"/>
      <point x="517" y="736" type="line"/>
      <point x="517" y="670" type="line"/>
      <point x="875" y="670" type="line"/>
      <point x="875" y="736" type="line"/>
      <point x="794" y="752" type="line" smooth="yes"/>
      <point x="770" y="757"/>
      <point x="758" y="771"/>
      <point x="758" y="795" type="curve" smooth="yes"/>
      <point x="758" y="1431" type="line"/>
      <point x="807" y="1439"/>
      <point x="834" y="1440"/>
      <point x="869" y="1440" type="curve" smooth="yes"/>
      <point x="1023" y="1440"/>
      <point x="1086" y="1398"/>
      <point x="1086" y="1284" type="curve" smooth="yes"/>
      <point x="1086" y="1164"/>
      <point x="1017" y="1107"/>
      <point x="900" y="1107" type="curve" smooth="yes"/>
      <point x="840" y="1107"/>
      <point x="781" y="1108"/>
      <point x="720" y="1114" type="curve"/>
      <point x="720" y="1021" type="line"/>
      <point x="955" y="1019" type="line"/>
    </contour>
  </outline>
</glyph>
<glyph name="degree" format="1">
  <advance width="930"/>
  <unicode hex="00B0"/>
  <outline>
    <contour>
      <point x="463" y="951" type="curve" smooth="yes"/>
      <point x="654" y="951"/>
      <point x="808" y="1096"/>
      <point x="808" y="1293" type="curve" smooth="yes"/>
      <point x="808" y="1479"/>
      <point x="664" y="1634"/>
      <point x="463" y="1634" type="curve" smooth="yes"/>
      <point x="276" y="1634"/>
      <point x="121" y="1489"/>
      <point x="121" y="1293" type="curve" smooth="yes"/>
      <point x="121" y="1106"/>
      <point x="276" y="951"/>
    </contour>
    <contour>
      <point x="465" y="1065" type="curve" smooth="yes"/>
      <point x="342" y="1065"/>
      <point x="239" y="1168"/>
      <point x="239" y="1293" type="curve" smooth="yes"/>
      <point x="239" y="1424"/>
      <point x="333" y="1521"/>
      <point x="462" y="1521" type="curve" smooth="yes"/>
      <point x="590" y="1521"/>
      <point x="688" y="1418"/>
      <point x="688" y="1293" type="curve" smooth="yes"/>
      <point x="688" y="1158"/>
      <point x="596" y="1065"/>
    </contour>
  </outline>
</glyph>
<glyph name="twosuperior" format="1">
  <advance width="1012"/>
  <unicode hex="00B2"/>
  <outline>
    <contour>
      <point x="171" y="626" type="line"/>
      <point x="831" y="626" type="line"/>
      <point x="857" y="707"/>
      <point x="869" y="803"/>
      <point x="874" y="889" type="curve"/>
      <point x="797" y="900" type="line"/>
      <point x="756" y="802" type="line" smooth="yes"/>
      <point x="737" y="756"/>
      <point x="681" y="735"/>
      <point x="572" y="735" type="curve" smooth="yes"/>
      <point x="251" y="735" type="line"/>
      <point x="261" y="686" type="line"/>
      <point x="527" y="873"/>
      <point x="807" y="1057"/>
      <point x="807" y="1295" type="curve" smooth="yes"/>
      <point x="807" y="1452"/>
      <point x="685" y="1585"/>
      <point x="486" y="1585" type="curve" smooth="yes"/>
      <point x="309" y="1585"/>
      <point x="190" y="1479"/>
      <point x="161" y="1372" type="curve"/>
      <point x="204" y="1340" type="line"/>
      <point x="251" y="1397"/>
      <point x="334" y="1469"/>
      <point x="449" y="1469" type="curve" smooth="yes"/>
      <point x="571" y="1469"/>
      <point x="648" y="1396"/>
      <point x="648" y="1274" type="curve" smooth="yes"/>
      <point x="648" y="1115"/>
      <point x="517" y="990"/>
      <point x="146" y="700" type="curve"/>
    </contour>
  </outline>
</glyph>
<glyph name="threesuperior" format="1">
  <advance width="980"/>
  <unicode hex="00B3"/>
  <outline>
    <contour>
      <point x="127" y="749" type="line"/>
      <point x="191" y="673"/>
      <point x="328" y="613"/>
      <point x="484" y="613" type="curve" smooth="yes"/>
      <point x="704" y="613"/>
      <point x="856" y="731"/>
      <point x="856" y="888" type="curve" smooth="yes"/>
      <point x="856" y="1025"/>
      <point x="739" y="1117"/>
      <point x="571" y="1117" type="curve"/>
      <point x="684" y="1136"/>
      <point x="790" y="1225"/>
      <point x="790" y="1349" type="curve" smooth="yes"/>
      <point x="790" y="1488"/>
      <point x="655" y="1585"/>
      <point x="472" y="1585" type="curve" smooth="yes"/>
      <point x="337" y="1585"/>
      <point x="209" y="1532"/>
      <point x="163" y="1407" type="curve"/>
      <point x="201" y="1373" type="line"/>
      <point x="274" y="1446"/>
      <point x="356" y="1473"/>
      <point x="438" y="1473" type="curve" smooth="yes"/>
      <point x="557" y="1473"/>
      <point x="637" y="1416"/>
      <point x="637" y="1317" type="curve" smooth="yes"/>
      <point x="637" y="1213"/>
      <point x="548" y="1146"/>
      <point x="387" y="1146" type="curve" smooth="yes"/>
      <point x="344" y="1146" type="line"/>
      <point x="344" y="1046" type="line"/>
      <point x="452" y="1046" type="line" smooth="yes"/>
      <point x="605" y="1046"/>
      <point x="698" y="1002"/>
      <point x="698" y="891" type="curve" smooth="yes"/>
      <point x="698" y="774"/>
      <point x="595" y="718"/>
      <point x="462" y="718" type="curve" smooth="yes"/>
      <point x="349" y="718"/>
      <point x="243" y="759"/>
      <point x="173" y="813" type="curve"/>
    </contour>
  </outline>
</glyph>
<glyph name="onesuperior" format="1">
  <advance width="899"/>
  <unicode hex="00B9"/>
  <outline>
    <contour>
      <point x="570" y="1561" type="line"/>
      <point x="484" y="1576" type="line"/>
      <point x="372" y="1490"/>
      <point x="254" y="1450"/>
      <point x="148" y="1419" type="curve"/>
      <point x="167" y="1336" type="line"/>
      <point x="251" y="1347"/>
      <point x="347" y="1370"/>
      <point x="429" y="1404" type="curve"/>
      <point x="429" y="781" type="line" smooth="yes"/>
      <point x="429" y="744"/>
      <point x="419" y="733"/>
      <point x="383" y="729" type="curve" smooth="yes"/>
      <point x="173" y="707" type="line"/>
      <point x="173" y="626" type="line"/>
      <point x="790" y="626" type="line"/>
      <point x="790" y="707" type="line"/>
      <point x="616" y="729" type="line" smooth="yes"/>
      <point x="579" y="734"/>
      <point x="570" y="744"/>
      <point x="570" y="780" type="curve" smooth="yes"/>
    </contour>
  </outline>
</glyph>
<glyph name="multiply" format="1">
  <advance width="1116"/>
  <unicode hex="00D7"/>
  <outline>
    <contour>
      <point x="252" y="209" type="line"/>
      <point x="558" y="533" type="line"/>
      <point x="864" y="209" type="line"/>
      <point x="958" y="309" type="line"/>
      <point x="642" y="617" type="line"/>
      <point x="958" y="925" type="line"/>
      <point x="863" y="1025" type="line"/>
      <point x="558" y="701" type="line"/>
      <point x="253" y="1025" type="line"/>
      <point x="158" y="925" type="line"/>
      <point x="474" y="617" type="line"/>
      <point x="158" y="309" type="line"/>
    </contour>
  </outline>
</glyph>
<glyph name="Thorn" format="1">
  <advance width="1384"/>
  <unicode hex="00DE"/>
  <outline>
    <contour>
      <point x="721" y="0" type="line"/>
      <point x="721" y="88" type="line"/>
      <point x="550" y="117" type="line" smooth="yes"/>
      <point x="514" y="123"/>
      <point x="496" y="145"/>
      <point x="496" y="182" type="curve" smooth="yes"/>
      <point x="496" y="1377" type="line" smooth="yes"/>
      <point x="496" y="1413"/>
      <point x="515" y="1435"/>
      <point x="550" y="1442" type="curve" smooth="yes"/>
      <point x="721" y="1474" type="line"/>
      <point x="721" y="1562" type="line"/>
      <point x="133" y="1562" type="line"/>
      <point x="133" y="1474" type="line"/>
      <point x="274" y="1442" type="line" smooth="yes"/>
      <point x="309" y="1434"/>
      <point x="328" y="1412"/>
      <point x="328" y="1377" type="curve" smooth="yes"/>
      <point x="328" y="182" type="line" smooth="yes"/>
      <point x="328" y="146"/>
      <point x="310" y="124"/>
      <point x="274" y="117" type="curve" smooth="yes"/>
      <point x="133" y="88" type="line"/>
      <point x="133" y="0" type="line"/>
    </contour>
    <contour>
      <point x="1094" y="335"/>
      <point x="1289" y="478"/>
      <point x="1289" y="803" type="curve" smooth="yes"/>
      <point x="1289" y="1094"/>
      <point x="1114" y="1228"/>
      <point x="792" y="1228" type="curve" smooth="yes"/>
      <point x="680" y="1228"/>
      <point x="577" y="1220"/>
      <point x="457" y="1207" type="curve"/>
      <point x="457" y="1108" type="line"/>
      <point x="535" y="1117"/>
      <point x="635" y="1128"/>
      <point x="734" y="1128" type="curve" smooth="yes"/>
      <point x="1006" y="1128"/>
      <point x="1104" y="1017"/>
      <point x="1104" y="796" type="curve" smooth="yes"/>
      <point x="1104" y="517"/>
      <point x="961" y="429"/>
      <point x="747" y="429" type="curve" smooth="yes"/>
      <point x="651" y="429"/>
      <point x="565" y="436"/>
      <point x="457" y="447" type="curve"/>
      <point x="457" y="347" type="line"/>
      <point x="544" y="342"/>
      <point x="625" y="335"/>
      <point x="753" y="335" type="curve" smooth="yes"/>
    </contour>
  </outline>
</glyph>
<glyph name="oslash" format="1">
  <advance width="1278"/>
  <unicode hex="00F8"/>
  <outline>
    <contour>
      <point x="912" y="-23"/>
      <point x="1155" y="164"/>
      <point x="1155" y="576" type="curve" smooth="yes"/>
      <point x="1155" y="917"/>
      <point x="1017" y="1168"/>
      <point x="658" y="1168" type="curve" smooth="yes"/>
      <point x="366" y="1168"/>
      <point x="123" y="981"/>
      <point x="123" y="567" type="curve" smooth="yes"/>
      <point x="123" y="227"/>
      <point x="260" y="-23"/>
      <point x="619" y="-23" type="curve" smooth="yes"/>
    </contour>
    <contour>
      <point x="439" y="42" type="line"/>
      <point x="454" y="77" type="line"/>
      <point x="912" y="1017" type="line"/>
      <point x="932" y="1044" type="line"/>
      <point x="1041" y="1258" type="line"/>
      <point x="950" y="1307" type="line"/>
      <point x="838" y="1092" type="line"/>
      <point x="823" y="1057" type="line"/>
      <point x="365" y="117" type="line"/>
      <point x="345" y="90" type="line"/>
      <point x="236" y="-124" type="line"/>
      <point x="327" y="-173" type="line"/>
    </contour>
    <contour>
      <point x="384" y="81"/>
      <point x="307" y="299"/>
      <point x="307" y="586" type="curve" smooth="yes"/>
      <point x="307" y="916"/>
      <point x="411" y="1064"/>
      <point x="630" y="1064" type="curve" smooth="yes"/>
      <point x="892" y="1064"/>
      <point x="970" y="849"/>
      <point x="970" y="559" type="curve" smooth="yes"/>
      <point x="970" y="230"/>
      <point x="867" y="81"/>
      <point x="648" y="81" type="curve" smooth="yes"/>
    </contour>
    <contour>
      <point x="631" y="-170" type="move" name="btm"/>
    </contour>
    <contour>
      <point x="647" y="1700" type="move" name="top"/>
    </contour>
  </outline>
</glyph>
<glyph name="Aogonek" format="1">
  <advance width="1526"/>
  <unicode hex="0104"/>
  <outline>
    <contour>
      <point x="1472" y="-439" type="curve"/>
      <point x="1438" y="-366" type="line"/>
      <point x="1390" y="-388"/>
      <point x="1336" y="-398"/>
      <point x="1292" y="-398" type="curve" smooth="yes"/>
      <point x="1207" y="-398"/>
      <point x="1146" y="-360"/>
      <point x="1146" y="-279" type="curve" smooth="yes"/>
      <point x="1146" y="-159"/>
      <point x="1283" y="-42"/>
      <point x="1450" y="15" type="curve"/>
      <point x="1260" y="15" type="line"/>
      <point x="1260" y="-5" type="line"/>
      <point x="1120" y="-69"/>
      <point x="985" y="-188"/>
      <point x="985" y="-327" type="curve" smooth="yes"/>
      <point x="985" y="-456"/>
      <point x="1095" y="-513"/>
      <point x="1224" y="-513" type="curve" smooth="yes"/>
      <point x="1314" y="-513"/>
      <point x="1410" y="-485"/>
    </contour>
    <contour>
      <point x="352" y="483" type="line"/>
      <point x="1114" y="483" type="line"/>
      <point x="1072" y="589" type="line"/>
      <point x="386" y="589" type="line"/>
    </contour>
    <contour>
      <point x="840" y="1567" type="line"/>
      <point x="672" y="1567" type="line"/>
      <point x="188" y="170" type="line" smooth="yes"/>
      <point x="178" y="140"/>
      <point x="157" y="123"/>
      <point x="126" y="116" type="curve" smooth="yes"/>
      <point x="8" y="88" type="line"/>
      <point x="8" y="0" type="line"/>
      <point x="507" y="0" type="line"/>
      <point x="507" y="88" type="line"/>
      <point x="307" y="126" type="line"/>
      <point x="765" y="1494" type="line"/>
      <point x="694" y="1494" type="line"/>
      <point x="1184" y="126" type="line"/>
      <point x="984" y="88" type="line"/>
      <point x="984" y="0" type="line"/>
      <point x="1523" y="0" type="line"/>
      <point x="1523" y="88" type="line"/>
      <point x="1412" y="116" type="line" smooth="yes"/>
      <point x="1380" y="124"/>
      <point x="1361" y="139"/>
      <point x="1350" y="170" type="curve" smooth="yes"/>
    </contour>
    <contour>
      <point x="735" y="-170" type="move" name="btm"/>
    </contour>
    <contour>
      <point x="764" y="1700" type="move" name="top"/>
    </contour>
  </outline>
</glyph>
<glyph name="aogonek" format="1">
  <advance width="1190"/>
  <unicode hex="0105"/>
  <outline>
    <contour>
      <point x="1104" y="-439" type="curve"/>
      <point x="1070" y="-366" type="line"/>
      <point x="1022" y="-388"/>
      <point x="968" y="-398"/>
      <point x="924" y="-398" type="curve" smooth="yes"/>
      <point x="839" y="-398"/>
      <point x="778" y="-360"/>
      <point x="778" y="-279" type="curve" smooth="yes"/>
      <point x="778" y="-159"/>
      <point x="915" y="-42"/>
      <point x="1082" y="15" type="curve"/>
      <point x="887" y="11" type="line"/>
      <point x="887" y="-9" type="line"/>
      <point x="754" y="-73"/>
      <point x="617" y="-188"/>
      <point x="617" y="-327" type="curve" smooth="yes"/>
      <point x="617" y="-456"/>
      <point x="727" y="-513"/>
      <point x="856" y="-513" type="curve" smooth="yes"/>
      <point x="946" y="-513"/>
      <point x="1042" y="-485"/>
    </contour>
    <contour>
      <point x="423" y="-23" type="curve" smooth="yes"/>
      <point x="608" y="-23"/>
      <point x="776" y="79"/>
      <point x="850" y="214" type="curve"/>
      <point x="828" y="259" type="line"/>
      <point x="762" y="169"/>
      <point x="608" y="99"/>
      <point x="476" y="99" type="curve" smooth="yes"/>
      <point x="351" y="99"/>
      <point x="290" y="161"/>
      <point x="290" y="265" type="curve" smooth="yes"/>
      <point x="290" y="400"/>
      <point x="394" y="450"/>
      <point x="567" y="466" type="curve" smooth="yes"/>
      <point x="820" y="490" type="line"/>
      <point x="820" y="586" type="line"/>
      <point x="547" y="562" type="line" smooth="yes"/>
      <point x="353" y="545"/>
      <point x="108" y="489"/>
      <point x="108" y="249" type="curve" smooth="yes"/>
      <point x="108" y="69"/>
      <point x="247" y="-23"/>
    </contour>
    <contour>
      <point x="182" y="893" type="line"/>
      <point x="280" y="987"/>
      <point x="397" y="1027"/>
      <point x="525" y="1027" type="curve" smooth="yes"/>
      <point x="704" y="1027"/>
      <point x="785" y="948"/>
      <point x="785" y="726" type="curve" smooth="yes"/>
      <point x="785" y="159" type="line"/>
      <point x="795" y="52"/>
      <point x="851" y="-16"/>
      <point x="951" y="-16" type="curve" smooth="yes"/>
      <point x="1009" y="-16"/>
      <point x="1101" y="7"/>
      <point x="1128" y="19" type="curve"/>
      <point x="1128" y="100" type="line"/>
      <point x="1008" y="110" type="line" smooth="yes"/>
      <point x="969" y="113"/>
      <point x="948" y="131"/>
      <point x="948" y="175" type="curve" smooth="yes"/>
      <point x="948" y="764" type="line" smooth="yes"/>
      <point x="948" y="1036"/>
      <point x="818" y="1160"/>
      <point x="570" y="1160" type="curve" smooth="yes"/>
      <point x="378" y="1160"/>
      <point x="189" y="1085"/>
      <point x="141" y="938" type="curve"/>
    </contour>
    <contour>
      <point x="521" y="-170" type="move" name="btm"/>
    </contour>
    <contour>
      <point x="545" y="1700" type="move" name="top"/>
    </contour>
  </outline>
</glyph>
<glyph name="dcroat" format="1">
  <advance width="1348"/>
  <unicode hex="0111"/>
  <outline>
    <contour>
      <point x="560" y="1335" type="line"/>
      <point x="1233" y="1335" type="line"/>
      <point x="1233" y="1440" type="line"/>
      <point x="560" y="1440" type="line"/>
    </contour>
    <contour>
      <point x="573" y="-23" type="curve" smooth="yes"/>
      <point x="766" y="-23"/>
      <point x="897" y="82"/>
      <point x="972" y="190" type="curve"/>
      <point x="944" y="236" type="line"/>
      <point x="863" y="159"/>
      <point x="762" y="106"/>
      <point x="635" y="106" type="curve" smooth="yes"/>
      <point x="464" y="106"/>
      <point x="304" y="200"/>
      <point x="304" y="559" type="curve" smooth="yes"/>
      <point x="304" y="925"/>
      <point x="477" y="1034"/>
      <point x="679" y="1034" type="curve" smooth="yes"/>
      <point x="803" y="1034"/>
      <point x="919" y="991"/>
      <point x="955" y="951" type="curve"/>
      <point x="1004" y="1087" type="line"/>
      <point x="945" y="1110"/>
      <point x="831" y="1138"/>
      <point x="704" y="1138" type="curve" smooth="yes"/>
      <point x="367" y="1138"/>
      <point x="123" y="946"/>
      <point x="123" y="529" type="curve" smooth="yes"/>
      <point x="123" y="136"/>
      <point x="333" y="-23"/>
    </contour>
    <contour>
      <point x="1064" y="1797" type="line"/>
      <point x="959" y="1793"/>
      <point x="814" y="1776"/>
      <point x="709" y="1742" type="curve"/>
      <point x="709" y="1667" type="line"/>
      <point x="868" y="1645" type="line" smooth="yes"/>
      <point x="904" y="1640"/>
      <point x="925" y="1620"/>
      <point x="925" y="1583" type="curve" smooth="yes"/>
      <point x="925" y="172" type="line"/>
      <point x="933" y="76"/>
      <point x="973" y="-16"/>
      <point x="1094" y="-16" type="curve" smooth="yes"/>
      <point x="1149" y="-16"/>
      <point x="1227" y="3"/>
      <point x="1270" y="19" type="curve"/>
      <point x="1270" y="100" type="line"/>
      <point x="1150" y="110" type="line" smooth="yes"/>
      <point x="1115" y="113"/>
      <point x="1090" y="127"/>
      <point x="1090" y="176" type="curve" smooth="yes"/>
      <point x="1090" y="1769" type="line"/>
    </contour>
    <contour>
      <point x="616" y="-170" type="move" name="btm"/>
    </contour>
    <contour>
      <point x="388" y="1700" type="move" name="top"/>
    </contour>
  </outline>
</glyph>
<glyph name="Hbar" format="1">
  <advance width="1804"/>
  <unicode hex="0126"/>
  <outline>
    <contour>
      <point x="127" y="1056" type="line"/>
      <point x="1677" y="1056" type="line"/>
      <point x="1677" y="1156" type="line"/>
      <point x="127" y="1156" type="line"/>
    </contour>
    <contour>
      <point x="1687" y="1562" type="line"/>
      <point x="1102" y="1562" type="line"/>
      <point x="1102" y="1474" type="line"/>
      <point x="1249" y="1442" type="line" smooth="yes"/>
      <point x="1284" y="1434"/>
      <point x="1302" y="1413"/>
      <point x="1302" y="1377" type="curve" smooth="yes"/>
      <point x="1302" y="806" type="line"/>
      <point x="502" y="806" type="line"/>
      <point x="502" y="1377" type="line" smooth="yes"/>
      <point x="502" y="1413"/>
      <point x="520" y="1435"/>
      <point x="555" y="1442" type="curve" smooth="yes"/>
      <point x="710" y="1474" type="line"/>
      <point x="710" y="1562" type="line"/>
      <point x="117" y="1562" type="line"/>
      <point x="117" y="1474" type="line"/>
      <point x="278" y="1442" type="line" smooth="yes"/>
      <point x="313" y="1435"/>
      <point x="332" y="1412"/>
      <point x="332" y="1376" type="curve" smooth="yes"/>
      <point x="332" y="183" type="line" smooth="yes"/>
      <point x="332" y="147"/>
      <point x="314" y="125"/>
      <point x="278" y="118" type="curve" smooth="yes"/>
      <point x="117" y="88" type="line"/>
      <point x="117" y="0" type="line"/>
      <point x="711" y="0" type="line"/>
      <point x="711" y="88" type="line"/>
      <point x="556" y="117" type="line" smooth="yes"/>
      <point x="520" y="124"/>
      <point x="502" y="146"/>
      <point x="502" y="182" type="curve" smooth="yes"/>
      <point x="502" y="698" type="line"/>
      <point x="1302" y="698" type="line"/>
      <point x="1302" y="183" type="line" smooth="yes"/>
      <point x="1302" y="147"/>
      <point x="1283" y="124"/>
      <point x="1248" y="117" type="curve" smooth="yes"/>
      <point x="1101" y="88" type="line"/>
      <point x="1101" y="0" type="line"/>
      <point x="1687" y="0" type="line"/>
      <point x="1687" y="88" type="line"/>
      <point x="1526" y="118" type="line" smooth="yes"/>
      <point x="1490" y="125"/>
      <point x="1472" y="147"/>
      <point x="1472" y="183" type="curve" smooth="yes"/>
      <point x="1472" y="1376" type="line" smooth="yes"/>
      <point x="1472" y="1412"/>
      <point x="1491" y="1435"/>
      <point x="1526" y="1442" type="curve" smooth="yes"/>
      <point x="1687" y="1474" type="line"/>
    </contour>
    <contour>
      <point x="887" y="-170" type="move" name="btm"/>
    </contour>
    <contour>
      <point x="892" y="1700" type="move" name="top"/>
    </contour>
  </outline>
</glyph>
<glyph name="hbar" format="1">
  <advance width="1414"/>
  <unicode hex="0127"/>
  <outline>
    <contour>
      <point x="76" y="1335" type="line"/>
      <point x="771" y="1335" type="line"/>
      <point x="771" y="1440" type="line"/>
      <point x="76" y="1440" type="line"/>
    </contour>
    <contour>
      <point x="606" y="0" type="line"/>
      <point x="606" y="88" type="line"/>
      <point x="483" y="107" type="line" smooth="yes"/>
      <point x="446" y="113"/>
      <point x="426" y="132"/>
      <point x="426" y="170" type="curve" smooth="yes"/>
      <point x="426" y="1769" type="line"/>
      <point x="400" y="1797" type="line"/>
      <point x="297" y="1793"/>
      <point x="154" y="1776"/>
      <point x="51" y="1742" type="curve"/>
      <point x="51" y="1667" type="line"/>
      <point x="204" y="1645" type="line" smooth="yes"/>
      <point x="240" y="1640"/>
      <point x="261" y="1620"/>
      <point x="261" y="1583" type="curve" smooth="yes"/>
      <point x="261" y="169" type="line" smooth="yes"/>
      <point x="261" y="132"/>
      <point x="241" y="113"/>
      <point x="204" y="107" type="curve" smooth="yes"/>
      <point x="76" y="88" type="line"/>
      <point x="76" y="0" type="line"/>
    </contour>
    <contour>
      <point x="1354" y="0" type="line"/>
      <point x="1354" y="88" type="line"/>
      <point x="1226" y="107" type="line" smooth="yes"/>
      <point x="1190" y="112"/>
      <point x="1169" y="133"/>
      <point x="1169" y="170" type="curve" smooth="yes"/>
      <point x="1169" y="695" type="line" smooth="yes"/>
      <point x="1169" y="974"/>
      <point x="1093" y="1136"/>
      <point x="828" y="1136" type="curve" smooth="yes"/>
      <point x="669" y="1136"/>
      <point x="500" y="1087"/>
      <point x="378" y="921" type="curve"/>
      <point x="369" y="839" type="line"/>
      <point x="475" y="955"/>
      <point x="619" y="1008"/>
      <point x="768" y="1008" type="curve" smooth="yes"/>
      <point x="960" y="1008"/>
      <point x="1004" y="888"/>
      <point x="1004" y="656" type="curve" smooth="yes"/>
      <point x="1004" y="170" type="line" smooth="yes"/>
      <point x="1004" y="130"/>
      <point x="979" y="112"/>
      <point x="947" y="107" type="curve" smooth="yes"/>
      <point x="824" y="88" type="line"/>
      <point x="824" y="0" type="line"/>
    </contour>
    <contour>
      <point x="397" y="-170" type="move" name="btm"/>
    </contour>
    <contour>
      <point x="368" y="1700" type="move" name="top"/>
    </contour>
  </outline>
</glyph>
<glyph name="eng" format="1">
  <advance width="1392"/>
  <unicode hex="014B"/>
  <outline>
    <contour>
      <point x="1196" y="12" type="curve" smooth="yes"/>
      <point x="1196" y="723" type="line" smooth="yes"/>
      <point x="1196" y="1006"/>
      <point x="1120" y="1164"/>
      <point x="850" y="1164" type="curve" smooth="yes"/>
      <point x="701" y="1164"/>
      <point x="527" y="1116"/>
      <point x="405" y="949" type="curve"/>
      <point x="396" y="867" type="line"/>
      <point x="498" y="978"/>
      <point x="645" y="1036"/>
      <point x="787" y="1036" type="curve" smooth="yes"/>
      <point x="987" y="1036"/>
      <point x="1031" y="922"/>
      <point x="1031" y="684" type="curve" smooth="yes"/>
      <point x="1031" y="57" type="line" smooth="yes"/>
      <point x="1031" y="-141"/>
      <point x="1012" y="-252"/>
      <point x="957" y="-314" type="curve" smooth="yes"/>
      <point x="903" y="-375"/>
      <point x="808" y="-389"/>
      <point x="736" y="-402" type="curve"/>
      <point x="744" y="-492" type="line"/>
      <point x="780" y="-496"/>
      <point x="817" y="-496"/>
      <point x="850" y="-496" type="curve" smooth="yes"/>
      <point x="1104" y="-496"/>
      <point x="1196" y="-322"/>
    </contour>
    <contour>
      <point x="634" y="0" type="line"/>
      <point x="634" y="88" type="line"/>
      <point x="510" y="107" type="line" smooth="yes"/>
      <point x="474" y="113"/>
      <point x="454" y="134"/>
      <point x="454" y="171" type="curve" smooth="yes"/>
      <point x="454" y="935" type="line"/>
      <point x="436" y="1129" type="line"/>
      <point x="405" y="1161" type="line"/>
      <point x="307" y="1159"/>
      <point x="187" y="1141"/>
      <point x="89" y="1109" type="curve"/>
      <point x="89" y="1027" type="line"/>
      <point x="234" y="1009" type="line" smooth="yes"/>
      <point x="270" y="1005"/>
      <point x="289" y="982"/>
      <point x="289" y="945" type="curve" smooth="yes"/>
      <point x="289" y="171" type="line" smooth="yes"/>
      <point x="289" y="134"/>
      <point x="269" y="112"/>
      <point x="232" y="107" type="curve" smooth="yes"/>
      <point x="104" y="88" type="line"/>
      <point x="104" y="0" type="line"/>
    </contour>
    <contour>
      <point x="1095" y="-170" type="move" name="btm"/>
    </contour>
    <contour>
      <point x="1095" y="1700" type="move" name="top"/>
    </contour>
  </outline>
</glyph>
<glyph name="OE" format="1">
  <advance width="2115"/>
  <unicode hex="0152"/>
  <outline>
    <contour>
      <point x="1212" y="32" type="curve"/>
      <point x="1170" y="221" type="line"/>
      <point x="1070" y="114"/>
      <point x="957" y="74"/>
      <point x="825" y="74" type="curve" smooth="yes"/>
      <point x="492" y="74"/>
      <point x="323" y="329"/>
      <point x="323" y="780" type="curve" smooth="yes"/>
      <point x="323" y="1246"/>
      <point x="504" y="1482"/>
      <point x="828" y="1482" type="curve" smooth="yes"/>
      <point x="954" y="1482"/>
      <point x="1079" y="1446"/>
      <point x="1176" y="1337" type="curve"/>
      <point x="1215" y="1533" type="line"/>
      <point x="1091" y="1560"/>
      <point x="958" y="1577"/>
      <point x="850" y="1577" type="curve" smooth="yes"/>
      <point x="421" y="1577"/>
      <point x="136" y="1307"/>
      <point x="136" y="748" type="curve" smooth="yes"/>
      <point x="136" y="236"/>
      <point x="375" y="-23"/>
      <point x="805" y="-23" type="curve" smooth="yes"/>
      <point x="939" y="-23"/>
      <point x="1095" y="2"/>
    </contour>
    <contour>
      <point x="1973" y="0" type="line"/>
      <point x="1998" y="129"/>
      <point x="2014" y="265"/>
      <point x="2016" y="384" type="curve"/>
      <point x="1928" y="397" type="line"/>
      <point x="1857" y="189" type="line" smooth="yes"/>
      <point x="1847" y="161"/>
      <point x="1832" y="144"/>
      <point x="1800" y="132" type="curve" smooth="yes"/>
      <point x="1751" y="114"/>
      <point x="1661" y="108"/>
      <point x="1567" y="108" type="curve" smooth="yes"/>
      <point x="1228" y="108" type="line"/>
      <point x="1228" y="749" type="line"/>
      <point x="1734" y="736" type="line"/>
      <point x="1734" y="872" type="line"/>
      <point x="1228" y="855" type="line"/>
      <point x="1228" y="1464" type="line"/>
      <point x="1505" y="1464" type="line" smooth="yes"/>
      <point x="1599" y="1464"/>
      <point x="1679" y="1458"/>
      <point x="1728" y="1440" type="curve" smooth="yes"/>
      <point x="1758" y="1429"/>
      <point x="1778" y="1413"/>
      <point x="1785" y="1383" type="curve" smooth="yes"/>
      <point x="1828" y="1192" type="line"/>
      <point x="1917" y="1192" type="line"/>
      <point x="1929" y="1325"/>
      <point x="1930" y="1442"/>
      <point x="1922" y="1562" type="curve"/>
      <point x="1061" y="1562" type="line"/>
      <point x="1061" y="0" type="line"/>
    </contour>
    <contour>
      <point x="753" y="-170" type="move" name="btm"/>
    </contour>
    <contour>
      <point x="767" y="1700" type="move" name="top"/>
    </contour>
  </outline>
</glyph>
<glyph name="Tbar" format="1">
  <advance width="1482"/>
  <unicode hex="0166"/>
  <outline>
    <contour>
      <point x="385" y="699" type="line"/>
      <point x="1096" y="699" type="line"/>
      <point x="1096" y="811" type="line"/>
      <point x="385" y="811" type="line"/>
    </contour>
    <contour>
      <point x="1116" y="0" type="line"/>
      <point x="1116" y="88" type="line"/>
      <point x="882" y="123" type="line" smooth="yes"/>
      <point x="845" y="129"/>
      <point x="826" y="149"/>
      <point x="826" y="186" type="curve" smooth="yes"/>
      <point x="826" y="1464" type="line"/>
      <point x="960" y="1464" type="line" smooth="yes"/>
      <point x="1065" y="1464"/>
      <point x="1141" y="1456"/>
      <point x="1184" y="1440" type="curve" smooth="yes"/>
      <point x="1214" y="1429"/>
      <point x="1231" y="1413"/>
      <point x="1238" y="1379" type="curve" smooth="yes"/>
      <point x="1294" y="1116" type="line"/>
      <point x="1392" y="1116" type="line"/>
      <point x="1404" y="1275"/>
      <point x="1400" y="1418"/>
      <point x="1384" y="1562" type="curve"/>
      <point x="103" y="1562" type="line"/>
      <point x="85" y="1418"/>
      <point x="77" y="1275"/>
      <point x="86" y="1116" type="curve"/>
      <point x="184" y="1116" type="line"/>
      <point x="243" y="1379" type="line" smooth="yes"/>
      <point x="251" y="1413"/>
      <point x="268" y="1429"/>
      <point x="300" y="1440" type="curve" smooth="yes"/>
      <point x="339" y="1454"/>
      <point x="426" y="1464"/>
      <point x="527" y="1464" type="curve" smooth="yes"/>
      <point x="656" y="1464" type="line"/>
      <point x="656" y="186" type="line" smooth="yes"/>
      <point x="656" y="149"/>
      <point x="637" y="129"/>
      <point x="600" y="123" type="curve" smooth="yes"/>
      <point x="366" y="88" type="line"/>
      <point x="366" y="0" type="line"/>
    </contour>
    <contour>
      <point x="757" y="-170" type="move" name="btm"/>
    </contour>
    <contour>
      <point x="757" y="1700" type="move" name="top"/>
    </contour>
  </outline>
</glyph>
<glyph name="tbar" format="1">
  <advance width="911"/>
  <unicode hex="0167"/>
  <outline>
    <contour>
      <point x="81" y="624" type="line"/>
      <point x="801" y="624" type="line"/>
      <point x="801" y="738" type="line"/>
      <point x="81" y="738" type="line"/>
    </contour>
    <contour>
      <point x="251" y="266" type="line" smooth="yes"/>
      <point x="251" y="35"/>
      <point x="397" y="-23"/>
      <point x="547" y="-23" type="curve" smooth="yes"/>
      <point x="688" y="-23"/>
      <point x="815" y="42"/>
      <point x="873" y="157" type="curve"/>
      <point x="813" y="207" type="line"/>
      <point x="762" y="146"/>
      <point x="687" y="109"/>
      <point x="591" y="109" type="curve" smooth="yes"/>
      <point x="485" y="109"/>
      <point x="417" y="152"/>
      <point x="417" y="333" type="curve" smooth="yes"/>
      <point x="417" y="1015" type="line"/>
      <point x="811" y="1015" type="line"/>
      <point x="811" y="1136" type="line"/>
      <point x="417" y="1136" type="line"/>
      <point x="417" y="1468" type="line"/>
      <point x="318" y="1468" type="line"/>
      <point x="260" y="1181" type="line" smooth="yes"/>
      <point x="253" y="1147"/>
      <point x="235" y="1128"/>
      <point x="199" y="1124" type="curve" smooth="yes"/>
      <point x="71" y="1109" type="line"/>
      <point x="71" y="1026" type="line"/>
      <point x="251" y="1006" type="line"/>
    </contour>
    <contour>
      <point x="509" y="-170" type="move" name="btm"/>
    </contour>
    <contour>
      <point x="377" y="1870" type="move" name="top"/>
    </contour>
  </outline>
</glyph>
<glyph name="Uogonek" format="1">
  <advance width="1679"/>
  <unicode hex="0172"/>
  <outline>
    <contour>
      <point x="692" y="-327" type="curve" smooth="yes"/>
      <point x="692" y="-456"/>
      <point x="802" y="-513"/>
      <point x="931" y="-513" type="curve" smooth="yes"/>
      <point x="1021" y="-513"/>
      <point x="1117" y="-485"/>
      <point x="1179" y="-439" type="curve"/>
      <point x="1145" y="-366" type="line"/>
      <point x="1097" y="-388"/>
      <point x="1043" y="-398"/>
      <point x="999" y="-398" type="curve" smooth="yes"/>
      <point x="914" y="-398"/>
      <point x="853" y="-360"/>
      <point x="853" y="-279" type="curve" smooth="yes"/>
      <point x="853" y="-164"/>
      <point x="977" y="-65"/>
      <point x="1181" y="67" type="curve"/>
      <point x="950" y="4" type="line"/>
      <point x="950" y="-16" type="line"/>
      <point x="829" y="-80"/>
      <point x="692" y="-184"/>
    </contour>
    <contour>
      <point x="1040" y="1562" type="line"/>
      <point x="1040" y="1474" type="line"/>
      <point x="1216" y="1442" type="line" smooth="yes"/>
      <point x="1251" y="1436"/>
      <point x="1269" y="1413"/>
      <point x="1269" y="1377" type="curve" smooth="yes"/>
      <point x="1269" y="567" type="line" smooth="yes"/>
      <point x="1269" y="244"/>
      <point x="1146" y="80"/>
      <point x="857" y="80" type="curve" smooth="yes"/>
      <point x="624" y="80"/>
      <point x="453" y="196"/>
      <point x="453" y="583" type="curve" smooth="yes"/>
      <point x="453" y="1376" type="line" smooth="yes"/>
      <point x="453" y="1412"/>
      <point x="472" y="1436"/>
      <point x="507" y="1442" type="curve" smooth="yes"/>
      <point x="689" y="1474" type="line"/>
      <point x="689" y="1562" type="line"/>
      <point x="107" y="1562" type="line"/>
      <point x="107" y="1474" type="line"/>
      <point x="227" y="1444" type="line" smooth="yes"/>
      <point x="262" y="1435"/>
      <point x="279" y="1414"/>
      <point x="279" y="1378" type="curve" smooth="yes"/>
      <point x="279" y="601" type="line" smooth="yes"/>
      <point x="279" y="191"/>
      <point x="442" y="-19"/>
      <point x="826" y="-19" type="curve" smooth="yes"/>
      <point x="969" y="-19"/>
      <point x="1089" y="9"/>
      <point x="1181" y="67" type="curve" smooth="yes"/>
      <point x="1322" y="157"/>
      <point x="1399" y="324"/>
      <point x="1399" y="575" type="curve" smooth="yes"/>
      <point x="1399" y="1377" type="line" smooth="yes"/>
      <point x="1399" y="1413"/>
      <point x="1416" y="1436"/>
      <point x="1451" y="1444" type="curve" smooth="yes"/>
      <point x="1576" y="1474" type="line"/>
      <point x="1576" y="1562" type="line"/>
    </contour>
    <contour>
      <point x="860" y="-170" type="move" name="btm"/>
    </contour>
    <contour>
      <point x="866" y="1700" type="move" name="top"/>
    </contour>
  </outline>
</glyph>
<glyph name="dotlessj" format="1">
  <advance width="641"/>
  <unicode hex="0237"/>
  <outline>
    <contour>
      <point x="404" y="1161" type="line"/>
      <point x="299" y="1157"/>
      <point x="170" y="1143"/>
      <point x="65" y="1109" type="curve"/>
      <point x="65" y="1027" type="line"/>
      <point x="210" y="1009" type="line" smooth="yes"/>
      <point x="246" y="1005"/>
      <point x="265" y="982"/>
      <point x="265" y="945" type="curve" smooth="yes"/>
      <point x="265" y="135" type="line" smooth="yes"/>
      <point x="265" y="-178"/>
      <point x="205" y="-286"/>
      <point x="-36" y="-450" type="curve"/>
      <point x="9" y="-530" type="line"/>
      <point x="102" y="-493"/>
      <point x="200" y="-447"/>
      <point x="277" y="-381" type="curve" smooth="yes"/>
      <point x="395" y="-281"/>
      <point x="430" y="-174"/>
      <point x="430" y="126" type="curve" smooth="yes"/>
      <point x="430" y="1133" type="line"/>
    </contour>
    <contour>
      <point x="280" y="1136" type="move" name="top"/>
    </contour>
  </outline>
</glyph>
<glyph name="apostrophemodifier" format="1">
  <advance width="814"/>
  <unicode hex="02BC"/>
  <outline>
    <contour>
      <point x="531" y="1588" type="curve" smooth="yes"/>
      <point x="531" y="1705"/>
      <point x="462" y="1765"/>
      <point x="393" y="1765" type="curve" smooth="yes"/>
      <point x="327" y="1765"/>
      <point x="275" y="1713"/>
      <point x="275" y="1643" type="curve" smooth="yes"/>
      <point x="275" y="1605"/>
      <point x="290" y="1569"/>
      <point x="332" y="1536" type="curve" smooth="yes"/>
      <point x="346" y="1525"/>
      <point x="364" y="1513"/>
      <point x="364" y="1481" type="curve" smooth="yes"/>
      <point x="364" y="1418"/>
      <point x="304" y="1329"/>
      <point x="227" y="1272" type="curve"/>
      <point x="263" y="1217" type="line"/>
      <point x="431" y="1306"/>
      <point x="531" y="1447"/>
    </contour>
    <contour>
      <point x="382" y="1136" type="move" name="_apostrophe"/>
    </contour>
  </outline>
</glyph>
<glyph name="gravecomb" format="1">
  <advance width="0"/>
  <unicode hex="0300"/>
  <outline>
    <contour>
      <point x="-162" y="1743" type="line"/>
      <point x="-291" y="1636" type="line"/>
      <point x="-216" y="1534"/>
      <point x="-30" y="1368"/>
      <point x="122" y="1263" type="curve"/>
      <point x="182" y="1324" type="line"/>
    </contour>
    <contour>
      <point x="0" y="1136" type="move" name="_top"/>
    </contour>
  </outline>
</glyph>
<glyph name="acutecomb" format="1">
  <advance width="0"/>
  <unicode hex="0301"/>
  <outline>
    <contour>
      <point x="-94" y="1263" type="line"/>
      <point x="58" y="1368"/>
      <point x="254" y="1534"/>
      <point x="329" y="1636" type="curve"/>
      <point x="200" y="1743" type="line"/>
      <point x="-151" y="1321" type="line"/>
    </contour>
    <contour>
      <point x="0" y="1136" type="move" name="_top"/>
    </contour>
  </outline>
</glyph>
<glyph name="tildecomb" format="1">
  <advance width="0"/>
  <unicode hex="0303"/>
  <outline>
    <contour>
      <point x="283" y="1294"/>
      <point x="367" y="1421"/>
      <point x="400" y="1528" type="curve"/>
      <point x="335" y="1565" type="line"/>
      <point x="299" y="1510"/>
      <point x="248" y="1436"/>
      <point x="178" y="1436" type="curve" smooth="yes"/>
      <point x="80" y="1436"/>
      <point x="-7" y="1576"/>
      <point x="-145" y="1576" type="curve" smooth="yes"/>
      <point x="-283" y="1576"/>
      <point x="-367" y="1449"/>
      <point x="-400" y="1342" type="curve"/>
      <point x="-335" y="1305" type="line"/>
      <point x="-299" y="1360"/>
      <point x="-249" y="1434"/>
      <point x="-178" y="1434" type="curve" smooth="yes"/>
      <point x="-80" y="1434"/>
      <point x="7" y="1294"/>
      <point x="145" y="1294" type="curve" smooth="yes"/>
    </contour>
    <contour>
      <point x="0" y="1136" type="move" name="_top"/>
    </contour>
  </outline>
</glyph>
<glyph name="hungarumlautcomb" format="1">
  <advance width="0"/>
  <unicode hex="030B"/>
  <outline>
    <contour>
      <point x="-208" y="1293" type="line"/>
      <point x="-108" y="1387"/>
      <point x="57" y="1580"/>
      <point x="116" y="1700" type="curve"/>
      <point x="-19" y="1780" type="line"/>
      <point x="-268" y="1340" type="line"/>
    </contour>
    <contour>
      <point x="152" y="1293" type="line"/>
      <point x="259" y="1380"/>
      <point x="437" y="1566"/>
      <point x="504" y="1681" type="curve"/>
      <point x="375" y="1770" type="line"/>
      <point x="96" y="1344" type="line"/>
    </contour>
    <contour>
      <point x="0" y="1136" type="move" name="_top"/>
    </contour>
  </outline>
</glyph>
<glyph name="caroncomb" format="1">
  <advance width="0"/>
  <unicode hex="030C"/>
  <outline>
    <contour>
      <point x="303" y="1754" type="line"/>
      <point x="23" y="1467" type="line"/>
      <point x="-282" y="1753" type="line"/>
      <point x="-351" y="1693" type="line"/>
      <point x="-51" y="1300" type="line"/>
      <point x="100" y="1314" type="line"/>
      <point x="368" y="1699" type="line"/>
    </contour>
    <contour>
      <point x="0" y="1136" type="move" name="_top"/>
    </contour>
  </outline>
</glyph>
<glyph name="cedillacomb" format="1">
  <advance width="0"/>
  <unicode hex="0327"/>
  <outline>
    <contour>
      <point x="-40" y="51" type="line"/>
      <point x="-114" y="-169" type="line"/>
      <point x="-45" y="-171"/>
      <point x="27" y="-199"/>
      <point x="27" y="-275" type="curve" smooth="yes"/>
      <point x="27" y="-355"/>
      <point x="-51" y="-426"/>
      <point x="-185" y="-434" type="curve"/>
      <point x="-175" y="-513" type="line"/>
      <point x="-164" y="-513"/>
      <point x="-162" y="-514"/>
      <point x="-144" y="-514" type="curve" smooth="yes"/>
      <point x="41" y="-514"/>
      <point x="195" y="-412"/>
      <point x="195" y="-264" type="curve" smooth="yes"/>
      <point x="195" y="-169"/>
      <point x="131" y="-107"/>
      <point x="49" y="-91" type="curve" smooth="yes"/>
      <point x="30" y="-87"/>
      <point x="10" y="-86"/>
      <point x="1" y="-86" type="curve"/>
      <point x="45" y="51" type="line"/>
    </contour>
    <contour>
      <point x="0" y="0" type="move" name="_btm"/>
    </contour>
  </outline>
</glyph>
<glyph name="ogonekcomb" format="1">
  <advance width="0"/>
  <unicode hex="0328"/>
  <outline>
    <contour>
      <point x="243" y="-439" type="curve"/>
      <point x="209" y="-366" type="line"/>
      <point x="161" y="-388"/>
      <point x="107" y="-398"/>
      <point x="63" y="-398" type="curve" smooth="yes"/>
      <point x="-22" y="-398"/>
      <point x="-83" y="-360"/>
      <point x="-83" y="-279" type="curve" smooth="yes"/>
      <point x="-83" y="-159"/>
      <point x="54" y="-42"/>
      <point x="221" y="15" type="curve"/>
      <point x="116" y="30" type="line"/>
      <point x="47" y="0" type="line" smooth="yes"/>
      <point x="-109" y="-69"/>
      <point x="-244" y="-188"/>
      <point x="-244" y="-327" type="curve" smooth="yes"/>
      <point x="-244" y="-456"/>
      <point x="-134" y="-513"/>
      <point x="-5" y="-513" type="curve" smooth="yes"/>
      <point x="85" y="-513"/>
      <point x="181" y="-485"/>
    </contour>
  </outline>
</glyph>
<glyph name="pi" format="1">
  <advance width="1467"/>
  <unicode hex="03C0"/>
  <outline>
    <contour>
      <point x="634" y="657" type="curve" smooth="yes"/>
      <point x="713" y="1041" type="line"/>
      <point x="603" y="1041" type="line"/>
      <point x="524" y="736" type="line" smooth="yes"/>
      <point x="444" y="426"/>
      <point x="293" y="223"/>
      <point x="132" y="129" type="curve"/>
      <point x="127" y="90" type="line"/>
      <point x="231" y="-26" type="line"/>
      <point x="411" y="99"/>
      <point x="554" y="268"/>
    </contour>
    <contour>
      <point x="1334" y="135" type="curve"/>
      <point x="1288" y="209" type="line"/>
      <point x="1221" y="171"/>
      <point x="1144" y="145"/>
      <point x="1092" y="145" type="curve" smooth="yes"/>
      <point x="1047" y="145"/>
      <point x="1014" y="172"/>
      <point x="1020" y="304" type="curve" smooth="yes"/>
      <point x="1053" y="1041" type="line"/>
      <point x="928" y="1041" type="line"/>
      <point x="861" y="321" type="line" smooth="yes"/>
      <point x="858" y="284"/>
      <point x="857" y="241"/>
      <point x="857" y="221" type="curve" smooth="yes"/>
      <point x="857" y="68"/>
      <point x="914" y="-16"/>
      <point x="1032" y="-16" type="curve" smooth="yes"/>
      <point x="1136" y="-16"/>
      <point x="1255" y="49"/>
    </contour>
    <contour>
      <point x="461" y="965" type="curve" smooth="yes"/>
      <point x="1346" y="965" type="line"/>
      <point x="1391" y="1114" type="line"/>
      <point x="1362" y="1142" type="line"/>
      <point x="478" y="1136" type="line" smooth="yes"/>
      <point x="279" y="1135"/>
      <point x="163" y="1071"/>
      <point x="103" y="836" type="curve"/>
      <point x="180" y="793" type="line"/>
      <point x="256" y="917"/>
      <point x="348" y="965"/>
    </contour>
  </outline>
</glyph>
<glyph name="gjCandrabindu" format="1">
  <advance width="0"/>
  <unicode hex="0A81"/>
  <outline>
    <contour>
      <point x="-559" y="1901" type="line"/>
      <point x="-495" y="1654"/>
      <point x="-332" y="1511"/>
      <point x="-137" y="1511" type="curve" smooth="yes"/>
      <point x="71" y="1511"/>
      <point x="191" y="1677"/>
      <point x="191" y="1897" type="curve"/>
      <point x="71" y="1925" type="line"/>
      <point x="54" y="1913" type="line"/>
      <point x="50" y="1772"/>
      <point x="-16" y="1646"/>
      <point x="-169" y="1646" type="curve" smooth="yes"/>
      <point x="-283" y="1646"/>
      <point x="-400" y="1716"/>
      <point x="-471" y="1933" type="curve"/>
    </contour>
    <contour>
      <point x="-129" y="1817"/>
      <point x="-89" y="1857"/>
      <point x="-89" y="1917" type="curve" smooth="yes"/>
      <point x="-89" y="1980"/>
      <point x="-132" y="2030"/>
      <point x="-190" y="2030" type="curve" smooth="yes"/>
      <point x="-243" y="2030"/>
      <point x="-284" y="1987"/>
      <point x="-284" y="1928" type="curve" smooth="yes"/>
      <point x="-284" y="1866"/>
      <point x="-240" y="1817"/>
      <point x="-182" y="1817" type="curve" smooth="yes"/>
    </contour>
    <contour>
      <point x="-164" y="1340" type="move" name="_abvmBINDU"/>
    </contour>
  </outline>
</glyph>
<glyph name="gjAnusvara" format="1">
  <advance width="0"/>
  <unicode hex="0A82"/>
  <outline>
    <contour>
      <point x="-300" y="1553"/>
      <point x="-257" y="1604"/>
      <point x="-260" y="1671" type="curve" smooth="yes"/>
      <point x="-263" y="1737"/>
      <point x="-311" y="1787"/>
      <point x="-371" y="1787" type="curve" smooth="yes"/>
      <point x="-432" y="1787"/>
      <point x="-475" y="1736"/>
      <point x="-472" y="1669" type="curve" smooth="yes"/>
      <point x="-469" y="1603"/>
      <point x="-421" y="1553"/>
      <point x="-361" y="1553" type="curve" smooth="yes"/>
    </contour>
    <contour>
      <point x="-364" y="1340" type="move" name="_abvmBINDU"/>
    </contour>
  </outline>
</glyph>
<glyph name="gjA" format="1">
  <advance width="2030"/>
  <unicode hex="0A85"/>
  <outline>
    <contour>
      <point x="1010" y="228"/>
      <point x="1214" y="379"/>
      <point x="1214" y="785" type="curve" smooth="yes"/>
      <point x="1214" y="875"/>
      <point x="1204" y="982"/>
      <point x="1184" y="1076" type="curve"/>
      <point x="1036" y="1128" type="line"/>
      <point x="1022" y="1114" type="line"/>
      <point x="1044" y="1007"/>
      <point x="1058" y="883"/>
      <point x="1058" y="789" type="curve" smooth="yes"/>
      <point x="1058" y="483"/>
      <point x="909" y="364"/>
      <point x="738" y="364" type="curve" smooth="yes"/>
      <point x="599" y="364"/>
      <point x="485" y="443"/>
      <point x="404" y="580" type="curve"/>
      <point x="325" y="551" type="line"/>
      <point x="423" y="362"/>
      <point x="570" y="228"/>
      <point x="783" y="228" type="curve" smooth="yes"/>
    </contour>
    <contour>
      <point x="1468" y="547"/>
      <point x="1559" y="564"/>
      <point x="1657" y="634" type="curve"/>
      <point x="1638" y="865" type="line"/>
      <point x="1569" y="740"/>
      <point x="1472" y="679"/>
      <point x="1353" y="679" type="curve" smooth="yes"/>
      <point x="1288" y="679"/>
      <point x="1217" y="697"/>
      <point x="1149" y="768" type="curve"/>
      <point x="1113" y="729" type="line"/>
      <point x="1180" y="625"/>
      <point x="1282" y="547"/>
      <point x="1409" y="547" type="curve" smooth="yes"/>
    </contour>
    <contour>
      <point x="169" y="818"/>
      <point x="130" y="778"/>
      <point x="103" y="730" type="curve" smooth="yes"/>
      <point x="89" y="705" type="line" smooth="yes"/>
      <point x="70" y="671"/>
      <point x="61" y="637"/>
      <point x="61" y="615" type="curve" smooth="yes"/>
      <point x="61" y="547"/>
      <point x="123" y="501"/>
      <point x="249" y="501" type="curve" smooth="yes"/>
      <point x="578" y="501"/>
      <point x="837" y="708"/>
      <point x="837" y="971" type="curve" smooth="yes"/>
      <point x="837" y="1092"/>
      <point x="782" y="1199"/>
      <point x="696" y="1275" type="curve" smooth="yes"/>
      <point x="610" y="1351"/>
      <point x="493" y="1396"/>
      <point x="366" y="1396" type="curve" smooth="yes"/>
      <point x="258" y="1396"/>
      <point x="149" y="1363"/>
      <point x="68" y="1300" type="curve"/>
      <point x="157" y="1168" type="line"/>
      <point x="176" y="1168" type="line"/>
      <point x="266" y="1236"/>
      <point x="382" y="1264"/>
      <point x="463" y="1264" type="curve" smooth="yes"/>
      <point x="598" y="1264"/>
      <point x="684" y="1185"/>
      <point x="684" y="1038" type="curve" smooth="yes"/>
      <point x="684" y="827"/>
      <point x="508" y="659"/>
      <point x="301" y="655" type="curve"/>
      <point x="391" y="631" type="line"/>
      <point x="320" y="789"/>
      <point x="277" y="818"/>
      <point x="218" y="818" type="curve" smooth="yes"/>
    </contour>
    <contour>
      <point x="1863" y="-28"/>
      <point x="1966" y="26"/>
      <point x="2028" y="91" type="curve"/>
      <point x="1964" y="238" type="line"/>
      <point x="1944" y="238" type="line"/>
      <point x="1815" y="111" type="line" smooth="yes"/>
      <point x="1802" y="99"/>
      <point x="1790" y="92"/>
      <point x="1782" y="92" type="curve" smooth="yes"/>
      <point x="1764" y="92"/>
      <point x="1745" y="129"/>
      <point x="1745" y="257" type="curve" smooth="yes"/>
      <point x="1745" y="1337" type="line"/>
      <point x="1607" y="1391" type="line"/>
      <point x="1593" y="1377" type="line"/>
      <point x="1593" y="338" type="line" smooth="yes"/>
      <point x="1593" y="193"/>
      <point x="1613" y="113"/>
      <point x="1666" y="41" type="curve" smooth="yes"/>
      <point x="1705" y="-12"/>
      <point x="1754" y="-28"/>
      <point x="1792" y="-28" type="curve" smooth="yes"/>
    </contour>
    <contour>
      <point x="1666" y="1363" type="move" name="abvmTOP"/>
    </contour>
    <contour>
      <point x="1666" y="0" type="move" name="blwmBOTTOM"/>
    </contour>
    <contour>
      <point x="1666" y="1340" type="move" name="abvmBINDU"/>
    </contour>
  </outline>
</glyph>
<glyph name="gjI" format="1">
  <advance width="1384"/>
  <unicode hex="0A87"/>
  <outline>
    <contour>
      <point x="1011" y="-26"/>
      <point x="1260" y="170"/>
      <point x="1260" y="475" type="curve" smooth="yes"/>
      <point x="1260" y="667"/>
      <point x="1161" y="823"/>
      <point x="1064" y="1003" type="curve" smooth="yes"/>
      <point x="987" y="1146"/>
      <point x="940" y="1259"/>
      <point x="940" y="1361" type="curve" smooth="yes"/>
      <point x="940" y="1446"/>
      <point x="971" y="1530"/>
      <point x="1025" y="1580" type="curve"/>
      <point x="1025" y="1604" type="line"/>
      <point x="888" y="1685" type="line"/>
      <point x="820" y="1617"/>
      <point x="783" y="1534"/>
      <point x="783" y="1428" type="curve" smooth="yes"/>
      <point x="783" y="1259"/>
      <point x="881" y="1118"/>
      <point x="973" y="952" type="curve" smooth="yes"/>
      <point x="1053" y="807"/>
      <point x="1111" y="671"/>
      <point x="1111" y="530" type="curve" smooth="yes"/>
      <point x="1111" y="263"/>
      <point x="897" y="104"/>
      <point x="637" y="104" type="curve" smooth="yes"/>
      <point x="426" y="104"/>
      <point x="317" y="211"/>
      <point x="317" y="360" type="curve" smooth="yes"/>
      <point x="317" y="568"/>
      <point x="531" y="687"/>
      <point x="745" y="700" type="curve"/>
      <point x="759" y="719" type="line"/>
      <point x="689" y="839" type="line"/>
      <point x="459" y="823"/>
      <point x="167" y="678"/>
      <point x="167" y="423" type="curve" smooth="yes"/>
      <point x="167" y="321"/>
      <point x="214" y="209"/>
      <point x="318" y="116" type="curve" smooth="yes"/>
      <point x="406" y="38"/>
      <point x="538" y="-26"/>
      <point x="710" y="-26" type="curve" smooth="yes"/>
    </contour>
    <contour>
      <point x="473" y="762" type="line"/>
      <point x="378" y="832"/>
      <point x="313" y="934"/>
      <point x="313" y="1034" type="curve" smooth="yes"/>
      <point x="313" y="1151"/>
      <point x="402" y="1234"/>
      <point x="570" y="1255" type="curve"/>
      <point x="586" y="1271" type="line"/>
      <point x="525" y="1389" type="line"/>
      <point x="298" y="1368"/>
      <point x="153" y="1241"/>
      <point x="153" y="1072" type="curve" smooth="yes"/>
      <point x="153" y="929"/>
      <point x="257" y="796"/>
      <point x="432" y="701" type="curve"/>
    </contour>
    <contour>
      <point x="402" y="1340" type="move" name="abvmBINDU"/>
    </contour>
  </outline>
</glyph>
<glyph name="gjIi" format="1">
  <advance width="1384"/>
  <unicode hex="0A88"/>
  <outline>
    <contour>
      <point x="1030" y="-26"/>
      <point x="1260" y="188"/>
      <point x="1260" y="473" type="curve" smooth="yes"/>
      <point x="1260" y="652"/>
      <point x="1170" y="777"/>
      <point x="1031" y="966" type="curve" smooth="yes"/>
      <point x="904" y="1139"/>
      <point x="851" y="1255"/>
      <point x="851" y="1354" type="curve" smooth="yes"/>
      <point x="851" y="1485"/>
      <point x="953" y="1574"/>
      <point x="1065" y="1574" type="curve" smooth="yes"/>
      <point x="1116" y="1574"/>
      <point x="1189" y="1557"/>
      <point x="1254" y="1511" type="curve"/>
      <point x="1305" y="1576" type="line"/>
      <point x="1223" y="1666"/>
      <point x="1123" y="1713"/>
      <point x="1014" y="1713" type="curve" smooth="yes"/>
      <point x="820" y="1713"/>
      <point x="700" y="1571"/>
      <point x="700" y="1411" type="curve" smooth="yes"/>
      <point x="700" y="1234"/>
      <point x="847" y="1046"/>
      <point x="927" y="934" type="curve" smooth="yes"/>
      <point x="1037" y="780"/>
      <point x="1103" y="655"/>
      <point x="1103" y="509" type="curve" smooth="yes"/>
      <point x="1103" y="257"/>
      <point x="906" y="100"/>
      <point x="645" y="100" type="curve" smooth="yes"/>
      <point x="431" y="100"/>
      <point x="318" y="205"/>
      <point x="318" y="361" type="curve" smooth="yes"/>
      <point x="318" y="576"/>
      <point x="533" y="689"/>
      <point x="745" y="700" type="curve"/>
      <point x="759" y="719" type="line"/>
      <point x="689" y="839" type="line"/>
      <point x="467" y="823"/>
      <point x="167" y="686"/>
      <point x="167" y="419" type="curve" smooth="yes"/>
      <point x="167" y="285"/>
      <point x="242" y="179"/>
      <point x="319" y="110" type="curve" smooth="yes"/>
      <point x="413" y="26"/>
      <point x="538" y="-26"/>
      <point x="700" y="-26" type="curve" smooth="yes"/>
    </contour>
    <contour>
      <point x="470" y="756" type="line"/>
      <point x="387" y="826"/>
      <point x="313" y="944"/>
      <point x="313" y="1043" type="curve" smooth="yes"/>
      <point x="313" y="1151"/>
      <point x="402" y="1237"/>
      <point x="570" y="1255" type="curve"/>
      <point x="586" y="1271" type="line"/>
      <point x="525" y="1389" type="line"/>
      <point x="298" y="1368"/>
      <point x="153" y="1242"/>
      <point x="153" y="1070" type="curve" smooth="yes"/>
      <point x="153" y="920"/>
      <point x="268" y="811"/>
      <point x="407" y="706" type="curve"/>
    </contour>
    <contour>
      <point x="362" y="1340" type="move" name="abvmBINDU"/>
    </contour>
  </outline>
</glyph>
<glyph name="gjU" format="1">
  <advance width="1525"/>
  <unicode hex="0A89"/>
  <outline>
    <contour>
      <point x="1205" y="-33"/>
      <point x="1368" y="148"/>
      <point x="1368" y="330" type="curve" smooth="yes"/>
      <point x="1368" y="508"/>
      <point x="1212" y="673"/>
      <point x="1029" y="721" type="curve"/>
      <point x="989" y="676" type="line"/>
      <point x="1115" y="607"/>
      <point x="1208" y="497"/>
      <point x="1208" y="371" type="curve" smooth="yes"/>
      <point x="1208" y="226"/>
      <point x="1083" y="101"/>
      <point x="863" y="101" type="curve" smooth="yes"/>
      <point x="491" y="101"/>
      <point x="276" y="459"/>
      <point x="276" y="852" type="curve" smooth="yes"/>
      <point x="276" y="1264"/>
      <point x="512" y="1581"/>
      <point x="913" y="1581" type="curve" smooth="yes"/>
      <point x="1022" y="1581"/>
      <point x="1132" y="1558"/>
      <point x="1259" y="1507" type="curve"/>
      <point x="1293" y="1585" type="line"/>
      <point x="1169" y="1665"/>
      <point x="1011" y="1715"/>
      <point x="841" y="1715" type="curve" smooth="yes"/>
      <point x="368" y="1715"/>
      <point x="118" y="1331"/>
      <point x="118" y="922" type="curve" smooth="yes"/>
      <point x="118" y="634"/>
      <point x="243" y="370"/>
      <point x="411" y="199" type="curve" smooth="yes"/>
      <point x="551" y="56"/>
      <point x="730" y="-33"/>
      <point x="926" y="-33" type="curve" smooth="yes"/>
    </contour>
    <contour>
      <point x="1087" y="606"/>
      <point x="1294" y="766"/>
      <point x="1294" y="966" type="curve" smooth="yes"/>
      <point x="1294" y="1072"/>
      <point x="1236" y="1168"/>
      <point x="1158" y="1235" type="curve" smooth="yes"/>
      <point x="1087" y="1296"/>
      <point x="990" y="1340"/>
      <point x="879" y="1340" type="curve" smooth="yes"/>
      <point x="785" y="1340"/>
      <point x="675" y="1308"/>
      <point x="592" y="1248" type="curve"/>
      <point x="662" y="1121" type="line"/>
      <point x="686" y="1121" type="line"/>
      <point x="775" y="1180"/>
      <point x="873" y="1210"/>
      <point x="954" y="1210" type="curve" smooth="yes"/>
      <point x="1070" y="1210"/>
      <point x="1148" y="1147"/>
      <point x="1148" y="1030" type="curve" smooth="yes"/>
      <point x="1148" y="884"/>
      <point x="1029" y="748"/>
      <point x="737" y="710" type="curve"/>
      <point x="723" y="696" type="line"/>
      <point x="779" y="573" type="line"/>
    </contour>
    <contour>
      <point x="839" y="1657" type="move" name="abvmBINDU"/>
    </contour>
  </outline>
</glyph>
<glyph name="gjUu" format="1">
  <advance width="1979"/>
  <unicode hex="0A8A"/>
  <outline>
    <contour>
      <point x="1087" y="606"/>
      <point x="1294" y="766"/>
      <point x="1294" y="966" type="curve" smooth="yes"/>
      <point x="1294" y="1072"/>
      <point x="1236" y="1168"/>
      <point x="1158" y="1235" type="curve" smooth="yes"/>
      <point x="1087" y="1296"/>
      <point x="990" y="1340"/>
      <point x="879" y="1340" type="curve" smooth="yes"/>
      <point x="785" y="1340"/>
      <point x="675" y="1308"/>
      <point x="592" y="1248" type="curve"/>
      <point x="662" y="1121" type="line"/>
      <point x="686" y="1121" type="line"/>
      <point x="775" y="1180"/>
      <point x="873" y="1210"/>
      <point x="954" y="1210" type="curve" smooth="yes"/>
      <point x="1070" y="1210"/>
      <point x="1148" y="1147"/>
      <point x="1148" y="1030" type="curve" smooth="yes"/>
      <point x="1148" y="884"/>
      <point x="1029" y="748"/>
      <point x="737" y="710" type="curve"/>
      <point x="723" y="696" type="line"/>
      <point x="779" y="573" type="line"/>
    </contour>
    <contour>
      <point x="1704" y="973" type="line" smooth="yes"/>
      <point x="1704" y="1454"/>
      <point x="1296" y="1715"/>
      <point x="878" y="1715" type="curve" smooth="yes"/>
      <point x="370" y="1715"/>
      <point x="118" y="1330"/>
      <point x="118" y="921" type="curve" smooth="yes"/>
      <point x="118" y="637"/>
      <point x="240" y="374"/>
      <point x="411" y="199" type="curve" smooth="yes"/>
      <point x="551" y="56"/>
      <point x="730" y="-33"/>
      <point x="926" y="-33" type="curve" smooth="yes"/>
      <point x="1205" y="-33"/>
      <point x="1368" y="148"/>
      <point x="1368" y="330" type="curve" smooth="yes"/>
      <point x="1368" y="508"/>
      <point x="1212" y="673"/>
      <point x="1029" y="721" type="curve"/>
      <point x="989" y="676" type="line"/>
      <point x="1120" y="604"/>
      <point x="1208" y="493"/>
      <point x="1208" y="371" type="curve" smooth="yes"/>
      <point x="1208" y="226"/>
      <point x="1083" y="101"/>
      <point x="863" y="101" type="curve" smooth="yes"/>
      <point x="488" y="101"/>
      <point x="276" y="466"/>
      <point x="276" y="849" type="curve" smooth="yes"/>
      <point x="276" y="1259"/>
      <point x="519" y="1581"/>
      <point x="939" y="1581" type="curve" smooth="yes"/>
      <point x="1115" y="1581"/>
      <point x="1359" y="1524"/>
      <point x="1472" y="1353" type="curve" smooth="yes"/>
      <point x="1523" y="1276"/>
      <point x="1551" y="1172"/>
      <point x="1551" y="1001" type="curve" smooth="yes"/>
      <point x="1551" y="338" type="line" smooth="yes"/>
      <point x="1551" y="193"/>
      <point x="1571" y="113"/>
      <point x="1624" y="41" type="curve" smooth="yes"/>
      <point x="1663" y="-12"/>
      <point x="1712" y="-28"/>
      <point x="1750" y="-28" type="curve" smooth="yes"/>
      <point x="1821" y="-28"/>
      <point x="1924" y="26"/>
      <point x="1986" y="91" type="curve"/>
      <point x="1922" y="238" type="line"/>
      <point x="1902" y="238" type="line"/>
      <point x="1773" y="111" type="line" smooth="yes"/>
      <point x="1760" y="99"/>
      <point x="1748" y="92"/>
      <point x="1740" y="92" type="curve" smooth="yes"/>
      <point x="1722" y="92"/>
      <point x="1704" y="128"/>
      <point x="1704" y="256" type="curve" smooth="yes"/>
    </contour>
    <contour>
      <point x="952" y="1657" type="move" name="abvmBINDU"/>
    </contour>
  </outline>
</glyph>
<glyph name="gjVocalicR" format="1">
  <advance width="1847"/>
  <unicode hex="0A8B"/>
  <outline>
    <contour>
      <point x="1508" y="746" type="line"/>
      <point x="1529" y="806"/>
      <point x="1549" y="873"/>
      <point x="1549" y="949" type="curve" smooth="yes"/>
      <point x="1549" y="1048"/>
      <point x="1516" y="1088"/>
      <point x="1426" y="1088" type="curve" smooth="yes"/>
      <point x="1398" y="1088"/>
      <point x="1347" y="1084"/>
      <point x="1303" y="1069" type="curve" smooth="yes"/>
      <point x="1256" y="1053"/>
      <point x="1213" y="1023"/>
      <point x="1213" y="966" type="curve" smooth="yes"/>
      <point x="1213" y="902"/>
      <point x="1266" y="842"/>
      <point x="1349" y="776" type="curve"/>
      <point x="1315" y="693"/>
      <point x="1235" y="636"/>
      <point x="1154" y="636" type="curve" smooth="yes"/>
      <point x="1098" y="636"/>
      <point x="1014" y="663"/>
      <point x="940" y="757" type="curve"/>
      <point x="914" y="673" type="line"/>
      <point x="988" y="577"/>
      <point x="1095" y="507"/>
      <point x="1201" y="507" type="curve" smooth="yes"/>
      <point x="1322" y="507"/>
      <point x="1452" y="597"/>
      <point x="1502" y="736" type="curve"/>
      <point x="1436" y="737" type="line"/>
      <point x="1579" y="647"/>
      <point x="1644" y="565"/>
      <point x="1644" y="470" type="curve" smooth="yes"/>
      <point x="1644" y="351"/>
      <point x="1543" y="277"/>
      <point x="1444" y="232" type="curve"/>
      <point x="1524" y="103" type="line"/>
      <point x="1674" y="164"/>
      <point x="1800" y="279"/>
      <point x="1800" y="433" type="curve" smooth="yes"/>
      <point x="1800" y="603"/>
      <point x="1647" y="728"/>
      <point x="1469" y="805" type="curve"/>
    </contour>
    <contour>
      <point x="1088" y="-28"/>
      <point x="1191" y="26"/>
      <point x="1253" y="91" type="curve"/>
      <point x="1189" y="238" type="line"/>
      <point x="1169" y="238" type="line"/>
      <point x="1040" y="111" type="line" smooth="yes"/>
      <point x="1027" y="99"/>
      <point x="1015" y="92"/>
      <point x="1007" y="92" type="curve" smooth="yes"/>
      <point x="989" y="92"/>
      <point x="970" y="129"/>
      <point x="970" y="257" type="curve" smooth="yes"/>
      <point x="970" y="1337" type="line"/>
      <point x="832" y="1391" type="line"/>
      <point x="818" y="1377" type="line"/>
      <point x="818" y="338" type="line" smooth="yes"/>
      <point x="818" y="193"/>
      <point x="838" y="113"/>
      <point x="891" y="41" type="curve" smooth="yes"/>
      <point x="930" y="-12"/>
      <point x="979" y="-28"/>
      <point x="1017" y="-28" type="curve" smooth="yes"/>
    </contour>
    <contour>
      <point x="118" y="881" type="line"/>
      <point x="214" y="955"/>
      <point x="298" y="989"/>
      <point x="371" y="989" type="curve" smooth="yes"/>
      <point x="505" y="989"/>
      <point x="646" y="891"/>
      <point x="836" y="698" type="curve"/>
      <point x="865" y="698" type="line"/>
      <point x="865" y="804" type="line"/>
      <point x="592" y="1056"/>
      <point x="474" y="1137"/>
      <point x="331" y="1137" type="curve" smooth="yes"/>
      <point x="240" y="1137"/>
      <point x="141" y="1104"/>
      <point x="24" y="1015" type="curve"/>
    </contour>
    <contour>
      <point x="865" y="797" type="line"/>
      <point x="811" y="797" type="line"/>
      <point x="195" y="378" type="line"/>
      <point x="289" y="240" type="line"/>
      <point x="865" y="663" type="line"/>
    </contour>
    <contour>
      <point x="893" y="1363" type="move" name="abvmTOP"/>
    </contour>
    <contour>
      <point x="893" y="0" type="move" name="blwmBOTTOM"/>
    </contour>
    <contour>
      <point x="895" y="1340" type="move" name="abvmBINDU"/>
    </contour>
  </outline>
</glyph>
<glyph name="gjVocalicL" format="1">
  <advance width="1579"/>
  <unicode hex="0A8C"/>
  <outline>
    <contour>
      <point x="754" y="753" type="line"/>
      <point x="696" y="900"/>
      <point x="547" y="992"/>
      <point x="402" y="992" type="curve" smooth="yes"/>
      <point x="232" y="992"/>
      <point x="71" y="867"/>
      <point x="71" y="655" type="curve" smooth="yes"/>
      <point x="71" y="455"/>
      <point x="215" y="193"/>
      <point x="565" y="-7" type="curve"/>
      <point x="611" y="63" type="line"/>
      <point x="361" y="234"/>
      <point x="228" y="409"/>
      <point x="228" y="596" type="curve" smooth="yes"/>
      <point x="228" y="773"/>
      <point x="348" y="848"/>
      <point x="455" y="848" type="curve" smooth="yes"/>
      <point x="544" y="848"/>
      <point x="651" y="796"/>
      <point x="717" y="674" type="curve"/>
    </contour>
    <contour>
      <point x="1445" y="222" type="line"/>
      <point x="1399" y="140"/>
      <point x="1324" y="79"/>
      <point x="1250" y="79" type="curve" smooth="yes"/>
      <point x="1192" y="79"/>
      <point x="1144" y="114"/>
      <point x="1144" y="183" type="curve" smooth="yes"/>
      <point x="1144" y="264"/>
      <point x="1207" y="332"/>
      <point x="1260" y="378" type="curve" smooth="yes"/>
      <point x="1387" y="488"/>
      <point x="1457" y="550"/>
      <point x="1457" y="654" type="curve" smooth="yes"/>
      <point x="1457" y="748"/>
      <point x="1403" y="832"/>
      <point x="1308" y="894" type="curve" smooth="yes"/>
      <point x="1251" y="931"/>
      <point x="1156" y="977"/>
      <point x="1042" y="977" type="curve" smooth="yes"/>
      <point x="838" y="977"/>
      <point x="649" y="832"/>
      <point x="649" y="601" type="curve" smooth="yes"/>
      <point x="649" y="557"/>
      <point x="656" y="512"/>
      <point x="665" y="472" type="curve"/>
      <point x="810" y="383" type="line"/>
      <point x="829" y="397" type="line"/>
      <point x="817" y="447"/>
      <point x="807" y="498"/>
      <point x="807" y="550" type="curve" smooth="yes"/>
      <point x="807" y="749"/>
      <point x="954" y="851"/>
      <point x="1107" y="851" type="curve" smooth="yes"/>
      <point x="1233" y="851"/>
      <point x="1303" y="794"/>
      <point x="1303" y="703" type="curve" smooth="yes"/>
      <point x="1303" y="608"/>
      <point x="1215" y="548"/>
      <point x="1132" y="472" type="curve" smooth="yes"/>
      <point x="1079" y="423"/>
      <point x="1003" y="347"/>
      <point x="1003" y="237" type="curve" smooth="yes"/>
      <point x="1003" y="166"/>
      <point x="1038" y="104"/>
      <point x="1093" y="54" type="curve" smooth="yes"/>
      <point x="1159" y="-6"/>
      <point x="1238" y="-33"/>
      <point x="1312" y="-33" type="curve" smooth="yes"/>
      <point x="1415" y="-33"/>
      <point x="1522" y="31"/>
      <point x="1567" y="132" type="curve"/>
      <point x="1457" y="224" type="line"/>
    </contour>
    <contour>
      <point x="1147" y="900" type="line"/>
      <point x="1147" y="1335" type="line"/>
      <point x="1005" y="1389" type="line"/>
      <point x="988" y="1375" type="line"/>
      <point x="988" y="900" type="line"/>
    </contour>
    <contour>
      <point x="1072" y="1340" type="move" name="abvmBINDU"/>
    </contour>
  </outline>
</glyph>
<glyph name="gjE" format="1">
  <advance width="2030"/>
  <unicode hex="0A8F"/>
  <outline>
    <component base="gjA"/>
    <component base="gjMatraE" xOffset="2030"/>
    <contour>
      <point x="1737" y="1551" type="move" name="abvmBINDU"/>
    </contour>
  </outline>
</glyph>
<glyph name="gjCandraO" format="1">
  <advance width="2662"/>
  <unicode hex="0A91"/>
  <outline>
    <component base="gjA"/>
    <component base="gjMatraAa" xOffset="2030"/>
    <component base="gjMatraCandraE" xOffset="2662"/>
    <contour>
      <point x="2298" y="1598" type="move" name="abvmBINDU"/>
    </contour>
  </outline>
</glyph>
<glyph name="gjCha" format="1">
  <advance width="1556"/>
  <unicode hex="0A9B"/>
  <outline>
    <contour>
      <point x="586" y="1271" type="line"/>
      <point x="525" y="1389" type="line"/>
      <point x="298" y="1368"/>
      <point x="153" y="1242"/>
      <point x="153" y="1070" type="curve" smooth="yes"/>
      <point x="153" y="920"/>
      <point x="264" y="815"/>
      <point x="403" y="710" type="curve"/>
      <point x="470" y="756" type="line"/>
      <point x="387" y="826"/>
      <point x="313" y="944"/>
      <point x="313" y="1043" type="curve" smooth="yes"/>
      <point x="313" y="1151"/>
      <point x="402" y="1237"/>
      <point x="570" y="1255" type="curve"/>
    </contour>
    <contour>
      <point x="1328" y="767" type="line"/>
      <point x="1118" y="777"/>
      <point x="930" y="862"/>
      <point x="930" y="1059" type="curve" smooth="yes"/>
      <point x="930" y="1190"/>
      <point x="1015" y="1272"/>
      <point x="1108" y="1272" type="curve" smooth="yes"/>
      <point x="1237" y="1272"/>
      <point x="1294" y="1123"/>
      <point x="1294" y="910" type="curve" smooth="yes"/>
      <point x="1294" y="464"/>
      <point x="1022" y="93"/>
      <point x="641" y="93" type="curve" smooth="yes"/>
      <point x="441" y="93"/>
      <point x="318" y="181"/>
      <point x="318" y="353" type="curve" smooth="yes"/>
      <point x="318" y="577"/>
      <point x="526" y="687"/>
      <point x="745" y="700" type="curve"/>
      <point x="759" y="719" type="line"/>
      <point x="689" y="839" type="line"/>
      <point x="460" y="821"/>
      <point x="167" y="688"/>
      <point x="167" y="413" type="curve" smooth="yes"/>
      <point x="167" y="287"/>
      <point x="228" y="178"/>
      <point x="323" y="98" type="curve" smooth="yes"/>
      <point x="412" y="23"/>
      <point x="539" y="-33"/>
      <point x="698" y="-33" type="curve" smooth="yes"/>
      <point x="1133" y="-33"/>
      <point x="1438" y="384"/>
      <point x="1438" y="834" type="curve" smooth="yes"/>
      <point x="1438" y="1180"/>
      <point x="1258" y="1396"/>
      <point x="1056" y="1396" type="curve" smooth="yes"/>
      <point x="902" y="1396"/>
      <point x="769" y="1271"/>
      <point x="769" y="1089" type="curve" smooth="yes"/>
      <point x="769" y="870"/>
      <point x="960" y="678"/>
      <point x="1326" y="678" type="curve"/>
    </contour>
    <contour>
      <point x="670" y="24" type="move" name="blwmRUKAR"/>
    </contour>
    <contour>
      <point x="729" y="-308" type="move" name="blwmNUKTA"/>
    </contour>
    <contour>
      <point x="792" y="1340" type="move" name="abvmBINDU"/>
    </contour>
    <contour>
      <point x="1083" y="1363" type="move" name="abvmTOP"/>
    </contour>
    <contour>
      <point x="729" y="0" type="move" name="blwmBOTTOM"/>
    </contour>
    <contour>
      <point x="118" y="-33" type="move" name="blwmNUKTA2"/>
    </contour>
  </outline>
</glyph>
<glyph name="gjTta" format="1">
  <advance width="1177"/>
  <unicode hex="0A9F"/>
  <outline>
    <contour>
      <point x="837" y="-33"/>
      <point x="1024" y="39"/>
      <point x="1142" y="186" type="curve"/>
      <point x="1041" y="296" type="line"/>
      <point x="1022" y="296" type="line"/>
      <point x="909" y="174"/>
      <point x="741" y="100"/>
      <point x="570" y="100" type="curve" smooth="yes"/>
      <point x="360" y="100"/>
      <point x="237" y="212"/>
      <point x="237" y="359" type="curve" smooth="yes"/>
      <point x="237" y="514"/>
      <point x="373" y="581"/>
      <point x="604" y="684" type="curve" smooth="yes"/>
      <point x="766" y="756"/>
      <point x="994" y="859"/>
      <point x="994" y="1052" type="curve" smooth="yes"/>
      <point x="994" y="1135"/>
      <point x="952" y="1224"/>
      <point x="872" y="1291" type="curve" smooth="yes"/>
      <point x="805" y="1347"/>
      <point x="700" y="1396"/>
      <point x="558" y="1396" type="curve" smooth="yes"/>
      <point x="459" y="1396"/>
      <point x="329" y="1372"/>
      <point x="219" y="1307" type="curve"/>
      <point x="282" y="1159" type="line"/>
      <point x="301" y="1159" type="line"/>
      <point x="398" y="1215"/>
      <point x="513" y="1268"/>
      <point x="642" y="1268" type="curve" smooth="yes"/>
      <point x="776" y="1268"/>
      <point x="841" y="1211"/>
      <point x="841" y="1113" type="curve" smooth="yes"/>
      <point x="841" y="954"/>
      <point x="668" y="877"/>
      <point x="508" y="806" type="curve" smooth="yes"/>
      <point x="282" y="706"/>
      <point x="82" y="617"/>
      <point x="82" y="405" type="curve" smooth="yes"/>
      <point x="82" y="281"/>
      <point x="150" y="179"/>
      <point x="258" y="96" type="curve" smooth="yes"/>
      <point x="348" y="27"/>
      <point x="470" y="-33"/>
      <point x="645" y="-33" type="curve" smooth="yes"/>
    </contour>
    <contour>
      <point x="674" y="24" type="move" name="blwmRUKAR"/>
    </contour>
    <contour>
      <point x="619" y="-308" type="move" name="blwmNUKTA"/>
    </contour>
    <contour>
      <point x="623" y="1340" type="move" name="abvmBINDU"/>
    </contour>
    <contour>
      <point x="778" y="1363" type="move" name="abvmTOP"/>
    </contour>
    <contour>
      <point x="639" y="0" type="move" name="blwmBOTTOM"/>
    </contour>
    <contour>
      <point x="5" y="0" type="move" name="blwmNUKTA2"/>
    </contour>
  </outline>
</glyph>
<glyph name="gjDdha" format="1">
  <advance width="1288"/>
  <unicode hex="0AA2"/>
  <outline>
    <contour>
      <point x="1093" y="179"/>
      <point x="812" y="95"/>
      <point x="618" y="95" type="curve" smooth="yes"/>
      <point x="363" y="95"/>
      <point x="232" y="201"/>
      <point x="232" y="368" type="curve" smooth="yes"/>
      <point x="232" y="557"/>
      <point x="401" y="639"/>
      <point x="618" y="740" type="curve" smooth="yes"/>
      <point x="856" y="851"/>
      <point x="1036" y="935"/>
      <point x="1036" y="1087" type="curve" smooth="yes"/>
      <point x="1036" y="1166"/>
      <point x="988" y="1247"/>
      <point x="904" y="1307" type="curve" smooth="yes"/>
      <point x="830" y="1360"/>
      <point x="730" y="1396"/>
      <point x="596" y="1396" type="curve" smooth="yes"/>
      <point x="480" y="1396"/>
      <point x="347" y="1369"/>
      <point x="242" y="1309" type="curve"/>
      <point x="306" y="1159" type="line"/>
      <point x="324" y="1159" type="line"/>
      <point x="425" y="1220"/>
      <point x="563" y="1267"/>
      <point x="689" y="1267" type="curve" smooth="yes"/>
      <point x="813" y="1267"/>
      <point x="877" y="1222"/>
      <point x="877" y="1139" type="curve" smooth="yes"/>
      <point x="877" y="1020"/>
      <point x="743" y="959"/>
      <point x="524" y="860" type="curve" smooth="yes"/>
      <point x="281" y="750"/>
      <point x="82" y="631"/>
      <point x="82" y="424" type="curve" smooth="yes"/>
      <point x="82" y="310"/>
      <point x="143" y="187"/>
      <point x="247" y="101" type="curve" smooth="yes"/>
      <point x="340" y="24"/>
      <point x="478" y="-33"/>
      <point x="668" y="-33" type="curve" smooth="yes"/>
      <point x="970" y="-33"/>
      <point x="1234" y="111"/>
      <point x="1234" y="320" type="curve" smooth="yes"/>
      <point x="1234" y="490"/>
      <point x="1068" y="611"/>
      <point x="907" y="611" type="curve" smooth="yes"/>
      <point x="757" y="611"/>
      <point x="641" y="505"/>
      <point x="641" y="349" type="curve" smooth="yes"/>
      <point x="641" y="264"/>
      <point x="676" y="183"/>
      <point x="730" y="110" type="curve"/>
      <point x="719" y="71" type="line"/>
      <point x="846" y="71" type="line"/>
      <point x="805" y="143"/>
      <point x="785" y="224"/>
      <point x="785" y="284" type="curve" smooth="yes"/>
      <point x="785" y="408"/>
      <point x="870" y="486"/>
      <point x="968" y="486" type="curve" smooth="yes"/>
      <point x="1038" y="486"/>
      <point x="1093" y="452"/>
      <point x="1093" y="367" type="curve" smooth="yes"/>
    </contour>
    <contour>
      <point x="682" y="24" type="move" name="blwmRUKAR"/>
    </contour>
    <contour>
      <point x="660" y="-308" type="move" name="blwmNUKTA"/>
    </contour>
    <contour>
      <point x="642" y="1340" type="move" name="abvmBINDU"/>
    </contour>
    <contour>
      <point x="808" y="1363" type="move" name="abvmTOP"/>
    </contour>
    <contour>
      <point x="670" y="0" type="move" name="blwmBOTTOM"/>
    </contour>
    <contour>
      <point x="-45" y="0" type="move" name="blwmNUKTA2"/>
    </contour>
  </outline>
</glyph>
<glyph name="gjDa" format="1">
  <advance width="1100"/>
  <unicode hex="0AA6"/>
  <outline>
    <contour>
      <point x="853" y="-26"/>
      <point x="1016" y="42"/>
      <point x="1125" y="151" type="curve"/>
      <point x="1027" y="277" type="line"/>
      <point x="1007" y="273" type="line"/>
      <point x="902" y="162"/>
      <point x="744" y="102"/>
      <point x="621" y="102" type="curve" smooth="yes"/>
      <point x="454" y="102"/>
      <point x="329" y="184"/>
      <point x="329" y="333" type="curve" smooth="yes"/>
      <point x="329" y="528"/>
      <point x="531" y="635"/>
      <point x="758" y="652" type="curve"/>
      <point x="772" y="671" type="line"/>
      <point x="702" y="791" type="line"/>
      <point x="470" y="773"/>
      <point x="175" y="631"/>
      <point x="175" y="384" type="curve" smooth="yes"/>
      <point x="175" y="276"/>
      <point x="243" y="172"/>
      <point x="337" y="95" type="curve" smooth="yes"/>
      <point x="439" y="11"/>
      <point x="555" y="-26"/>
      <point x="677" y="-26" type="curve" smooth="yes"/>
    </contour>
    <contour>
      <point x="488" y="721" type="line"/>
      <point x="392" y="797"/>
      <point x="313" y="896"/>
      <point x="313" y="993" type="curve" smooth="yes"/>
      <point x="313" y="1108"/>
      <point x="439" y="1143"/>
      <point x="513" y="1167" type="curve" smooth="yes"/>
      <point x="623" y="1204"/>
      <point x="690" y="1241"/>
      <point x="690" y="1309" type="curve" smooth="yes"/>
      <point x="690" y="1356"/>
      <point x="658" y="1400"/>
      <point x="616" y="1442" type="curve"/>
      <point x="563" y="1424" type="line"/>
      <point x="557" y="1334"/>
      <point x="544" y="1329"/>
      <point x="376" y="1269" type="curve" smooth="yes"/>
      <point x="217" y="1214"/>
      <point x="153" y="1134"/>
      <point x="153" y="1027" type="curve" smooth="yes"/>
      <point x="153" y="880"/>
      <point x="272" y="765"/>
      <point x="437" y="662" type="curve"/>
    </contour>
    <contour>
      <point x="787" y="54" type="move" name="blwmRUKAR"/>
    </contour>
    <contour>
      <point x="652" y="-308" type="move" name="blwmNUKTA"/>
    </contour>
    <contour>
      <point x="576" y="1340" type="move" name="abvmBINDU"/>
    </contour>
    <contour>
      <point x="679" y="1363" type="move" name="abvmTOP"/>
    </contour>
    <contour>
      <point x="689" y="0" type="move" name="blwmBOTTOM"/>
    </contour>
    <contour>
      <point x="111" y="-36" type="move" name="blwmNUKTA2"/>
    </contour>
  </outline>
</glyph>
<glyph name="gjRa" format="1">
  <advance width="1116"/>
  <unicode hex="0AB0"/>
  <outline>
    <contour>
      <point x="575" y="429"/>
      <point x="967" y="661"/>
      <point x="967" y="964" type="curve" smooth="yes"/>
      <point x="967" y="1082"/>
      <point x="907" y="1199"/>
      <point x="806" y="1282" type="curve" smooth="yes"/>
      <point x="727" y="1347"/>
      <point x="619" y="1395"/>
      <point x="488" y="1395" type="curve" smooth="yes"/>
      <point x="355" y="1395"/>
      <point x="230" y="1346"/>
      <point x="157" y="1285" type="curve"/>
      <point x="249" y="1149" type="line"/>
      <point x="268" y="1149" type="line"/>
      <point x="359" y="1215"/>
      <point x="466" y="1261"/>
      <point x="577" y="1261" type="curve" smooth="yes"/>
      <point x="735" y="1261"/>
      <point x="821" y="1168"/>
      <point x="821" y="1035" type="curve" smooth="yes"/>
      <point x="821" y="856"/>
      <point x="649" y="656"/>
      <point x="358" y="590" type="curve"/>
      <point x="404" y="561" type="line"/>
      <point x="370" y="732"/>
      <point x="332" y="786"/>
      <point x="268" y="786" type="curve" smooth="yes"/>
      <point x="214" y="786"/>
      <point x="180" y="748"/>
      <point x="152" y="701" type="curve" smooth="yes"/>
      <point x="134" y="671" type="line" smooth="yes"/>
      <point x="103" y="619"/>
      <point x="88" y="575"/>
      <point x="88" y="541" type="curve" smooth="yes"/>
      <point x="88" y="464"/>
      <point x="164" y="429"/>
      <point x="279" y="429" type="curve" smooth="yes"/>
    </contour>
    <contour>
      <point x="868" y="-33"/>
      <point x="950" y="-19"/>
      <point x="1019" y="9" type="curve"/>
      <point x="1029" y="26" type="line"/>
      <point x="982" y="176" type="line"/>
      <point x="927" y="152"/>
      <point x="851" y="132"/>
      <point x="775" y="132" type="curve" smooth="yes"/>
      <point x="633" y="132"/>
      <point x="448" y="196"/>
      <point x="401" y="522" type="curve"/>
      <point x="319" y="494" type="line"/>
      <point x="343" y="190"/>
      <point x="518" y="-33"/>
      <point x="798" y="-33" type="curve" smooth="yes"/>
    </contour>
    <contour>
      <point x="290" y="-58" type="move" name="blwmNUKTA"/>
    </contour>
    <contour>
      <point x="557" y="1340" type="move" name="abvmBINDU"/>
    </contour>
    <contour>
      <point x="721" y="1363" type="move" name="abvmTOP"/>
    </contour>
    <contour>
      <point x="693" y="0" type="move" name="blwmBOTTOM"/>
    </contour>
    <contour>
      <point x="764" y="24" type="move" name="blwmRUKAR"/>
    </contour>
  </outline>
</glyph>
<glyph name="gjNukta" format="1">
  <advance width="0"/>
  <unicode hex="0ABC"/>
  <outline>
    <contour>
      <point x="-161" y="-249"/>
      <point x="-215" y="-186"/>
      <point x="-286" y="-186" type="curve" smooth="yes"/>
      <point x="-347" y="-186"/>
      <point x="-394" y="-233"/>
      <point x="-394" y="-293" type="curve" smooth="yes"/>
      <point x="-394" y="-362"/>
      <point x="-340" y="-425"/>
      <point x="-269" y="-425" type="curve" smooth="yes"/>
      <point x="-208" y="-425"/>
      <point x="-161" y="-378"/>
      <point x="-161" y="-318" type="curve" smooth="yes"/>
    </contour>
    <contour>
      <point x="-278" y="-308" type="move" name="_blwmNUKTA"/>
    </contour>
  </outline>
</glyph>
<glyph name="gjMatraU" format="1">
  <advance width="0"/>
  <unicode hex="0AC1"/>
  <outline>
    <contour>
      <point x="-26" y="-707"/>
      <point x="85" y="-579"/>
      <point x="85" y="-454" type="curve" smooth="yes"/>
      <point x="85" y="-369"/>
      <point x="34" y="-290"/>
      <point x="-38" y="-236" type="curve" smooth="yes"/>
      <point x="-94" y="-194"/>
      <point x="-169" y="-162"/>
      <point x="-254" y="-162" type="curve" smooth="yes"/>
      <point x="-329" y="-162"/>
      <point x="-416" y="-187"/>
      <point x="-503" y="-258" type="curve"/>
      <point x="-412" y="-382" type="line"/>
      <point x="-393" y="-382" type="line"/>
      <point x="-325" y="-314"/>
      <point x="-252" y="-287"/>
      <point x="-189" y="-287" type="curve" smooth="yes"/>
      <point x="-101" y="-287"/>
      <point x="-63" y="-340"/>
      <point x="-63" y="-399" type="curve" smooth="yes"/>
      <point x="-63" y="-494"/>
      <point x="-162" y="-562"/>
      <point x="-291" y="-562" type="curve" smooth="yes"/>
      <point x="-420" y="-562"/>
      <point x="-633" y="-495"/>
      <point x="-846" y="-230" type="curve"/>
      <point x="-918" y="-287" type="line"/>
      <point x="-718" y="-570"/>
      <point x="-452" y="-707"/>
      <point x="-235" y="-707" type="curve" smooth="yes"/>
    </contour>
    <contour>
      <point x="-364" y="0" type="move" name="_blwmBOTTOM"/>
    </contour>
  </outline>
</glyph>
<glyph name="gjVirama" format="1">
  <advance width="0"/>
  <unicode hex="0ACD"/>
  <outline>
    <contour>
      <point x="-92" y="-310" type="line" smooth="yes"/>
      <point x="-221" y="-198"/>
      <point x="-316" y="-157"/>
      <point x="-406" y="-157" type="curve" smooth="yes"/>
      <point x="-466" y="-157"/>
      <point x="-510" y="-179"/>
      <point x="-542" y="-195" type="curve"/>
      <point x="-486" y="-346" type="line"/>
      <point x="-447" y="-332"/>
      <point x="-406" y="-324"/>
      <point x="-367" y="-324" type="curve" smooth="yes"/>
      <point x="-284" y="-324"/>
      <point x="-209" y="-364"/>
      <point x="-127" y="-430" type="curve" smooth="yes"/>
      <point x="102" y="-613" type="line"/>
      <point x="165" y="-533" type="line"/>
    </contour>
    <contour>
      <point x="-364" y="0" type="move" name="_blwmBOTTOM"/>
    </contour>
  </outline>
</glyph>
<glyph name="gjOm" format="1">
  <advance width="2301"/>
  <unicode hex="0AD0"/>
  <outline>
    <contour>
      <point x="522" y="1323"/>
      <point x="389" y="1277"/>
      <point x="279" y="1173" type="curve"/>
      <point x="368" y="1040" type="line"/>
      <point x="389" y="1040" type="line"/>
      <point x="501" y="1147"/>
      <point x="617" y="1195"/>
      <point x="719" y="1195" type="curve" smooth="yes"/>
      <point x="833" y="1195"/>
      <point x="898" y="1135"/>
      <point x="898" y="1029" type="curve" smooth="yes"/>
      <point x="898" y="883"/>
      <point x="775" y="773"/>
      <point x="483" y="711" type="curve"/>
      <point x="472" y="692" type="line"/>
      <point x="528" y="574" type="line"/>
      <point x="607" y="584"/>
      <point x="714" y="609"/>
      <point x="784" y="642" type="curve"/>
      <point x="880" y="592"/>
      <point x="956" y="496"/>
      <point x="956" y="377" type="curve" smooth="yes"/>
      <point x="956" y="233"/>
      <point x="846" y="120"/>
      <point x="673" y="120" type="curve" smooth="yes"/>
      <point x="475" y="120"/>
      <point x="313" y="269"/>
      <point x="192" y="553" type="curve"/>
      <point x="112" y="516" type="line"/>
      <point x="251" y="149"/>
      <point x="463" y="-24"/>
      <point x="720" y="-24" type="curve" smooth="yes"/>
      <point x="981" y="-24"/>
      <point x="1114" y="155"/>
      <point x="1114" y="315" type="curve" smooth="yes"/>
      <point x="1114" y="464"/>
      <point x="998" y="617"/>
      <point x="825" y="718" type="curve"/>
      <point x="850" y="676" type="line"/>
      <point x="975" y="733"/>
      <point x="1048" y="846"/>
      <point x="1048" y="971" type="curve" smooth="yes"/>
      <point x="1048" y="1080"/>
      <point x="993" y="1160"/>
      <point x="935" y="1214" type="curve" smooth="yes"/>
      <point x="860" y="1284"/>
      <point x="765" y="1323"/>
      <point x="649" y="1323" type="curve" smooth="yes"/>
    </contour>
    <contour>
      <point x="1590" y="1043"/>
      <point x="1499" y="940"/>
      <point x="1411" y="792" type="curve" smooth="yes"/>
      <point x="1321" y="640"/>
      <point x="1258" y="548"/>
      <point x="1131" y="548" type="curve" smooth="yes"/>
      <point x="1000" y="548"/>
      <point x="912" y="660"/>
      <point x="849" y="757" type="curve"/>
      <point x="794" y="691" type="line"/>
      <point x="1081" y="444" type="line"/>
      <point x="1097" y="458" type="line"/>
      <point x="1135" y="421"/>
      <point x="1180" y="407"/>
      <point x="1229" y="407" type="curve" smooth="yes"/>
      <point x="1523" y="407"/>
      <point x="1526" y="907"/>
      <point x="1809" y="907" type="curve" smooth="yes"/>
      <point x="1939" y="907"/>
      <point x="2005" y="801"/>
      <point x="2005" y="651" type="curve" smooth="yes"/>
      <point x="2005" y="459"/>
      <point x="1896" y="285"/>
      <point x="1729" y="285" type="curve" smooth="yes"/>
      <point x="1594" y="285"/>
      <point x="1490" y="397"/>
      <point x="1448" y="594" type="curve"/>
      <point x="1368" y="551" type="line"/>
      <point x="1422" y="308"/>
      <point x="1583" y="136"/>
      <point x="1786" y="136" type="curve" smooth="yes"/>
      <point x="2002" y="136"/>
      <point x="2148" y="330"/>
      <point x="2148" y="575" type="curve" smooth="yes"/>
      <point x="2148" y="713"/>
      <point x="2101" y="819"/>
      <point x="2033" y="898" type="curve" smooth="yes"/>
      <point x="1964" y="978"/>
      <point x="1864" y="1043"/>
      <point x="1743" y="1043" type="curve" smooth="yes"/>
    </contour>
    <contour>
      <point x="994" y="1509" type="line"/>
      <point x="1058" y="1262"/>
      <point x="1221" y="1119"/>
      <point x="1416" y="1119" type="curve" smooth="yes"/>
      <point x="1624" y="1119"/>
      <point x="1744" y="1285"/>
      <point x="1744" y="1505" type="curve"/>
      <point x="1624" y="1533" type="line"/>
      <point x="1607" y="1521" type="line"/>
      <point x="1603" y="1380"/>
      <point x="1537" y="1254"/>
      <point x="1384" y="1254" type="curve" smooth="yes"/>
      <point x="1270" y="1254"/>
      <point x="1153" y="1324"/>
      <point x="1082" y="1541" type="curve"/>
    </contour>
    <contour>
      <point x="1424" y="1425"/>
      <point x="1464" y="1465"/>
      <point x="1464" y="1525" type="curve" smooth="yes"/>
      <point x="1464" y="1588"/>
      <point x="1421" y="1638"/>
      <point x="1363" y="1638" type="curve" smooth="yes"/>
      <point x="1310" y="1638"/>
      <point x="1269" y="1595"/>
      <point x="1269" y="1536" type="curve" smooth="yes"/>
      <point x="1269" y="1474"/>
      <point x="1313" y="1425"/>
      <point x="1371" y="1425" type="curve" smooth="yes"/>
    </contour>
    <contour>
      <point x="1389" y="948" type="move" name="_abvmBINDU"/>
    </contour>
  </outline>
</glyph>
<glyph name="gjOne" format="1">
  <advance width="984"/>
  <unicode hex="0AE7"/>
  <outline>
    <contour>
      <point x="818" y="-28"/>
      <point x="922" y="26"/>
      <point x="984" y="91" type="curve"/>
      <point x="920" y="238" type="line"/>
      <point x="900" y="238" type="line"/>
      <point x="771" y="111" type="line" smooth="yes"/>
      <point x="758" y="99"/>
      <point x="746" y="92"/>
      <point x="738" y="92" type="curve" smooth="yes"/>
      <point x="720" y="92"/>
      <point x="701" y="129"/>
      <point x="701" y="257" type="curve" smooth="yes"/>
      <point x="701" y="950" type="line" smooth="yes"/>
      <point x="701" y="1074"/>
      <point x="669" y="1182"/>
      <point x="593" y="1266" type="curve" smooth="yes"/>
      <point x="522" y="1345"/>
      <point x="418" y="1396"/>
      <point x="316" y="1396" type="curve" smooth="yes"/>
      <point x="164" y="1396"/>
      <point x="24" y="1282"/>
      <point x="24" y="1110" type="curve" smooth="yes"/>
      <point x="24" y="1004"/>
      <point x="77" y="907"/>
      <point x="142" y="838" type="curve" smooth="yes"/>
      <point x="208" y="768"/>
      <point x="310" y="701"/>
      <point x="447" y="701" type="curve" smooth="yes"/>
      <point x="485" y="701"/>
      <point x="539" y="706"/>
      <point x="596" y="721" type="curve"/>
      <point x="596" y="918" type="line"/>
      <point x="531" y="856"/>
      <point x="450" y="834"/>
      <point x="379" y="834" type="curve" smooth="yes"/>
      <point x="237" y="834"/>
      <point x="173" y="922"/>
      <point x="173" y="1038" type="curve" smooth="yes"/>
      <point x="173" y="1170"/>
      <point x="262" y="1260"/>
      <point x="383" y="1260" type="curve" smooth="yes"/>
      <point x="497" y="1260"/>
      <point x="549" y="1185"/>
      <point x="549" y="1032" type="curve" smooth="yes"/>
      <point x="549" y="338" type="line" smooth="yes"/>
      <point x="549" y="220"/>
      <point x="566" y="110"/>
      <point x="621" y="40" type="curve" smooth="yes"/>
      <point x="658" y="-7"/>
      <point x="706" y="-28"/>
      <point x="749" y="-28" type="curve" smooth="yes"/>
    </contour>
  </outline>
</glyph>
<glyph name="gjTwo" format="1">
  <advance width="1094"/>
  <unicode hex="0AE8"/>
  <outline>
    <contour>
      <point x="581" y="489"/>
      <point x="962" y="695"/>
      <point x="962" y="964" type="curve" smooth="yes"/>
      <point x="962" y="1082"/>
      <point x="904" y="1199"/>
      <point x="806" y="1282" type="curve" smooth="yes"/>
      <point x="727" y="1347"/>
      <point x="619" y="1395"/>
      <point x="488" y="1395" type="curve" smooth="yes"/>
      <point x="361" y="1395"/>
      <point x="242" y="1346"/>
      <point x="172" y="1285" type="curve"/>
      <point x="264" y="1149" type="line"/>
      <point x="283" y="1149" type="line"/>
      <point x="370" y="1215"/>
      <point x="471" y="1261"/>
      <point x="577" y="1261" type="curve" smooth="yes"/>
      <point x="732" y="1261"/>
      <point x="816" y="1168"/>
      <point x="816" y="1035" type="curve" smooth="yes"/>
      <point x="816" y="878"/>
      <point x="651" y="707"/>
      <point x="373" y="650" type="curve"/>
      <point x="419" y="621" type="line"/>
      <point x="385" y="792"/>
      <point x="347" y="846"/>
      <point x="283" y="846" type="curve" smooth="yes"/>
      <point x="229" y="846"/>
      <point x="195" y="808"/>
      <point x="167" y="761" type="curve" smooth="yes"/>
      <point x="149" y="731" type="line" smooth="yes"/>
      <point x="118" y="679"/>
      <point x="103" y="635"/>
      <point x="103" y="601" type="curve" smooth="yes"/>
      <point x="103" y="524"/>
      <point x="179" y="489"/>
      <point x="294" y="489" type="curve" smooth="yes"/>
    </contour>
    <contour>
      <point x="883" y="-29"/>
      <point x="965" y="-15"/>
      <point x="1034" y="13" type="curve"/>
      <point x="1044" y="30" type="line"/>
      <point x="997" y="180" type="line"/>
      <point x="942" y="156"/>
      <point x="866" y="136"/>
      <point x="790" y="136" type="curve" smooth="yes"/>
      <point x="648" y="136"/>
      <point x="461" y="230"/>
      <point x="416" y="582" type="curve"/>
      <point x="334" y="554" type="line"/>
      <point x="358" y="219"/>
      <point x="533" y="-29"/>
      <point x="813" y="-29" type="curve" smooth="yes"/>
    </contour>
  </outline>
</glyph>
<glyph name="gjFour" format="1">
  <advance width="1165"/>
  <unicode hex="0AEA"/>
  <outline>
    <contour>
      <point x="684" y="106"/>
      <point x="754" y="216"/>
      <point x="754" y="391" type="curve" smooth="yes"/>
      <point x="754" y="728"/>
      <point x="497" y="1026"/>
      <point x="-31" y="1257" type="curve"/>
      <point x="-35" y="1275" type="line"/>
      <point x="56" y="1396" type="line"/>
      <point x="280" y="1281"/>
      <point x="501" y="1096"/>
      <point x="674" y="881" type="curve" smooth="yes"/>
      <point x="781" y="748"/>
      <point x="902" y="554"/>
      <point x="902" y="324" type="curve" smooth="yes"/>
      <point x="902" y="145"/>
      <point x="799" y="-30"/>
      <point x="622" y="-30" type="curve" smooth="yes"/>
      <point x="516" y="-30"/>
      <point x="432" y="33"/>
      <point x="376" y="98" type="curve" smooth="yes"/>
      <point x="319" y="164"/>
      <point x="261" y="267"/>
      <point x="261" y="395" type="curve" smooth="yes"/>
      <point x="261" y="538"/>
      <point x="334" y="695"/>
      <point x="526" y="893" type="curve" smooth="yes"/>
      <point x="1011" y="1395" type="line"/>
      <point x="1029" y="1395" type="line"/>
      <point x="1130" y="1285" type="line"/>
      <point x="623" y="761" type="line" smooth="yes"/>
      <point x="487" y="621"/>
      <point x="411" y="486"/>
      <point x="411" y="332" type="curve" smooth="yes"/>
      <point x="411" y="228"/>
      <point x="446" y="106"/>
      <point x="568" y="106" type="curve" smooth="yes"/>
    </contour>
  </outline>
</glyph>
<glyph name="gjSeven" format="1">
  <advance width="1328"/>
  <unicode hex="0AED"/>
  <outline>
    <contour>
      <point x="990" y="-29"/>
      <point x="1210" y="252"/>
      <point x="1210" y="612" type="curve" smooth="yes"/>
      <point x="1210" y="972"/>
      <point x="994" y="1396"/>
      <point x="631" y="1396" type="curve" smooth="yes"/>
      <point x="439" y="1396"/>
      <point x="306" y="1260"/>
      <point x="306" y="1096" type="curve" smooth="yes"/>
      <point x="306" y="987"/>
      <point x="363" y="893"/>
      <point x="428" y="829" type="curve" smooth="yes"/>
      <point x="496" y="762"/>
      <point x="581" y="719"/>
      <point x="677" y="719" type="curve" smooth="yes"/>
      <point x="827" y="719"/>
      <point x="944" y="824"/>
      <point x="944" y="1004" type="curve" smooth="yes"/>
      <point x="944" y="1044"/>
      <point x="938" y="1084"/>
      <point x="926" y="1125" type="curve"/>
      <point x="970" y="1159" type="line"/>
      <point x="776" y="1278" type="line"/>
      <point x="811" y="1209"/>
      <point x="820" y="1147"/>
      <point x="820" y="1081" type="curve" smooth="yes"/>
      <point x="820" y="934"/>
      <point x="728" y="857"/>
      <point x="622" y="857" type="curve" smooth="yes"/>
      <point x="520" y="857"/>
      <point x="462" y="929"/>
      <point x="462" y="1029" type="curve" smooth="yes"/>
      <point x="462" y="1152"/>
      <point x="551" y="1260"/>
      <point x="697" y="1260" type="curve" smooth="yes"/>
      <point x="945" y="1260"/>
      <point x="1050" y="948"/>
      <point x="1050" y="686" type="curve" smooth="yes"/>
      <point x="1050" y="352"/>
      <point x="876" y="116"/>
      <point x="614" y="116" type="curve" smooth="yes"/>
      <point x="362" y="116"/>
      <point x="209" y="334"/>
      <point x="119" y="607" type="curve"/>
      <point x="36" y="570" type="line"/>
      <point x="121" y="241"/>
      <point x="335" y="-29"/>
      <point x="659" y="-29" type="curve" smooth="yes"/>
    </contour>
  </outline>
</glyph>
<glyph name="Germandbls" format="1">
  <advance width="1655"/>
  <unicode hex="1E9E"/>
  <outline>
    <contour>
      <point x="1537" y="428" type="curve" smooth="yes"/>
      <point x="1537" y="733"/>
      <point x="1293" y="880"/>
      <point x="1023" y="956" type="curve"/>
      <point x="1035" y="899" type="line"/>
      <point x="1386" y="1430" type="line"/>
      <point x="1376" y="1491" type="line"/>
      <point x="1231" y="1539"/>
      <point x="1046" y="1585"/>
      <point x="868" y="1585" type="curve" smooth="yes"/>
      <point x="448" y="1585"/>
      <point x="295" y="1329"/>
      <point x="295" y="901" type="curve" smooth="yes"/>
      <point x="295" y="182" type="line" smooth="yes"/>
      <point x="295" y="149"/>
      <point x="278" y="125"/>
      <point x="241" y="118" type="curve" smooth="yes"/>
      <point x="80" y="88" type="line"/>
      <point x="80" y="0" type="line"/>
      <point x="465" y="0" type="line"/>
      <point x="465" y="943" type="line" smooth="yes"/>
      <point x="465" y="1281"/>
      <point x="579" y="1485"/>
      <point x="832" y="1485" type="curve" smooth="yes"/>
      <point x="993" y="1485"/>
      <point x="1166" y="1402"/>
      <point x="1252" y="1326" type="curve"/>
      <point x="1224" y="1442" type="line"/>
      <point x="883" y="859" type="line"/>
      <point x="896" y="821" type="line"/>
      <point x="1129" y="774"/>
      <point x="1361" y="641"/>
      <point x="1361" y="375" type="curve" smooth="yes"/>
      <point x="1361" y="200"/>
      <point x="1261" y="79"/>
      <point x="1093" y="79" type="curve" smooth="yes"/>
      <point x="995" y="79"/>
      <point x="903" y="120"/>
      <point x="865" y="156" type="curve" smooth="yes"/>
      <point x="842" y="178"/>
      <point x="835" y="199"/>
      <point x="831" y="224" type="curve" smooth="yes"/>
      <point x="794" y="446" type="line"/>
      <point x="689" y="446" type="line"/>
      <point x="672" y="321"/>
      <point x="665" y="195"/>
      <point x="672" y="70" type="curve"/>
      <point x="758" y="24"/>
      <point x="912" y="-23"/>
      <point x="1062" y="-23" type="curve" smooth="yes"/>
      <point x="1374" y="-23"/>
      <point x="1537" y="179"/>
    </contour>
  </outline>
</glyph>
<glyph name="quoteleft" format="1">
  <advance width="554"/>
  <unicode hex="2018"/>
  <outline>
    <contour>
      <point x="122" y="1455" type="curve" smooth="yes"/>
      <point x="122" y="1307"/>
      <point x="199" y="1241"/>
      <point x="277" y="1241" type="curve" smooth="yes"/>
      <point x="350" y="1241"/>
      <point x="401" y="1299"/>
      <point x="401" y="1367" type="curve" smooth="yes"/>
      <point x="401" y="1432"/>
      <point x="359" y="1469"/>
      <point x="323" y="1489" type="curve" smooth="yes"/>
      <point x="295" y="1504"/>
      <point x="277" y="1515"/>
      <point x="277" y="1561" type="curve" smooth="yes"/>
      <point x="277" y="1650"/>
      <point x="353" y="1736"/>
      <point x="441" y="1804" type="curve"/>
      <point x="399" y="1859" type="line"/>
      <point x="227" y="1766"/>
      <point x="122" y="1620"/>
    </contour>
  </outline>
</glyph>
<glyph name="dagger" format="1">
  <advance width="948"/>
  <unicode hex="2020"/>
  <outline>
    <contour>
      <point x="519" y="-246" type="line"/>
      <point x="567" y="1506" type="line"/>
      <point x="567" y="1662" type="line"/>
      <point x="381" y="1662" type="line"/>
      <point x="381" y="1506" type="line"/>
      <point x="429" y="-246" type="line"/>
    </contour>
    <contour>
      <point x="551" y="1000" type="line"/>
      <point x="553" y="1030" type="line" smooth="yes"/>
      <point x="556" y="1069"/>
      <point x="577" y="1082"/>
      <point x="618" y="1090" type="curve" smooth="yes"/>
      <point x="866" y="1139" type="line"/>
      <point x="866" y="1241" type="line"/>
      <point x="474" y="1226" type="line"/>
      <point x="82" y="1241" type="line"/>
      <point x="82" y="1139" type="line"/>
      <point x="329" y="1090" type="line" smooth="yes"/>
      <point x="371" y="1082"/>
      <point x="392" y="1069"/>
      <point x="395" y="1030" type="curve" smooth="yes"/>
      <point x="397" y="1000" type="line"/>
    </contour>
  </outline>
</glyph>
<glyph name="daggerdbl" format="1">
  <advance width="990"/>
  <unicode hex="2021"/>
  <outline>
    <contour>
      <point x="538" y="-248" type="line"/>
      <point x="588" y="1506" type="line"/>
      <point x="588" y="1662" type="line"/>
      <point x="402" y="1662" type="line"/>
      <point x="402" y="1506" type="line"/>
      <point x="450" y="-246" type="line"/>
    </contour>
    <contour>
      <point x="558" y="505" type="line"/>
      <point x="560" y="535" type="line" smooth="yes"/>
      <point x="563" y="574"/>
      <point x="584" y="587"/>
      <point x="626" y="595" type="curve" smooth="yes"/>
      <point x="887" y="644" type="line"/>
      <point x="887" y="746" type="line"/>
      <point x="495" y="731" type="line"/>
      <point x="103" y="746" type="line"/>
      <point x="103" y="644" type="line"/>
      <point x="363" y="595" type="line" smooth="yes"/>
      <point x="406" y="587"/>
      <point x="426" y="574"/>
      <point x="429" y="535" type="curve" smooth="yes"/>
      <point x="431" y="505" type="line"/>
    </contour>
    <contour>
      <point x="572" y="1000" type="line"/>
      <point x="574" y="1030" type="line" smooth="yes"/>
      <point x="577" y="1069"/>
      <point x="598" y="1082"/>
      <point x="639" y="1090" type="curve" smooth="yes"/>
      <point x="887" y="1139" type="line"/>
      <point x="887" y="1241" type="line"/>
      <point x="495" y="1226" type="line"/>
      <point x="103" y="1241" type="line"/>
      <point x="103" y="1139" type="line"/>
      <point x="350" y="1090" type="line" smooth="yes"/>
      <point x="392" y="1082"/>
      <point x="413" y="1069"/>
      <point x="416" y="1030" type="curve" smooth="yes"/>
      <point x="418" y="1000" type="line"/>
    </contour>
  </outline>
</glyph>
<glyph name="bullet" format="1">
  <advance width="836"/>
  <unicode hex="2022"/>
  <outline>
    <contour>
      <point x="646" y="636" type="curve" smooth="yes"/>
      <point x="646" y="768"/>
      <point x="555" y="855"/>
      <point x="418" y="855" type="curve" smooth="yes"/>
      <point x="281" y="855"/>
      <point x="190" y="768"/>
      <point x="190" y="636" type="curve" smooth="yes"/>
      <point x="190" y="504"/>
      <point x="281" y="417"/>
      <point x="418" y="417" type="curve" smooth="yes"/>
      <point x="555" y="417"/>
      <point x="646" y="504"/>
    </contour>
  </outline>
</glyph>
